SplineFontDB: 3.2
FontName: fn
FullName: core font
FamilyName: core-fn
Weight: Regular
Copyright: 
Version: 
ItalicAngle: 0
UnderlinePosition: 0
UnderlineWidth: 0
Ascent: 850
Descent: 150
InvalidEm: 0
LayerCount: 2
Layer: 0 0 "Back" 1
Layer: 1 0 "Fore" 0
XUID: [1021 125 -1573210735 4256]
OS2Version: 0
OS2_WeightWidthSlopeOnly: 0
OS2_UseTypoMetrics: 0
CreationTime: 1579778984
ModificationTime: 1580432988
PfmFamily: 17
TTFWeight: 400
TTFWidth: 5
LineGap: 90
VLineGap: 90
Panose: 2 0 5 3 0 0 0 0 0 0
OS2TypoAscent: 0
OS2TypoAOffset: 1
OS2TypoDescent: 0
OS2TypoDOffset: 1
OS2TypoLinegap: 90
OS2WinAscent: 0
OS2WinAOffset: 1
OS2WinDescent: 0
OS2WinDOffset: 1
HheadAscent: 0
HheadAOffset: 1
HheadDescent: 0
HheadDOffset: 1
OS2Vendor: 'PfEd'
MarkAttachClasses: 1
DEI: 91125
Encoding: Custom
UnicodeInterp: none
NameList: AGL For New Fonts
DisplaySize: -48
AntiAlias: 1
FitToEm: 0
WinInfo: 0 39 14
BeginPrivate: 0
EndPrivate
Grid
750 1350 m 0
 750 -650 l 1024
260 1350 m 0
 260 -650 l 1024
-1000 412 m 0
 2000 412 l 1024
502 1350 m 0
 502 -650 l 1024
-1000 1094 m 0
 2000 1094 l 1024
EndSplineSet
BeginChars: 314 312

StartChar: home
Encoding: 1 59392 1
Width: 1000
Flags: W
HStem: -150 50<212.358 236.25 767.75 791.642> 155 50<403.108 427 577 600.892> 799 50<473.912 529.713>
VStem: 161.25 50<-98.8916 -75> 352 50<130 153.86> 602 50<130 153.86> 792.75 50<-98.8916 -75>
LayerCount: 2
Fore
SplineSet
993 343 m 2
 554 826 l 2
 540.201171875 841.182617188 522 849 502 849 c 1
 482 849 464 841 450 826 c 2
 8.5 341 l 2
 -1.0126953125 330.549804688 -0.5 315 9.5 306 c 0
 14.5 301 20.5 299 26.5 299 c 0
 33.5 299 40.5 302 45.5 307 c 2
 161.25 425 l 1
 161.25 -75 l 2
 161.25 -116 195.25 -150 236.25 -150 c 2
 767.75 -150 l 2
 808.75 -150 842.75 -116 842.75 -75 c 2
 842.75 425 l 1
 956 309 l 2
 965 299 981 298 991 308 c 0
 1001 317 1002.05566406 333.052734375 993 343 c 2
602 -100 m 1
 402 -100 l 1
 402 130 l 2
 402 143.97265625 413 155 427 155 c 2
 577 155 l 2
 591 155 602 143.97265625 602 130 c 2
 602 -100 l 1
792.75 -75 m 2
 792.75 -89 781.75 -100 767.75 -100 c 2
 652 -100 l 1
 652 130 l 2
 652 170.918945312 618 205 577 205 c 2
 427 205 l 2
 386 205 352 170.918945312 352 130 c 2
 352 -100 l 1
 236.25 -100 l 2
 222.25 -100 211.25 -89 211.25 -75 c 2
 211.25 480 l 1
 487 792 l 2
 491 797 496 799 502 799 c 0
 508 799 513 797 517 792 c 2
 792.75 480 l 1
 792.75 -75 l 2
EndSplineSet
EndChar

StartChar: apartment
Encoding: 2 59393 2
Width: 1000
Flags: W
HStem: -150 50<0.197601 25 925 949.802> 0 50<200 250 300 350 400 450 700 750> 100 50<200 250 300 350 400 450 700 750> 200 50<200 250 300 350 400 450 700 750> 300 50<200 250 300 350 400 450 700 750> 400 50<200 250 300 350 400 450 700 750> 500 50<200 250 300 350 400 450 700 750>
VStem: 50 50<625 660.476> 200 50<0 50 100 150 200 250 300 350 400 450 500 550> 300 50<0 50 100 150 200 250 300 350 400 450 500 550> 400 50<0 50 100 150 200 250 300 350 400 450 500 550> 700 50<0 50 100 150 200 250 300 350 400 450 500 550> 850 50<575 611.637>
LayerCount: 2
Fore
SplineSet
700 550 m 1
 750 550 l 1
 750 500 l 1
 700 500 l 1
 700 550 l 1
700 450 m 1
 750 450 l 1
 750 400 l 1
 700 400 l 1
 700 450 l 1
700 350 m 1
 750 350 l 1
 750 300 l 1
 700 300 l 1
 700 350 l 1
700 250 m 1
 750 250 l 1
 750 200 l 1
 700 200 l 1
 700 250 l 1
700 50 m 1
 750 50 l 1
 750 0 l 1
 700 0 l 1
 700 50 l 1
700 150 m 1
 750 150 l 1
 750 100 l 1
 700 100 l 1
 700 150 l 1
300 550 m 1
 350 550 l 1
 350 500 l 1
 300 500 l 1
 300 550 l 1
300 450 m 1
 350 450 l 1
 350 400 l 1
 300 400 l 1
 300 450 l 1
300 350 m 1
 350 350 l 1
 350 300 l 1
 300 300 l 1
 300 350 l 1
300 250 m 1
 350 250 l 1
 350 200 l 1
 300 200 l 1
 300 250 l 1
300 50 m 1
 350 50 l 1
 350 0 l 1
 300 0 l 1
 300 50 l 1
300 150 m 1
 350 150 l 1
 350 100 l 1
 300 100 l 1
 300 150 l 1
200 550 m 1
 250 550 l 1
 250 500 l 1
 200 500 l 1
 200 550 l 1
200 450 m 1
 250 450 l 1
 250 400 l 1
 200 400 l 1
 200 450 l 1
200 350 m 1
 250 350 l 1
 250 300 l 1
 200 300 l 1
 200 350 l 1
200 250 m 1
 250 250 l 1
 250 200 l 1
 200 200 l 1
 200 250 l 1
200 50 m 1
 250 50 l 1
 250 0 l 1
 200 0 l 1
 200 50 l 1
200 150 m 1
 250 150 l 1
 250 100 l 1
 200 100 l 1
 200 150 l 1
400 550 m 1
 450 550 l 1
 450 500 l 1
 400 500 l 1
 400 550 l 1
400 450 m 1
 450 450 l 1
 450 400 l 1
 400 400 l 1
 400 450 l 1
400 350 m 1
 450 350 l 1
 450 300 l 1
 400 300 l 1
 400 350 l 1
400 250 m 1
 450 250 l 1
 450 200 l 1
 400 200 l 1
 400 250 l 1
400 50 m 1
 450 50 l 1
 450 0 l 1
 400 0 l 1
 400 50 l 1
400 150 m 1
 450 150 l 1
 450 100 l 1
 400 100 l 1
 400 150 l 1
925 -100 m 2
 900 -100 l 1
 900 575 l 2
 900 613 871.37123037 651.361093374 836 665 c 2
 600 756 l 1
 600 825 l 2
 600 832.9806089 596 840 590 845 c 0
 584 850 575 851 568 849 c 2
 116 713 l 2
 79 702 50 664 50 625 c 2
 50 -100 l 1
 25 -100 l 2
 11 -100 0 -111 0 -125 c 0
 0 -139 11 -150 25 -150 c 2
 925 -150 l 2
 939 -150 950 -139 950 -125 c 0
 950 -111 939 -100 925 -100 c 2
820 617 m 2
 836 612 850 592 850 575 c 2
 850 -100 l 1
 600 -100 l 1
 600 690 l 1
 820 617 l 2
100 625 m 2
 100 641 114.005274847 661.001318712 130 665 c 2
 550 770 l 1
 550 -100 l 1
 100 -100 l 1
 100 625 l 2
EndSplineSet
EndChar

StartChar: pencil
Encoding: 3 59394 3
Width: 1000
Flags: W
LayerCount: 2
Fore
SplineSet
972.51171875 738.358398438 m 2
 1012.34863281 698.51171875 1008.66601562 630.03125 964.30859375 585.682617188 c 0
 964.30859375 585.673828125 964.299804688 585.673828125 964.299804688 585.665039062 c 2
 351.887695312 -26.73828125 l 2
 349.854492188 -28.7802734375 347.393554688 -30.3525390625 344.684570312 -31.3525390625 c 2
 27.0791015625 -148.762695312 l 2
 24.8232421875 -149.590820312 22.4736328125 -150.000976562 20.1494140625 -150.000976562 c 0
 14.9287109375 -150.000976562 9.8271484375 -147.958984375 6.0068359375 -144.139648438 c 0
 0.478515625 -138.619140625 -1.31640625 -130.390625 1.384765625 -123.067382812 c 2
 118.793945312 194.538085938 l 2
 119.793945312 197.247070312 121.366210938 199.708007812 123.408203125 201.75 c 2
 735.803710938 814.153320312 l 2
 780.169921875 858.528320312 848.658203125 862.2109375 888.504882812 822.365234375 c 2
 972.51171875 738.358398438 l 2
145.489257812 151.393554688 m 1
 103.8828125 38.8544921875 l 1
 140.797851562 20.6103515625 170.663085938 -9.2548828125 188.9921875 -46.263671875 c 1
 301.540039062 -4.6572265625 l 1
 145.489257812 151.393554688 l 1
89.89453125 1.0078125 m 1
 53.970703125 -96.1669921875 l 1
 151.146484375 -60.251953125 l 1
 137.251953125 -33.84765625 116.213867188 -12.8095703125 89.89453125 1.0078125 c 1
337.754882812 15.6884765625 m 1
 818.178710938 496.112304688 l 1
 646.267578125 668.040039062 l 1
 165.834960938 187.607421875 l 1
 337.754882812 15.6884765625 l 1
936.024414062 613.966796875 m 2
 964.787109375 642.712890625 968.469726562 685.831054688 944.227539062 710.08203125 c 2
 860.220703125 794.081054688 l 2
 835.96875 818.314453125 792.8671875 814.640625 764.104492188 785.876953125 c 2
 674.54296875 696.31640625 l 1
 846.462890625 524.396484375 l 1
 936.024414062 613.966796875 l 2
936.024414062 613.966796875 m 1024
EndSplineSet
EndChar

StartChar: magic
Encoding: 4 59395 4
Width: 1000
Flags: W
LayerCount: 2
Fore
SplineSet
575 500 m 0
 561 500 550 511 550 525 c 0
 550 594 494 650 425 650 c 0
 411 650 400 661 400 675 c 0
 400 689 411 700 425 700 c 0
 494 700 550 756 550 825 c 0
 550 839 561 850 575 850 c 0
 589 850 600 839 600 825 c 0
 600 756 656 700 725 700 c 0
 739 700 750 689 750 675 c 0
 750 661 739 650 725 650 c 0
 656 650 600 594 600 525 c 0
 600 511 589 500 575 500 c 0
515 675 m 1
 540 660 560 640 575 615 c 1
 590 640 610 660 635 675 c 1
 610 690 590 710 575 735 c 1
 560 710 540 690 515 675 c 1
75 350 m 0
 61 350 50 361 50 375 c 0
 50 389 39 400 25 400 c 0
 11 400 0 411 0 425 c 0
 0 439 11 450 25 450 c 0
 39 450 50 461 50 475 c 0
 50 489 61 500 75 500 c 0
 89 500 100 489 100 475 c 0
 100 461 111 450 125 450 c 0
 139 450 150 439 150 425 c 0
 150 411 139 400 125 400 c 0
 111 400 100 389 100 375 c 0
 100 361 89 350 75 350 c 0
907 53 m 2
 378 582 l 2
 364 596 345 604 325 604 c 0
 305 604 286 596 272 582 c 2
 243 553 l 2
 229 539 221 520 221 500 c 0
 221 480 229 461 243 447 c 2
 772 -82 l 2
 786 -96 805 -104 825 -104 c 0
 845 -104 864 -97 878 -82 c 2
 907 -53 l 2
 922 -39 929 -20 929 0 c 0
 929 20 922 39 907 53 c 2
278 518 m 2
 307 547 l 2
 312 552 318 554 325 554 c 0
 332 554 338 552 343 547 c 2
 415 475 l 1
 350 410 l 1
 278 482 l 2
 268 492 268 508 278 518 c 2
872 -18 m 2
 843 -47 l 2
 838 -52 832 -54 825 -54 c 0
 818 -54 812 -52 807 -47 c 2
 385 375 l 1
 450 440 l 1
 872 18 l 2
 882 8 882 -8 872 -18 c 2
175 600 m 0
 161 600 150 611 150 625 c 0
 150 666 116 700 75 700 c 0
 61 700 50 711 50 725 c 0
 50 739 61 750 75 750 c 0
 116 750 150 784 150 825 c 0
 150 839 161 850 175 850 c 0
 189 850 200 839 200 825 c 0
 200 784 234 750 275 750 c 0
 289 750 300 739 300 725 c 0
 300 711 289 700 275 700 c 0
 234 700 200 666 200 625 c 0
 200 611 189 600 175 600 c 0
150 725 m 1
 159 718 168 709 175 700 c 1
 182 709 191 718 200 725 c 1
 191 732 182 741 175 750 c 1
 168 741 159 732 150 725 c 1
175 100 m 0
 161 100 150 111 150 125 c 0
 150 166 116 200 75 200 c 0
 61 200 50 211 50 225 c 0
 50 239 61 250 75 250 c 0
 116 250 150 284 150 325 c 0
 150 339 161 350 175 350 c 0
 189 350 200 339 200 325 c 0
 200 284 234 250 275 250 c 0
 289 250 300 239 300 225 c 0
 300 211 289 200 275 200 c 0
 234 200 200 166 200 125 c 0
 200 111 189 100 175 100 c 0
150 225 m 1
 159 218 168 209 175 200 c 1
 182 209 191 218 200 225 c 1
 191 232 182 241 175 250 c 1
 168 241 159 232 150 225 c 1
EndSplineSet
EndChar

StartChar: drop
Encoding: 5 59396 5
Width: 1000
Flags: W
LayerCount: 2
Fore
SplineSet
500 -150 m 0
 419 -150 344 -117 288 -58 c 0
 232 3 200 85 200 175 c 0
 200 322 266 427 335 539 c 0
 389 625 444 714 476 832 c 0
 479 843 489 850 500 850 c 0
 511 850 521 843 524 832 c 0
 556 714 612 625 665 539 c 0
 735 427 800 322 800 175 c 0
 800 85 769 2 713 -58 c 0
 657 -117 581 -150 500 -150 c 0
500 744 m 1
 466 656 421 583 378 513 c 0
 309 403 250 308 250 175 c 0
 250 18 358 -100 500 -100 c 0
 643 -100 750 18 750 175 c 0
 750 308 691 403 623 512 c 0
 579 583 534 656 500 744 c 1
EndSplineSet
EndChar

StartChar: lighter
Encoding: 6 59397 6
Width: 1000
Flags: W
HStem: 550 50<726.282 771.252>
LayerCount: 2
Fore
SplineSet
849 400 m 2
 815 400 l 1
 772 486 l 2
 768 495 759 500 749 500 c 2
 549 500 l 2
 535 500 524 489 524 475 c 2
 524 400 l 1
 463 400 l 1
 271 734 l 2
 264 746 249 750 237 743 c 2
 63 643 l 2
 51 636 47 621 54 609 c 2
 254 263 l 2
 259 255 267 250 276 250 c 0
 280 250 284 251 288 253 c 2
 424 332 l 1
 424 -75 l 2
 424 -89 435 -100 449 -100 c 2
 849 -100 l 2
 863 -100 874 -89 874 -75 c 2
 874 375 l 2
 874 389 863 400 849 400 c 2
824 100 m 1
 774 100 l 1
 774 250 l 1
 824 250 l 1
 824 100 l 1
574 450 m 1
 734 450 l 1
 759 400 l 1
 574 400 l 1
 574 450 l 1
285 309 m 1
 110 612 l 1
 240 687 l 1
 415 384 l 1
 285 309 l 1
474 -50 m 1
 474 350 l 1
 799 350 l 1
 824 350 l 1
 824 300 l 1
 749 300 l 2
 735 300 724 289 724 275 c 2
 724 75 l 2
 724 61 735 50 749 50 c 2
 824 50 l 1
 824 -50 l 1
 474 -50 l 1
749 550 m 0
 712 550 693 568 685 583 c 0
 668 611 671 654 693 713 c 0
 708 753 726 786 727 787 c 0
 732 795 740 800 749 800 c 0
 758 800 766 795 771 787 c 0
 772 786 790 753 805 713 c 0
 827 654 830 611 813 583 c 0
 805 568 787 550 749 550 c 0
749 718 m 1
 746 711 743 703 740 695 c 0
 717 634 725 613 728 608 c 0
 729 606 732 600 749 600 c 0
 766 600 769 606 770 608 c 0
 773 613 781 634 758 695 c 0
 755 703 752 711 749 718 c 1
EndSplineSet
EndChar

StartChar: poop
Encoding: 7 59398 7
Width: 1000
Flags: W
HStem: -148 50<316.451 711.158> 102 49<251.943 319.854> 202 50<621.101 755.183> 352 49<388.094 419.808> 452 50<621.147 714.016> 652 50<531.798 664.266>
VStem: 21 50<57.1601 196.706> 71 50<273.147 424.381> 221 50<554.329 675.774> 471 50<713.895 791.06> 721 50<488.404 596.069> 871 50<250.197 356.753> 921 50<2.48962 103.144>
LayerCount: 2
Fore
SplineSet
874 187 m 0xfee8
 870 189 866 191 862 193 c 1
 910 231 921 272 921 302 c 0
 921 373 861 435 762 472 c 1
 768 490 771 509 771 527 c 0
 771 624 693 702 596 702 c 0
 562 702 521 711 521 752 c 0
 521 775 550 799 560 806 c 0
 569 812 573 824 570 834 c 0
 567 844 557 852 546 852 c 0
 468 852 387 826 325 781 c 0
 293 758 268 732 250 703 c 0
 231 671 221 637 221 602 c 0
 221 588 222 573 225 559 c 1
 182 539 146 512 120 480 c 0
 88 442 71 397 71 352 c 0xfdf0
 71 325 77 297 89 270 c 1
 44 227 21 178 21 127 c 0
 21 51 72 -20 166 -72 c 0
 254 -121 372 -148 496 -148 c 0
 624 -148 740 -131 823 -101 c 0
 945 -57 971 7 971 52 c 0
 971 88 954 141 874 187 c 0xfee8
806 -54 m 0
 728 -82 618 -98 496 -98 c 0
 380 -98 271 -73 190 -28 c 0
 113 15 71 70 71 127 c 0xfee8
 71 167 92 200 114 225 c 1
 120 216 126 208 133 201 c 0
 173 155 228 121 289 103 c 0
 291 102 294 102 296 102 c 0
 307 102 317 109 320 120 c 0
 324 133 316 147 303 151 c 0
 199 181 121 267 121 352 c 0
 121 413 165 472 238 510 c 1
 264 438 319 378 388 353 c 0
 390 353 393 352 396 352 c 0
 406 352 416 358 420 369 c 0
 424 382 417 396 404 401 c 0
 328 427 271 514 271 602 c 0
 271 653 301 702 354 741 c 0
 392 768 437 787 483 796 c 1
 476 783 471 768 471 752 c 0
 471 704 504 652 596 652 c 0
 665 652 721 596 721 527 c 0
 721 514 719 500 715 488 c 1
 694 493 673 498 650 502 c 0
 636 504 624 495 621 481 c 0
 619 467 628 455 642 452 c 0
 711 441 770 420 812 391 c 0
 839 372 871 342 871 302 c 0xfdf0
 871 270 850 241 807 217 c 1
 762 233 708 245 649 252 c 0
 635 253 623 244 621 230 c 0
 619 216 629 204 643 202 c 0
 727 192 799 172 849 143 c 0
 882 125 921 94 921 52 c 0xfce8
 921 -1 858 -35 806 -54 c 0
EndSplineSet
EndChar

StartChar: sun
Encoding: 8 59399 8
Width: 1000
Flags: W
HStem: 100 50<414.24 579.76> 300 50<22.1976 221.802 772.198 971.802> 500 50<414.24 579.76>
VStem: 272 50<242.24 407.76> 472 50<-149.802 49.8024 600.198 799.802> 672 50<242.24 407.76>
CounterMasks: 1 fc
LayerCount: 2
Fore
SplineSet
497 100 m 0
 373 100 272 201 272 325 c 0
 272 449 373 550 497 550 c 0
 621 550 722 449 722 325 c 0
 722 201 621 100 497 100 c 0
497 500 m 0
 401 500 322 421 322 325 c 0
 322 229 401 150 497 150 c 0
 593 150 672 229 672 325 c 0
 672 421 593 500 497 500 c 0
497 600 m 0
 483 600 472 611 472 625 c 2
 472 775 l 2
 472 789 483 800 497 800 c 0
 511 800 522 789 522 775 c 2
 522 625 l 2
 522 611 511 600 497 600 c 0
497 -150 m 0
 483 -150 472 -139 472 -125 c 2
 472 25 l 2
 472 39 483 50 497 50 c 0
 511 50 522 39 522 25 c 2
 522 -125 l 2
 522 -139 511 -150 497 -150 c 0
197 300 m 2
 47 300 l 2
 33 300 22 311 22 325 c 0
 22 339 33 350 47 350 c 2
 197 350 l 2
 211 350 222 339 222 325 c 0
 222 311 211 300 197 300 c 2
947 300 m 2
 797 300 l 2
 783 300 772 311 772 325 c 0
 772 339 783 350 797 350 c 2
 947 350 l 2
 961 350 972 339 972 325 c 0
 972 311 961 300 947 300 c 2
247 550 m 0
 241 550 234 552 229 557 c 2
 129 657 l 2
 120 667 120 683 129 693 c 0
 138 703 155 702 165 693 c 2
 265 593 l 2
 274 583 274 567 265 557 c 0
 260 552 253 550 247 550 c 0
147 -50 m 0
 141 -50 134 -48 129 -43 c 0
 120 -33 120 -17 129 -7 c 2
 229 93 l 2
 239 102 255 102 265 93 c 0
 275 84 274 67 265 57 c 2
 165 -43 l 2
 160 -48 153 -50 147 -50 c 0
847 -50 m 0
 841 -50 834 -48 829 -43 c 2
 729 57 l 2
 720 67 720 83 729 93 c 0
 739 102 755 102 765 93 c 2
 865 -7 l 2
 874 -17 874 -33 865 -43 c 0
 860 -48 853 -50 847 -50 c 0
747 550 m 0
 741 550 734 552 729 557 c 0
 720 567 720 583 729 593 c 2
 829 693 l 2
 839 702 855 702 865 693 c 0
 874 683 874 667 865 657 c 2
 765 557 l 2
 760 552 753 550 747 550 c 0
EndSplineSet
EndChar

StartChar: moon
Encoding: 9 59400 9
Width: 1000
Flags: W
LayerCount: 2
Fore
SplineSet
513 -150 m 0
 376 -150 247 -97 150 0 c 0
 53 97 0 226 0 363 c 0
 0 475 36 581 105 670 c 0
 137 712 176 749 221 779 c 0
 266 810 315 834 368 849 c 0
 378 852 388 849 394 841 c 0
 400 833 402 823 397 814 c 0
 365 751 350 691 350 625 c 0
 350 391 541 200 775 200 c 0
 841 200 901 215 964 247 c 0
 973 252 983 251 991 244 c 0
 999 237 1002 228 999 218 c 0
 984 165 960 116 929 71 c 0
 899 26 862 -13 820 -46 c 0
 731 -114 625 -150 513 -150 c 0
329 782 m 1
 160 710 50 547 50 363 c 0
 50 108 258 -100 513 -100 c 0
 697 -100 860 10 932 179 c 1
 881 159 829 150 775 150 c 0
 648 150 529 199 439 289 c 0
 349 379 300 498 300 625 c 0
 300 679 309 731 329 782 c 1
EndSplineSet
EndChar

StartChar: cloud
Encoding: 10 59401 10
Width: 1000
Flags: W
LayerCount: 2
Fore
SplineSet
800 50 m 2
 300 50 l 2
 135 50 0 185 0 350 c 0
 0 515 135 650 300 650 c 0
 380 650 457 618 513 561 c 1
 517 571 523 580 529 589 c 0
 557 627 603 650 650 650 c 0
 733 650 800 583 800 500 c 0
 800 483 797 465 791 449 c 1
 794 449 797 449 800 449 c 0
 910 449 1000 360 1000 250 c 0
 1000 140 910 50 800 50 c 2
300 600 m 0
 162 600 50 488 50 350 c 0
 50 212 162 100 300 100 c 2
 800 100 l 2
 883 100 950 167 950 250 c 0
 950 333 883 399 800 399 c 0
 783 399 765 396 749 390 c 0
 738 386 726 390 720 400 c 0
 714 410 714 423 722 431 c 0
 740 450 750 474 750 500 c 0
 750 555 705 600 650 600 c 0
 618 600 589 585 570 559 c 0
 558 544 551 525 550 506 c 0
 549 496 542 487 532 484 c 0
 522 481 511 485 505 494 c 0
 499 501 493 509 487 516 c 0
 440 569 371 600 300 600 c 0
EndSplineSet
EndChar

StartChar: cloud-upload
Encoding: 11 59402 11
Width: 1000
Flags: W
LayerCount: 2
Fore
SplineSet
800 50 m 2
 625 50 l 2
 611 50 600 61 600 75 c 0
 600 89 611 100 625 100 c 2
 800 100 l 2
 883 100 950 167 950 250 c 0
 950 333 883 399 800 399 c 0
 783 399 766 396 749 390 c 0
 738 387 726 391 720 400 c 0
 713 410 715 423 723 431 c 0
 740 450 750 474 750 500 c 0
 750 555 705 600 650 600 c 0
 618 600 589 585 570 559 c 0
 558 544 551 526 550 506 c 0
 550 496 542 487 532 484 c 0
 522 481 511 485 505 494 c 1
 505 494 l 1
 499 501 493 509 487 516 c 0
 440 569 371 600 300 600 c 0
 162 600 50 488 50 350 c 0
 50 212 162 100 300 100 c 2
 425 100 l 2
 439 100 450 89 450 75 c 0
 450 61 439 50 425 50 c 2
 300 50 l 2
 135 50 0 185 0 350 c 0
 0 515 135 650 300 650 c 0
 380 650 457 618 513 561 c 1
 517 571 523 580 529 589 c 0
 557 627 603 650 650 650 c 0
 733 650 800 583 800 500 c 0
 800 482 797 465 791 449 c 1
 794 449 797 449 800 449 c 0
 910 449 1000 360 1000 250 c 0
 1000 140 910 50 800 50 c 2
643 243 m 2
 543 343 l 2
 533 352 517 352 507 343 c 2
 407 243 l 2
 398 233 398 217 407 207 c 0
 416 197 433 198 443 207 c 2
 500 265 l 1
 500 75 l 2
 500 61 511 50 525 50 c 0
 539 50 550 61 550 75 c 2
 550 265 l 1
 607 207 l 2
 612 202 619 200 625 200 c 0
 631 200 638 202 643 207 c 0
 652 217 652 233 643 243 c 2
EndSplineSet
EndChar

StartChar: cloud-download
Encoding: 12 59403 12
Width: 1000
Flags: W
LayerCount: 2
Fore
SplineSet
800 50 m 2
 675 50 l 2
 661 50 650 61 650 75 c 0
 650 89 661 100 675 100 c 2
 800 100 l 2
 883 100 950 167 950 250 c 0
 950 333 883 399 800 399 c 0
 783 399 766 396 749 390 c 0
 738 387 726 391 720 400 c 0
 713 410 715 423 723 431 c 0
 740 450 750 474 750 500 c 0
 750 555 705 600 650 600 c 0
 618 600 589 585 570 559 c 0
 558 544 551 526 550 506 c 0
 550 496 542 487 532 484 c 0
 522 481 511 485 505 494 c 1
 505 494 l 1
 499 501 493 509 487 516 c 0
 440 569 371 600 300 600 c 0
 162 600 50 488 50 350 c 0
 50 212 162 100 300 100 c 2
 375 100 l 2
 389 100 400 89 400 75 c 0
 400 61 389 50 375 50 c 2
 300 50 l 2
 135 50 0 185 0 350 c 0
 0 515 135 650 300 650 c 0
 380 650 457 618 513 561 c 1
 517 571 523 580 529 589 c 0
 557 627 603 650 650 650 c 0
 733 650 800 583 800 500 c 0
 800 482 797 465 791 449 c 1
 794 449 797 449 800 449 c 0
 910 449 1000 360 1000 250 c 0
 1000 140 910 50 800 50 c 2
643 193 m 0
 633 202 617 202 607 193 c 2
 550 135 l 1
 550 325 l 2
 550 339 539 350 525 350 c 0
 511 350 500 339 500 325 c 2
 500 135 l 1
 443 193 l 2
 433 202 417 202 407 193 c 0
 398 183 398 167 407 157 c 2
 507 57 l 2
 512 52 519 50 525 50 c 0
 531 50 538 52 543 57 c 2
 643 157 l 2
 652 167 652 183 643 193 c 0
EndSplineSet
EndChar

StartChar: cloud-sync
Encoding: 13 59404 13
Width: 1000
Flags: W
LayerCount: 2
Fore
SplineSet
800 449 m 0
 797 449 794 449 791 449 c 1
 797 465 800 482 800 500 c 0
 800 583 733 650 650 650 c 0
 603 650 557 627 529 589 c 0
 523 580 517 571 513 561 c 1
 457 618 380 650 300 650 c 0
 135 650 0 515 0 350 c 0
 0 185 135 50 300 50 c 2
 800 50 l 2
 910 50 1000 140 1000 250 c 0
 1000 360 910 449 800 449 c 0
800 100 m 2
 300 100 l 2
 162 100 50 212 50 350 c 0
 50 488 162 600 300 600 c 0
 371 600 440 569 487 516 c 0
 493 509 499 501 505 494 c 1
 505 494 l 1
 511 485 522 481 532 484 c 0
 542 487 550 496 550 506 c 0
 551 526 558 544 570 559 c 0
 589 585 618 600 650 600 c 0
 705 600 750 555 750 500 c 0
 750 474 740 450 723 431 c 0
 715 423 713 410 720 400 c 0
 727 390 738 387 749 390 c 0
 766 396 783 399 800 399 c 0
 883 399 950 332 950 250 c 0
 950 168 883 100 800 100 c 2
320 252 m 0
 314 251 307 250 300 250 c 0
 245 250 200 295 200 350 c 2
 200 365 l 1
 207 357 l 2
 212 352 219 350 225 350 c 0
 231 350 238 352 243 357 c 0
 252 367 252 383 243 393 c 2
 193 443 l 2
 183 452 167 452 157 443 c 2
 107 393 l 2
 98 383 98 367 107 357 c 0
 117 348 133 348 143 357 c 2
 150 365 l 1
 150 350 l 2
 150 267 217 200 300 200 c 0
 310 200 320 201 330 203 c 0
 344 206 353 219 350 233 c 0
 347 247 334 255 320 252 c 0
457 343 m 2
 450 335 l 1
 450 350 l 2
 450 433 383 500 300 500 c 0
 290 500 280 499 270 497 c 0
 256 494 248 481 250 468 c 0
 252 455 266 445 280 448 c 0
 286 449 293 450 300 450 c 0
 355 450 400 405 400 350 c 2
 400 335 l 1
 393 343 l 2
 383 352 367 352 357 343 c 0
 348 333 348 317 357 307 c 2
 407 257 l 2
 412 252 419 250 425 250 c 0
 431 250 438 252 443 257 c 2
 493 307 l 2
 502 317 502 333 493 343 c 0
 483 352 467 352 457 343 c 2
EndSplineSet
EndChar

StartChar: cloud-check
Encoding: 14 59405 14
Width: 1000
Flags: W
LayerCount: 2
Fore
SplineSet
800 50 m 2
 325 50 l 2
 311 50 300 61 300 75 c 0
 300 89 311 100 325 100 c 2
 800 100 l 2
 883 100 950 167 950 250 c 0
 950 333 883 400 800 400 c 0
 783 400 766 397 750 392 c 0
 739 388 727 392 721 401 c 0
 715 411 716 424 723 432 c 0
 741 451 750 475 750 500 c 0
 750 555 705 600 650 600 c 0
 597 600 553 559 550 506 c 0
 550 496 542 487 532 484 c 0
 522 481 511 485 505 493 c 0
 458 560 381 600 300 600 c 0
 162 600 50 488 50 350 c 0
 50 342 50 335 51 327 c 0
 52 314 42 301 28 300 c 0
 15 299 3 309 1 323 c 0
 0 332 0 341 0 350 c 0
 0 515 135 650 300 650 c 0
 381 650 457 618 513 561 c 1
 537 614 589 650 650 650 c 0
 733 650 800 583 800 500 c 0
 800 483 797 466 791 450 c 1
 794 450 797 450 800 450 c 0
 910 450 1000 360 1000 250 c 0
 1000 140 910 50 800 50 c 2
175 75 m 0
 169 75 162 77 157 82 c 2
 57 182 l 2
 48 192 48 208 57 218 c 0
 66 228 83 227 93 218 c 2
 175 135 l 1
 407 368 l 2
 417 377 433 377 443 368 c 0
 452 358 452 342 443 332 c 2
 193 82 l 2
 188 77 181 75 175 75 c 0
EndSplineSet
EndChar

StartChar: db
Encoding: 15 59406 15
Width: 1000
Flags: W
HStem: -150 41.666<316.463 683.537> 58.334 41.666<316.462 683.536> 266.666 41.666<316.462 683.536> 475 41.666<316.463 683.537> 808.334 41.666<316.463 683.537>
VStem: 83.334 41.666<-4.7911 705.063> 875 41.666<-4.7911 705.063>
LayerCount: 2
Fore
SplineSet
500 850 m 0
 733.625 850 916.666015625 767.625 916.666015625 662.5 c 0
 916.666015625 557.375 733.625 475 500 475 c 0
 266.375 475 83.333984375 557.375 83.333984375 662.5 c 0
 83.333984375 767.625 266.375 850 500 850 c 0
500 516.666015625 m 0
 721 516.666015625 875 593.541015625 875 662.5 c 0
 875 731.458984375 721 808.333984375 500 808.333984375 c 0
 279 808.333984375 125 731.458984375 125 662.5 c 0
 125 593.541015625 279 516.666015625 500 516.666015625 c 0
895.833984375 475 m 0
 907.333984375 475 916.666015625 465.666015625 916.6640625 454.166015625 c 0
 916.6640625 349.041015625 733.623046875 266.666015625 499.998046875 266.666015625 c 0
 266.373046875 266.666015625 83.33203125 349.041015625 83.33203125 454.166015625 c 0
 83.33203125 465.666015625 92.666015625 475 104.166015625 475 c 0
 115.666015625 475 125 465.666015625 125 454.166015625 c 0
 125 385.20703125 279 308.33203125 500 308.33203125 c 0
 721 308.33203125 875 385.20703125 875 454.166015625 c 0
 875 465.666015625 884.333984375 475 895.833984375 475 c 0
895.833984375 266.666015625 m 0
 907.333984375 266.666015625 916.666015625 257.333984375 916.6640625 245.833984375 c 0
 916.6640625 140.708984375 733.623046875 58.333984375 499.998046875 58.333984375 c 0
 266.373046875 58.333984375 83.33203125 140.708984375 83.33203125 245.833984375 c 0
 83.33203125 257.333984375 92.666015625 266.66796875 104.166015625 266.66796875 c 0
 115.666015625 266.66796875 125 257.333984375 125 245.833984375 c 0
 125 176.875 279 100 500 100 c 0
 721 100 875 176.875 875 245.83203125 c 0
 875 257.33203125 884.333984375 266.666015625 895.833984375 266.666015625 c 0
895.833984375 683.333984375 m 0
 907.333984375 683.333984375 916.666015625 674 916.666015625 662.5 c 2
 916.666015625 37.5 l 2
 916.666015625 -67.625 733.625 -150 500 -150 c 0
 266.375 -150 83.333984375 -67.625 83.333984375 37.5 c 2
 83.333984375 662.5 l 2
 83.333984375 674 92.666015625 683.333984375 104.166015625 683.333984375 c 0
 115.666015625 683.333984375 125 674 125 662.5 c 2
 125 37.5 l 2
 125 -31.458984375 279 -108.333984375 500 -108.333984375 c 0
 721 -108.333984375 875 -31.458984375 875 37.5 c 2
 875 662.5 l 2
 875 674 884.333984375 683.333984375 895.833984375 683.333984375 c 0
EndSplineSet
EndChar

StartChar: lock
Encoding: 16 59407 16
Width: 1000
Flags: W
LayerCount: 2
Fore
SplineSet
725 450 m 2
 700 450 l 1
 700 525 l 2
 700 649 599 750 475 750 c 0
 351 750 250 649 250 525 c 2
 250 450 l 1
 225 450 l 2
 184 450 150 416 150 375 c 2
 150 -25 l 2
 150 -66 184 -100 225 -100 c 2
 725 -100 l 2
 766 -100 800 -66 800 -25 c 2
 800 375 l 2
 800 416 766 450 725 450 c 2
300 525 m 2
 300 622 379 700 475 700 c 0
 571 700 650 622 650 525 c 2
 650 450 l 1
 300 450 l 1
 300 525 l 2
750 -25 m 2
 750 -39 739 -50 725 -50 c 2
 225 -50 l 2
 211 -50 200 -39 200 -25 c 2
 200 375 l 2
 200 389 211 400 225 400 c 2
 725 400 l 2
 739 400 750 389 750 375 c 2
 750 -25 l 2
EndSplineSet
EndChar

StartChar: gear
Encoding: 17 59408 17
Width: 1000
Flags: W
LayerCount: 2
Fore
SplineSet
382 -135 m 0
 380 -135 377 -135 375 -134 c 0
 330 -123 287 -105 247 -81 c 0
 236 -75 231 -60 238 -48 c 0
 246 -33 250 -17 250 0 c 0
 250 55 205 100 150 100 c 0
 133 100 117 96 102 88 c 0
 90 81 76 86 69 97 c 0
 45 137 27 180 16 225 c 0
 12 238 20 251 32 255 c 0
 73 269 100 307 100 350 c 0
 100 393 73 431 32 445 c 0
 20 449 12 462 16 475 c 0
 27 520 45 563 69 603 c 0
 76 615 90 619 102 612 c 0
 117 604 133 600 150 600 c 0
 205 600 250 645 250 700 c 0
 250 717 246 733 238 748 c 0
 231 760 236 775 247 781 c 0
 287 805 330 823 375 834 c 0
 388 838 401 831 405 818 c 0
 419 777 457 750 500 750 c 0
 543 750 581 777 595 818 c 0
 599 831 612 838 625 834 c 0
 670 823 713 805 753 781 c 0
 765 775 769 760 762 748 c 0
 754 733 750 717 750 700 c 0
 750 645 795 600 850 600 c 0
 867 600 883 604 898 612 c 0
 910 619 925 615 931 603 c 0
 955 563 973 520 984 475 c 0
 988 462 981 449 968 445 c 0
 927 431 900 393 900 350 c 0
 900 307 927 269 968 255 c 0
 981 251 988 238 984 225 c 0
 973 180 955 137 931 97 c 0
 925 86 910 81 898 88 c 0
 883 96 867 100 850 100 c 0
 795 100 750 55 750 0 c 0
 750 -17 754 -33 762 -48 c 0
 769 -60 765 -75 753 -81 c 0
 713 -105 670 -123 625 -134 c 0
 612 -138 599 -131 595 -118 c 0
 581 -77 543 -50 500 -50 c 0
 457 -50 419 -77 405 -118 c 0
 402 -129 392 -135 382 -135 c 0
500 0 m 0
 556 0 607 -31 633 -80 c 1
 659 -72 684 -62 708 -49 c 1
 703 -33 700 -17 700 0 c 0
 700 83 767 150 850 150 c 0
 867 150 883 147 899 142 c 1
 912 166 922 191 930 217 c 1
 881 243 850 294 850 350 c 0
 850 406 881 457 930 483 c 1
 922 509 912 534 899 558 c 1
 883 553 867 550 850 550 c 0
 767 550 700 617 700 700 c 0
 700 717 703 733 708 749 c 1
 684 762 659 772 633 780 c 1
 607 731 556 700 500 700 c 0
 444 700 393 731 367 780 c 1
 341 772 316 762 292 749 c 1
 297 733 300 717 300 700 c 0
 300 617 233 550 150 550 c 0
 133 550 117 553 101 558 c 1
 88 534 78 509 70 483 c 1
 119 457 150 406 150 350 c 0
 150 294 119 243 70 217 c 1
 78 191 88 166 101 142 c 1
 117 147 133 150 150 150 c 0
 233 150 300 83 300 0 c 0
 300 -17 297 -33 292 -49 c 1
 316 -62 341 -72 367 -80 c 1
 393 -31 444 0 500 0 c 0
500 200 m 0
 417 200 350 267 350 350 c 0
 350 433 417 500 500 500 c 0
 583 500 650 433 650 350 c 0
 650 267 583 200 500 200 c 0
500 450 m 0
 445 450 400 405 400 350 c 0
 400 295 445 250 500 250 c 0
 555 250 600 295 600 350 c 0
 600 405 555 450 500 450 c 0
EndSplineSet
EndChar

StartChar: trash
Encoding: 18 59409 18
Width: 1000
Flags: W
HStem: -150 50<230.108 254 754 777.892> 700 50<180.108 204 804 827.892> 800 50<430.108 454 554 577.892>
VStem: 129 50<601.531 625 675 698.892> 179 50<-98.8916 -75> 329 50<-49.8024 -25 475 499.802> 379 50<775 798.892> 479 50<-49.8024 -25 475 499.802> 579 50<775 798.892> 629 50<-49.8024 -25 475 499.802> 779 50<-98.8916 -75> 829 50<601.531 625 675 698.892>
LayerCount: 2
Fore
SplineSet
804 750 m 6xe110
 629 750 l 5xe150
 629 775 l 6
 629 816 595 850 554 850 c 6
 454 850 l 6
 413 850 379 816 379 775 c 6
 379 750 l 5
 204 750 l 6
 163 750 129 716 129 675 c 6
 129 625 l 6xf380
 129 592 150 565 179 554 c 5
 179 -75 l 6
 179 -116 213 -150 254 -150 c 6
 754 -150 l 6
 795 -150 829 -116 829 -75 c 6xe920
 829 554 l 5
 858 565 879 592 879 625 c 6
 879 675 l 6
 879 716 845 750 804 750 c 6xe110
429 775 m 6xe380
 429 789 440 800 454 800 c 6
 554 800 l 6
 568 800 579 789 579 775 c 6
 579 750 l 5
 429 750 l 5
 429 775 l 6xe380
754 -100 m 6
 254 -100 l 6
 240 -100 229 -89 229 -75 c 6
 229 550 l 5
 779 550 l 5
 779 -75 l 6xe920
 779 -89 768 -100 754 -100 c 6
829 625 m 6xf110
 829 611 818 600 804 600 c 6
 204 600 l 6
 190 600 179 611 179 625 c 6
 179 675 l 6
 179 689 190 700 204 700 c 6
 804 700 l 6
 818 700 829 689 829 675 c 6
 829 625 l 6xf110
654 500 m 4
 640 500 629 489 629 475 c 6
 629 -25 l 6
 629 -39 640 -50 654 -50 c 4
 668 -50 679 -39 679 -25 c 6
 679 475 l 6xe140
 679 489 668 500 654 500 c 4
504 500 m 4
 490 500 479 489 479 475 c 6
 479 -25 l 6
 479 -39 490 -50 504 -50 c 4
 518 -50 529 -39 529 -25 c 6
 529 475 l 6
 529 489 518 500 504 500 c 4
354 500 m 4
 340 500 329 489 329 475 c 6
 329 -25 l 6
 329 -39 340 -50 354 -50 c 4
 368 -50 379 -39 379 -25 c 6
 379 475 l 6xe5
 379 489 368 500 354 500 c 4
EndSplineSet
EndChar

StartChar: dice
Encoding: 19 59410 19
Width: 1000
Flags: W
HStem: -100 50<147.573 850.427> 50 50<274.653 323.347 674.653 723.347> 150 50<274.653 323.347 674.653 723.347> 250 50<274.653 323.347 674.653 723.347> 350 50<274.653 323.347 674.653 723.347> 450 50<274.653 323.347 674.653 723.347> 550 50<274.653 323.347 674.653 723.347> 700 50<147.573 850.427>
VStem: 74 50<-26.4268 676.427> 224 50<100.653 149.347 300.653 349.347 500.653 549.347> 324 50<100.653 149.347 300.653 349.347 500.653 549.347> 624 50<100.653 149.347 300.653 349.347 500.653 549.347> 724 50<100.653 149.347 300.653 349.347 500.653 549.347> 874 50<-26.4268 676.427>
LayerCount: 2
Fore
SplineSet
299 50 m 4
 258 50 224 84 224 125 c 4
 224 166 258 200 299 200 c 4
 340 200 374 166 374 125 c 4
 374 84 340 50 299 50 c 4
299 150 m 4
 285 150 274 139 274 125 c 4
 274 111 285 100 299 100 c 4
 313 100 324 111 324 125 c 4
 324 139 313 150 299 150 c 4
299 250 m 4
 258 250 224 284 224 325 c 4
 224 366 258 400 299 400 c 4
 340 400 374 366 374 325 c 4
 374 284 340 250 299 250 c 4
299 350 m 4
 285 350 274 339 274 325 c 4
 274 311 285 300 299 300 c 4
 313 300 324 311 324 325 c 4
 324 339 313 350 299 350 c 4
299 450 m 4
 258 450 224 484 224 525 c 4
 224 566 258 600 299 600 c 4
 340 600 374 566 374 525 c 4
 374 484 340 450 299 450 c 4
299 550 m 4
 285 550 274 539 274 525 c 4
 274 511 285 500 299 500 c 4
 313 500 324 511 324 525 c 4
 324 539 313 550 299 550 c 4
699 450 m 4
 658 450 624 484 624 525 c 4
 624 566 658 600 699 600 c 4
 740 600 774 566 774 525 c 4
 774 484 740 450 699 450 c 4
699 550 m 4
 685 550 674 539 674 525 c 4
 674 511 685 500 699 500 c 4
 713 500 724 511 724 525 c 4
 724 539 713 550 699 550 c 4
699 250 m 4
 658 250 624 284 624 325 c 4
 624 366 658 400 699 400 c 4
 740 400 774 366 774 325 c 4
 774 284 740 250 699 250 c 4
699 350 m 4
 685 350 674 339 674 325 c 4
 674 311 685 300 699 300 c 4
 713 300 724 311 724 325 c 4
 724 339 713 350 699 350 c 4
699 50 m 4
 658 50 624 84 624 125 c 4
 624 166 658 200 699 200 c 4
 740 200 774 166 774 125 c 4
 774 84 740 50 699 50 c 4
699 150 m 4
 685 150 674 139 674 125 c 4
 674 111 685 100 699 100 c 4
 713 100 724 111 724 125 c 4
 724 139 713 150 699 150 c 4
799 -100 m 6
 199 -100 l 6
 130 -100 74 -44 74 25 c 6
 74 625 l 6
 74 694 130 750 199 750 c 6
 799 750 l 6
 868 750 924 694 924 625 c 6
 924 25 l 6
 924 -44 868 -100 799 -100 c 6
199 700 m 6
 158 700 124 666 124 625 c 6
 124 25 l 6
 124 -16 158 -50 199 -50 c 6
 799 -50 l 6
 840 -50 874 -16 874 25 c 6
 874 625 l 6
 874 666 840 700 799 700 c 6
 199 700 l 6
EndSplineSet
EndChar

StartChar: heart
Encoding: 20 59411 20
Width: 1000
Flags: W
HStem: -149.871 78.125<78.125 171.874> -40.4961 78.126<249.999 281.249> 68.8779 78.125<359.374 464.475> 513.942 125<663.675 758.194>
VStem: 0 78.125<-71.7461 44.8857> 171.874 78.125<-71.7461 -40.4961> 281.249 187.499<73.1512 142.73> 281.249 78.125<37.6299 68.8779> 648.435 125<529.183 623.702>
LayerCount: 2
Fore
SplineSet
648.434570312 576.442382812 m 0xfc80
 648.434570312 610.959960938 676.416992188 638.942382812 710.934570312 638.942382812 c 0
 745.452148438 638.942382812 773.434570312 610.959960938 773.434570312 576.442382812 c 0
 773.434570312 541.924804688 745.452148438 513.942382812 710.934570312 513.942382812 c 0
 676.416992188 513.942382812 648.434570312 541.924804688 648.434570312 576.442382812 c 0xfc80
989.2109375 525.905273438 m 0
 1011.91210938 468.099609375 998.12890625 402.4296875 954.095703125 358.603515625 c 2
 798.850585938 204.086914062 l 2
 753.791992188 159.241210938 686.637695312 146.079101562 627.766601562 170.569335938 c 0
 599.591796875 182.288085938 572.279296875 196.223632812 546.591796875 211.989257812 c 0
 528.205078125 223.274414062 522.44921875 247.328125 533.734375 265.71484375 c 0
 545.01953125 284.1015625 569.07421875 289.859375 587.458984375 278.57421875 c 0
 609.685546875 264.931640625 633.342773438 252.861328125 657.770507812 242.701171875 c 0
 687.389648438 230.3828125 721.131835938 236.9609375 743.739257812 259.458984375 c 2
 898.984375 413.978515625 l 2
 920.931640625 435.822265625 927.8046875 468.546875 916.494140625 497.350585938 c 0
 898.369140625 543.502929688 865.391601562 609.836914062 811.221679688 663.750976562 c 0
 757.381835938 717.340820312 692.014648438 749.25 646.659179688 766.5859375 c 0
 617.779296875 777.62109375 584.970703125 770.669921875 563.0703125 748.875 c 2
 409.677734375 596.202148438 l 2
 387.015625 573.645507812 380.44921875 539.018554688 393.337890625 510.032226562 c 0
 404.32421875 485.319335938 416.759765625 461.4765625 430.296875 439.1640625 c 0
 439.630859375 423.77734375 437.24609375 404.005859375 424.51953125 391.279296875 c 2
 78.125 44.8857421875 l 1
 78.125 -71.74609375 l 1
 171.874023438 -71.74609375 l 1
 171.874023438 -1.4345703125 l 2
 171.874023438 20.1396484375 189.362304688 37.6279296875 210.936523438 37.6279296875 c 2
 281.249023438 37.6298828125 l 1xfd80
 281.249023438 107.940429688 l 2
 281.249023438 129.514648438 298.737304688 147.002929688 320.311523438 147.002929688 c 2
 429.685546875 147.002929688 l 2
 451.259765625 147.002929688 468.748046875 129.514648438 468.748046875 107.940429688 c 0xfe80
 468.748046875 86.3662109375 451.259765625 68.8779296875 429.685546875 68.8779296875 c 2
 359.374023438 68.8779296875 l 1
 359.374023438 -1.4326171875 l 2xfd80
 359.374023438 -23.0068359375 341.885742188 -40.494140625 320.311523438 -40.494140625 c 2
 249.999023438 -40.49609375 l 1
 249.999023438 -110.80859375 l 2
 249.999023438 -132.3828125 232.510742188 -149.87109375 210.936523438 -149.87109375 c 2
 39.0625 -149.87109375 l 2
 17.48828125 -149.87109375 0 -132.3828125 0 -110.80859375 c 2
 0 61.0654296875 l 2
 0 71.4267578125 4.115234375 81.3623046875 11.44140625 88.6884765625 c 2
 348.110351562 425.35546875 l 1
 338.754882812 442.46875 329.999023438 460.181640625 321.948242188 478.290039062 c 0
 295.985351562 536.678710938 309.090820312 606.315429688 354.561523438 651.571289062 c 2
 507.955078125 804.24609375 l 2
 551.607421875 847.693359375 617 861.556640625 674.545898438 839.5625 c 0
 726.963867188 819.52734375 802.786132812 782.37109375 866.331054688 719.122070312 c 0
 930.1015625 655.653320312 968.3515625 579.018554688 989.2109375 525.905273438 c 0
EndSplineSet
EndChar

StartChar: star
Encoding: 21 59412 21
Width: 1000
Flags: W
HStem: 0 21G<776 780.5>
LayerCount: 2
Fore
SplineSet
778 0 m 4
 774 0 770 1 766 3 c 6
 503 147 l 5
 240 3 l 6
 232 -2 221 -1 214 5 c 4
 206 10 202 20 203 29 c 6
 251 316 l 5
 60 507 l 6
 54 514 51 524 54 533 c 4
 57 542 65 548 74 550 c 6
 361 598 l 5
 481 836 l 6
 485 845 494 850 503 850 c 4
 512 850 521 845 525 836 c 6
 645 598 l 5
 932 550 l 6
 941 548 949 542 952 533 c 4
 955 524 952 514 946 507 c 6
 755 316 l 5
 803 29 l 6
 804 20 800 10 793 5 c 4
 788 2 783 0 778 0 c 4
503 200 m 4
 507 200 511 199 515 197 c 6
 745 71 l 5
 703 321 l 6
 702 329 705 337 710 343 c 6
 876 508 l 5
 624 550 l 6
 616 552 609 557 606 564 c 6
 503 769 l 5
 400 564 l 6
 397 557 390 552 382 550 c 6
 130 508 l 5
 296 343 l 6
 301 337 304 329 303 321 c 6
 261 71 l 5
 491 197 l 6
 495 199 499 200 503 200 c 4
EndSplineSet
EndChar

StartChar: star-half
Encoding: 22 59413 22
Width: 1000
Flags: W
HStem: 0 21G<222.5 227 773 777.5> 542 49<642 699.9>
LayerCount: 2
Fore
SplineSet
775 0 m 0
 771 0 767 1 763 3 c 2
 613 85 l 2
 601 91 596 107 603 119 c 0
 610 131 625 135 637 129 c 2
 742 71 l 1
 734 121 l 2
 731 135 741 147 754 150 c 0
 768 152 781 143 783 129 c 2
 800 29 l 2
 801 20 797 10 790 5 c 0
 785 2 780 0 775 0 c 0
742 200 m 0
 730 200 719 209 717 221 c 2
 700 321 l 2
 699 329 702 337 707 343 c 2
 757 393 l 2
 767 402 783 402 793 393 c 0
 802 383 802 367 793 357 c 2
 752 316 l 1
 766 229 l 2
 769 216 759 203 746 200 c 0
 744 200 743 200 742 200 c 0
875 450 m 0
 869 450 862 452 857 457 c 0
 848 467 848 483 857 493 c 2
 873 508 l 1
 771 525 l 2
 757 528 748 541 750 554 c 0
 752 567 766 577 779 575 c 2
 929 550 l 2
 938 548 946 542 949 533 c 0
 952 524 949 514 943 507 c 2
 893 457 l 2
 888 452 881 450 875 450 c 0
675 542 m 0
 674 542 672 542 671 542 c 2
 621 550 l 2
 613 552 606 557 603 564 c 2
 553 664 l 2
 547 676 552 691 564 697 c 0
 576 704 591 699 597 686 c 2
 642 598 l 1
 679 591 l 2
 693 589 702 576 700 563 c 0
 698 550 687 542 675 542 c 0
225 0 m 0
 220 0 215 2 211 5 c 0
 203 10 199 20 200 29 c 2
 248 316 l 1
 57 507 l 2
 51 514 48 524 51 533 c 0
 54 542 62 548 71 550 c 2
 358 598 l 1
 478 836 l 2
 482 845 491 850 500 850 c 1
 510 850 518 845 522 836 c 2
 547 786 l 2
 554 774 549 759 536 753 c 0
 524 747 509 752 503 764 c 2
 500 769 l 1
 397 564 l 2
 394 557 387 552 379 550 c 2
 127 508 l 1
 293 343 l 2
 298 337 301 329 300 321 c 2
 258 71 l 1
 488 197 l 2
 496 201 505 201 512 197 c 2
 537 183 l 2
 549 177 554 162 547 149 c 0
 540 137 525 133 513 139 c 2
 500 147 l 1
 237 3 l 2
 233 1 229 0 225 0 c 0
EndSplineSet
EndChar

StartChar: star-empty
Encoding: 23 59414 23
Width: 1000
Flags: W
HStem: 0 21G<222.5 227 773 777.5> 542 49<642 699.9>
LayerCount: 2
Fore
SplineSet
275 533 m 4
 263 533 252 542 250 554 c 4
 248 568 257 581 271 583 c 6
 358 598 l 5
 378 636 l 6
 384 649 399 654 411 647 c 4
 424 641 429 626 422 614 c 6
 397 564 l 6
 394 557 387 552 379 550 c 6
 279 534 l 6
 278 533 276 533 275 533 c 4
125 450 m 4
 119 450 112 452 107 457 c 6
 57 507 l 6
 51 514 48 524 51 533 c 4
 54 542 62 548 71 550 c 6
 171 566 l 6
 185 569 197 559 200 546 c 4
 202 532 193 519 179 517 c 6
 127 508 l 5
 143 493 l 6
 152 483 152 467 143 457 c 4
 138 452 131 450 125 450 c 4
742 200 m 4
 730 200 719 209 717 221 c 6
 700 321 l 6
 699 329 702 337 707 343 c 6
 757 393 l 6
 767 402 783 402 793 393 c 4
 802 383 802 367 793 357 c 6
 752 316 l 5
 766 229 l 6
 769 216 759 203 746 200 c 4
 744 200 743 200 742 200 c 4
775 0 m 4
 771 0 767 1 763 3 c 6
 613 85 l 6
 601 91 596 107 603 119 c 4
 610 131 625 135 637 129 c 6
 742 71 l 5
 734 121 l 6
 731 135 741 147 754 150 c 4
 768 152 781 143 783 129 c 6
 800 29 l 6
 801 20 797 10 790 5 c 4
 785 2 780 0 775 0 c 4
267 250 m 4
 265 250 264 250 263 250 c 4
 249 253 240 266 242 279 c 6
 248 316 l 5
 207 357 l 6
 198 367 198 383 207 393 c 4
 216 403 233 402 243 393 c 6
 293 343 l 6
 298 337 301 329 300 321 c 6
 291 271 l 6
 289 259 279 250 267 250 c 4
225 0 m 4
 220 0 215 2 211 5 c 4
 203 10 199 20 200 29 c 6
 225 179 l 6
 228 193 241 202 254 200 c 4
 268 197 277 185 275 171 c 6
 258 71 l 5
 313 102 l 6
 325 108 340 104 347 91 c 4
 354 79 349 64 337 58 c 6
 237 3 l 6
 233 1 229 0 225 0 c 4
425 109 m 4
 416 109 408 114 403 122 c 4
 396 134 401 149 413 156 c 6
 488 197 l 6
 496 201 505 201 512 197 c 6
 537 183 l 6
 549 177 554 162 547 149 c 4
 540 137 525 133 513 139 c 6
 500 147 l 5
 437 112 l 6
 433 110 429 109 425 109 c 4
875 450 m 4
 869 450 862 452 857 457 c 4
 848 467 848 483 857 493 c 6
 873 508 l 5
 771 525 l 6
 757 528 748 541 750 554 c 4
 752 567 766 577 779 575 c 6
 929 550 l 6
 938 548 946 542 949 533 c 4
 952 524 949 514 943 507 c 6
 893 457 l 6
 888 452 881 450 875 450 c 4
675 542 m 4
 674 542 672 542 671 542 c 6
 621 550 l 6
 613 552 606 557 603 564 c 6
 553 664 l 6
 547 676 552 691 564 697 c 4
 576 704 591 699 597 686 c 6
 642 598 l 5
 679 591 l 6
 693 589 702 576 700 563 c 4
 698 550 687 542 675 542 c 4
450 700 m 4
 446 700 442 701 439 703 c 4
 427 709 422 724 428 736 c 6
 478 836 l 6
 482 845 491 850 500 850 c 5
 510 850 518 845 522 836 c 6
 547 786 l 6
 554 774 549 759 536 753 c 4
 524 747 509 752 503 764 c 6
 500 769 l 5
 472 714 l 6
 468 705 459 700 450 700 c 4
EndSplineSet
EndChar

StartChar: flag
Encoding: 24 59415 24
Width: 1000
Flags: W
LayerCount: 2
Fore
SplineSet
75 -100 m 0
 61 -100 50 -89 50 -75 c 2
 50 675 l 2
 50 689 61 700 75 700 c 0
 89 700 100 689 100 675 c 2
 100 -75 l 2
 100 -89 89 -100 75 -100 c 0
175 350 m 0
 170 350 165 352 160 355 c 0
 149 363 147 379 155 390 c 0
 158 395 239 500 350 500 c 0
 435 500 491 470 540 444 c 0
 584 420 622 400 675 400 c 0
 785 400 863 504 908 586 c 1
 873 566 828 550 775 550 c 0
 665 550 608 607 557 657 c 0
 508 707 465 750 375 750 c 0
 264 750 196 661 195 660 c 0
 187 649 171 647 160 655 c 0
 149 663 147 679 155 690 c 0
 158 695 239 800 375 800 c 0
 485 800 542 743 593 693 c 0
 642 643 685 600 775 600 c 0
 886 600 954 689 955 690 c 0
 962 700 976 703 987 697 c 0
 998 692 1003 679 999 667 c 0
 998 664 972 588 921 511 c 0
 890 465 857 429 821 402 c 0
 775 368 726 350 675 350 c 0
 609 350 562 375 517 400 c 0
 468 426 422 450 350 450 c 0
 264 450 196 361 195 360 c 0
 190 354 183 350 175 350 c 0
EndSplineSet
EndChar

StartChar: message
Encoding: 25 59416 25
Width: 1000
Flags: W
HStem: 0 50<78.1084 102 902 925.892>
VStem: 27 50<51.1084 75> 927 50<51.1084 75>
LayerCount: 2
Fore
SplineSet
902 600 m 6
 102 600 l 6
 61 600 27 566 27 525 c 6
 27 75 l 6
 27 34 61 0 102 0 c 6
 902 0 l 6
 943 0 977 34 977 75 c 6
 977 525 l 6
 977 566 943 600 902 600 c 6
902 550 m 6
 904 550 905 550 906 550 c 6
 530 299 l 6
 515 289 489 289 474 299 c 6
 98 550 l 6
 99 550 101 550 102 550 c 6
 902 550 l 6
902 50 m 6
 102 50 l 6
 88 50 77 61 77 75 c 6
 77 503 l 5
 447 257 l 6
 462 247 482 241 502 241 c 4
 522 241 542 247 558 257 c 6
 927 503 l 5
 927 75 l 6
 927 61 916 50 902 50 c 6
EndSplineSet
EndChar

StartChar: clip
Encoding: 26 59417 26
Width: 1000
Flags: W
HStem: -150 50<436.24 601.76> 0 50<467.495 570.505> 800 50<400.142 537.858>
VStem: 294 50<-7.393 743.266> 394 50<73.5732 449.802> 594 50<73.5732 743.266> 694 50<-7.393 449.802>
LayerCount: 2
Fore
SplineSet
519 -150 m 4
 395 -150 294 -49 294 75 c 6
 294 675 l 6
 294 772 373 850 469 850 c 4
 565 850 644 772 644 675 c 6
 644 125 l 6
 644 56 588 0 519 0 c 4
 450 0 394 56 394 125 c 6
 394 425 l 6
 394 439 405 450 419 450 c 4
 433 450 444 439 444 425 c 6
 444 125 l 6
 444 84 478 50 519 50 c 4
 560 50 594 84 594 125 c 6
 594 675 l 6
 594 744 538 800 469 800 c 4
 400 800 344 744 344 675 c 6
 344 75 l 6
 344 -22 423 -100 519 -100 c 4
 615 -100 694 -22 694 75 c 6
 694 425 l 6
 694 439 705 450 719 450 c 4
 733 450 744 439 744 425 c 6
 744 75 l 6
 744 -49 643 -150 519 -150 c 4
EndSplineSet
EndChar

StartChar: inbox
Encoding: 27 59418 27
Width: 1000
Flags: W
HStem: 0 50<51.1084 75 925 948.892> 150 50<438.28 561.72> 300 50<64.1414 75 925 936.466> 700 50<209.952 250 750 790.048>
VStem: 0 50<51.1084 75 275 298.983> 350 50<238.358 300> 600 50<238.358 300> 950 50<51.1084 75 275 298.983>
LayerCount: 2
Fore
SplineSet
978 381 m 6
 843 689 l 6
 828 723 787 750 750 750 c 6
 250 750 l 6
 213 750 172 723 157 689 c 6
 22 381 l 6
 10 353 0 306 0 275 c 6
 0 75 l 6
 0 34 34 0 75 0 c 6
 925 0 l 6
 966 0 1000 34 1000 75 c 6
 1000 275 l 6
 1000 306 990 353 978 381 c 6
203 669 m 6
 210 685 232 700 250 700 c 6
 750 700 l 6
 768 700 790 685 797 669 c 6
 932 361 l 6
 934 357 935 353 937 349 c 5
 933 350 929 350 925 350 c 6
 625 350 l 6
 611 350 600 339 600 325 c 6
 600 300 l 6
 600 245 555 200 500 200 c 4
 445 200 400 245 400 300 c 6
 400 325 l 6
 400 339 389 350 375 350 c 6
 75 350 l 6
 71 350 67 350 64 349 c 5
 65 353 66 357 68 361 c 6
 203 669 l 6
950 75 m 6
 950 61 939 50 925 50 c 6
 75 50 l 6
 61 50 50 61 50 75 c 6
 50 275 l 6
 50 289 61 300 75 300 c 6
 350 300 l 5
 350 217 417 150 500 150 c 4
 583 150 650 217 650 300 c 5
 925 300 l 6
 939 300 950 289 950 275 c 6
 950 75 l 6
EndSplineSet
EndChar

StartChar: eye
Encoding: 28 59419 28
Width: 1000
Flags: W
LayerCount: 2
Fore
SplineSet
994 342 m 0
 991 344 935 407 846 470 c 0
 794 508 741 538 689 559 c 0
 624 586 560 600 500 600 c 0
 440 600 376 586 311 559 c 0
 259 538 207 508 154 470 c 0
 66 407 9 344 6 342 c 0
 -2 332 -2 318 6 308 c 0
 9 306 66 243 154 180 c 0
 207 142 259 112 311 91 c 0
 376 64 440 50 500 50 c 0
 560 50 624 64 689 91 c 0
 741 112 793 142 846 180 c 0
 935 243 991 306 994 308 c 0
 1002 318 1002 332 994 342 c 0
629 528 m 1
 674 490 700 434 700 375 c 0
 700 265 610 175 500 175 c 0
 390 175 300 265 300 375 c 0
 300 434 326 490 371 528 c 1
 412 542 456 550 500 550 c 0
 544 550 588 542 629 528 c 1
816 220 m 0
 739 165 622 100 500 100 c 0
 378 100 261 165 184 220 c 0
 126 261 82 303 60 325 c 1
 82 347 126 389 184 430 c 0
 211 449 242 469 277 488 c 1
 259 453 250 415 250 375 c 0
 250 237 362 125 500 125 c 0
 638 125 750 237 750 375 c 0
 750 415 741 453 723 488 c 1
 758 469 789 449 816 430 c 0
 874 389 918 347 940 325 c 1
 918 303 874 261 816 220 c 0
EndSplineSet
EndChar

StartChar: print
Encoding: 29 59420 29
Width: 1000
Flags: W
LayerCount: 2
Fore
SplineSet
925 650 m 2
 850 650 l 1
 850 775 l 2
 850 816 816 850 775 850 c 2
 225 850 l 2
 184 850 150 816 150 775 c 2
 150 650 l 1
 75 650 l 2
 34 650 0 616 0 575 c 2
 0 125 l 2
 0 84 34 50 75 50 c 2
 150 50 l 1
 150 -75 l 2
 150 -116 184 -150 225 -150 c 2
 775 -150 l 2
 816 -150 850 -116 850 -75 c 2
 850 50 l 1
 925 50 l 2
 966 50 1000 84 1000 125 c 2
 1000 575 l 2
 1000 616 966 650 925 650 c 2
200 775 m 2
 200 789 211 800 225 800 c 2
 775 800 l 2
 789 800 800 789 800 775 c 2
 800 650 l 1
 200 650 l 1
 200 775 l 2
775 -100 m 2
 225 -100 l 2
 211 -100 200 -89 200 -75 c 2
 200 250 l 1
 800 250 l 1
 800 -75 l 2
 800 -89 789 -100 775 -100 c 2
950 125 m 2
 950 111 939 100 925 100 c 2
 850 100 l 1
 850 250 l 1
 875 250 l 2
 889 250 900 261 900 275 c 0
 900 289 889 300 875 300 c 2
 125 300 l 2
 111 300 100 289 100 275 c 0
 100 261 111 250 125 250 c 2
 150 250 l 1
 150 100 l 1
 75 100 l 2
 61 100 50 111 50 125 c 2
 50 575 l 2
 50 589 61 600 75 600 c 2
 925 600 l 2
 939 600 950 589 950 575 c 2
 950 125 l 2
725 150 m 2
 275 150 l 2
 261 150 250 161 250 175 c 0
 250 189 261 200 275 200 c 2
 725 200 l 2
 739 200 750 189 750 175 c 0
 750 161 739 150 725 150 c 2
725 50 m 2
 275 50 l 2
 261 50 250 61 250 75 c 0
 250 89 261 100 275 100 c 2
 725 100 l 2
 739 100 750 89 750 75 c 0
 750 61 739 50 725 50 c 2
725 -50 m 2
 275 -50 l 2
 261 -50 250 -39 250 -25 c 0
 250 -11 261 0 275 0 c 2
 725 0 l 2
 739 0 750 -11 750 -25 c 0
 750 -39 739 -50 725 -50 c 2
825 400 m 0
 784 400 750 434 750 475 c 0
 750 516 784 550 825 550 c 0
 866 550 900 516 900 475 c 0
 900 434 866 400 825 400 c 0
825 500 m 0
 811 500 800 489 800 475 c 0
 800 461 811 450 825 450 c 0
 839 450 850 461 850 475 c 0
 850 489 839 500 825 500 c 0
EndSplineSet
EndChar

StartChar: file
Encoding: 30 59421 30
Width: 1000
Flags: W
HStem: -127 50<151.108 175 825 848.892> 523 50<651.108 675> 773 50<151.108 175>
VStem: 100 50<-75.8916 -52 748 771.892> 600 50<574.108 598> 850 50<-75.8916 -52>
LayerCount: 2
Fore
SplineSet
893 591 m 6
 668 816 l 6
 663 820 657 823 650 823 c 6
 175 823 l 6
 134 823 100 789 100 748 c 6
 100 -52 l 6
 100 -93 134 -127 175 -127 c 6
 825 -127 l 6
 866 -127 900 -93 900 -52 c 6
 900 573 l 6
 900 580 897 586 893 591 c 6
840 573 m 5
 675 573 l 6
 661 573 650 584 650 598 c 6
 650 763 l 5
 840 573 l 5
850 -52 m 6
 850 -66 839 -77 825 -77 c 6
 175 -77 l 6
 161 -77 150 -66 150 -52 c 6
 150 748 l 6
 150 762 161 773 175 773 c 6
 600 773 l 5
 600 598 l 6
 600 557 634 523 675 523 c 6
 850 523 l 5
 850 -52 l 6
EndSplineSet
EndChar

StartChar: file-add
Encoding: 31 59422 31
Width: 1000
Flags: W
HStem: -125 50<151.108 175 825 848.892> 175 50<250.198 275 575 599.802> 525 50<651.108 675> 775 50<151.108 175>
VStem: 100 50<-73.8916 -50 750 773.892> 400 50<25.1976 50 350 374.802> 600 50<576.108 600> 850 50<-73.8916 -50>
LayerCount: 2
Fore
SplineSet
893 593 m 6
 668 818 l 6
 663 822 657 825 650 825 c 6
 175 825 l 6
 134 825 100 791 100 750 c 6
 100 -50 l 6
 100 -91 134 -125 175 -125 c 6
 825 -125 l 6
 866 -125 900 -91 900 -50 c 6
 900 575 l 6
 900 582 897 588 893 593 c 6
840 575 m 5
 675 575 l 6
 661 575 650 586 650 600 c 6
 650 765 l 5
 840 575 l 5
825 -75 m 6
 175 -75 l 6
 161 -75 150 -64 150 -50 c 6
 150 750 l 6
 150 764 161 775 175 775 c 6
 600 775 l 5
 600 600 l 6
 600 559 634 525 675 525 c 6
 850 525 l 5
 850 -50 l 6
 850 -64 839 -75 825 -75 c 6
575 225 m 6
 450 225 l 5
 450 350 l 6
 450 364 439 375 425 375 c 4
 411 375 400 364 400 350 c 6
 400 225 l 5
 275 225 l 6
 261 225 250 214 250 200 c 4
 250 186 261 175 275 175 c 6
 400 175 l 5
 400 50 l 6
 400 36 411 25 425 25 c 4
 439 25 450 36 450 50 c 6
 450 175 l 5
 575 175 l 6
 589 175 600 186 600 200 c 4
 600 214 589 225 575 225 c 6
EndSplineSet
EndChar

StartChar: enter
Encoding: 32 59423 32
Width: 1000
Flags: W
HStem: 42 50<401.108 425> 392 50<0.197601 25> 742 50<401.108 425>
VStem: 350 50<93.1084 117 267 291.802 542.198 567 717 740.892> 550 50<-41.0547 -33 567 607.048> 900 50<76.952 117 717 726.468>
CounterMasks: 1 e0
LayerCount: 2
Fore
SplineSet
875 792 m 6
 425 792 l 6
 384 792 350 758 350 717 c 6
 350 567 l 6
 350 553 361 542 375 542 c 4
 389 542 400 553 400 567 c 6
 400 717 l 6
 400 731 411 742 425 742 c 6
 803 742 l 5
 611 660 l 6
 577 645 550 604 550 567 c 6
 550 92 l 5
 425 92 l 6
 411 92 400 103 400 117 c 6
 400 267 l 6
 400 281 389 292 375 292 c 4
 361 292 350 281 350 267 c 6
 350 117 l 6
 350 76 384 42 425 42 c 6
 550 42 l 5
 550 -33 l 6
 550 -55 559 -73 575 -83 c 4
 583 -89 594 -92 604 -92 c 4
 613 -92 622 -90 631 -86 c 6
 889 24 l 6
 923 39 950 80 950 117 c 6
 950 717 l 6
 950 758 916 792 875 792 c 6
900 117 m 6
 900 100 885 77 869 70 c 6
 611 -40 l 6
 606 -42 603 -42 602 -42 c 4
 601 -41 600 -38 600 -33 c 6
 600 567 l 6
 600 585 615 607 631 614 c 6
 898 728 l 6
 899 725 900 721 900 717 c 6
 900 117 l 6
418 435 m 6
 268 585 l 6
 258 594 242 594 232 585 c 4
 222 576 223 559 232 549 c 6
 340 442 l 5
 25 442 l 6
 11 442 0 431 0 417 c 4
 0 403 11 392 25 392 c 6
 340 392 l 5
 232 285 l 6
 223 275 223 259 232 249 c 4
 237 244 244 242 250 242 c 4
 256 242 263 244 268 249 c 6
 418 399 l 6
 427 409 427 425 418 435 c 6
EndSplineSet
EndChar

StartChar: exit
Encoding: 33 59424 33
Width: 1000
Flags: W
HStem: 27 50<525 548.892> 377 50<500.198 525> 727 50<525 548.892>
VStem: 0 50<61.952 102 702 711.468> 350 50<-56.0547 -48 552 592.048> 550 50<78.1084 102 302 326.802 477.198 502 702 725.892>
CounterMasks: 1 e0
LayerCount: 2
Fore
SplineSet
575 477 m 4
 589 477 600 488 600 502 c 6
 600 702 l 6
 600 743 566 777 525 777 c 6
 75 777 l 6
 34 777 0 743 0 702 c 6
 0 102 l 6
 0 65 27 24 61 9 c 6
 319 -101 l 6
 328 -105 337 -107 346 -107 c 4
 357 -107 367 -104 375 -98 c 4
 391 -88 400 -70 400 -48 c 6
 400 27 l 5
 525 27 l 6
 566 27 600 61 600 102 c 6
 600 302 l 6
 600 316 589 327 575 327 c 4
 561 327 550 316 550 302 c 6
 550 102 l 6
 550 88 539 77 525 77 c 6
 400 77 l 5
 400 552 l 6
 400 589 373 630 339 645 c 6
 147 727 l 5
 525 727 l 6
 539 727 550 716 550 702 c 6
 550 502 l 6
 550 488 561 477 575 477 c 4
319 599 m 6
 335 592 350 570 350 552 c 6
 350 -48 l 6
 350 -53 349 -56 348 -57 c 4
 347 -57 344 -57 339 -55 c 6
 81 55 l 6
 65 62 50 85 50 102 c 6
 50 702 l 6
 50 706 51 710 53 713 c 6
 319 599 l 6
918 420 m 6
 768 570 l 6
 758 579 742 579 732 570 c 4
 723 560 723 544 732 534 c 6
 840 427 l 5
 525 427 l 6
 511 427 500 416 500 402 c 4
 500 388 511 377 525 377 c 6
 840 377 l 5
 732 270 l 6
 723 260 723 244 732 234 c 4
 737 229 744 227 750 227 c 4
 756 227 763 229 768 234 c 6
 918 384 l 6
 927 394 927 410 918 420 c 6
EndSplineSet
EndChar

StartChar: graduation-hat
Encoding: 34 59425 34
Width: 1000
Flags: W
LayerCount: 2
Fore
SplineSet
933 499 m 6
 483 649 l 6
 478 650 472 650 467 649 c 6
 17 499 l 6
 7 495 0 486 0 475 c 4
 0 464 7 455 17 451 c 6
 150 407 l 5
 150 275 l 6
 150 268 153 262 157 257 c 4
 162 253 267 150 475 150 c 4
 551 150 621 164 685 191 c 4
 698 196 703 211 698 223 c 4
 693 236 678 242 665 237 c 4
 608 212 544 200 475 200 c 4
 378 200 306 225 263 246 c 4
 232 262 210 278 200 286 c 5
 200 390 l 5
 467 301 l 6
 470 300 472 300 475 300 c 4
 478 300 480 300 483 301 c 6
 750 390 l 5
 750 346 l 5
 721 335 700 308 700 275 c 4
 700 245 718 218 745 207 c 5
 701 31 l 6
 699 24 701 16 705 10 c 4
 709 4 717 0 725 0 c 6
 825 0 l 6
 833 0 840 4 845 10 c 4
 850 16 851 24 849 31 c 6
 805 207 l 5
 832 218 850 245 850 275 c 4
 850 308 829 335 800 346 c 5
 800 407 l 5
 933 451 l 6
 943 455 950 464 950 475 c 4
 950 486 943 495 933 499 c 6
775 300 m 4
 789 300 800 289 800 275 c 4
 800 261 789 250 775 250 c 4
 761 250 750 261 750 275 c 4
 750 289 761 300 775 300 c 4
757 50 m 5
 775 122 l 5
 793 50 l 5
 757 50 l 5
773 451 m 5
 479 500 l 6
 466 502 453 493 450 479 c 4
 448 466 457 453 471 450 c 6
 672 417 l 5
 475 351 l 5
 104 475 l 5
 475 599 l 5
 846 475 l 5
 773 451 l 5
EndSplineSet
EndChar

StartChar: license
Encoding: 35 59426 35
Width: 1000
Flags: W
LayerCount: 2
Fore
SplineSet
925 -50 m 6
 75 -50 l 6
 34 -50 0 -16 0 25 c 6
 0 675 l 6
 0 716 34 750 75 750 c 6
 925 750 l 6
 966 750 1000 716 1000 675 c 6
 1000 25 l 6
 1000 -16 966 -50 925 -50 c 6
75 700 m 6
 61 700 50 689 50 675 c 6
 50 25 l 6
 50 11 61 0 75 0 c 6
 925 0 l 6
 939 0 950 11 950 25 c 6
 950 675 l 6
 950 689 939 700 925 700 c 6
 75 700 l 6
475 550 m 6
 175 550 l 6
 161 550 150 561 150 575 c 4
 150 589 161 600 175 600 c 6
 475 600 l 6
 489 600 500 589 500 575 c 4
 500 561 489 550 475 550 c 6
475 400 m 6
 175 400 l 6
 161 400 150 411 150 425 c 4
 150 439 161 450 175 450 c 6
 475 450 l 6
 489 450 500 439 500 425 c 4
 500 411 489 400 475 400 c 6
475 300 m 6
 175 300 l 6
 161 300 150 311 150 325 c 4
 150 339 161 350 175 350 c 6
 475 350 l 6
 489 350 500 339 500 325 c 4
 500 311 489 300 475 300 c 6
475 200 m 6
 175 200 l 6
 161 200 150 211 150 225 c 4
 150 239 161 250 175 250 c 6
 475 250 l 6
 489 250 500 239 500 225 c 4
 500 211 489 200 475 200 c 6
425 100 m 6
 175 100 l 6
 161 100 150 111 150 125 c 4
 150 139 161 150 175 150 c 6
 425 150 l 6
 439 150 450 139 450 125 c 4
 450 111 439 100 425 100 c 6
897 523 m 5
 857 552 l 5
 841 600 l 5
 791 600 l 5
 750 630 l 5
 709 600 l 5
 659 600 l 5
 644 552 l 5
 603 523 l 5
 618 475 l 5
 603 427 l 5
 644 398 l 5
 650 377 l 5
 650 377 650 376 650 375 c 6
 650 125 l 6
 650 115 656 106 665 102 c 4
 675 98 686 100 693 107 c 6
 750 165 l 5
 807 107 l 6
 812 103 819 100 825 100 c 4
 828 100 832 101 835 102 c 4
 844 106 850 115 850 125 c 6
 850 375 l 6
 850 376 850 377 850 377 c 5
 857 398 l 5
 897 427 l 5
 882 475 l 5
 897 523 l 5
662 504 m 5
 686 522 l 5
 695 550 l 5
 726 550 l 5
 750 568 l 5
 774 550 l 5
 805 550 l 5
 814 522 l 5
 838 504 l 5
 829 475 l 5
 838 446 l 5
 814 429 l 5
 805 400 l 5
 774 400 l 5
 750 382 l 5
 726 400 l 5
 695 400 l 5
 686 429 l 5
 662 446 l 5
 671 475 l 5
 662 504 l 5
768 218 m 6
 758 227 742 227 732 218 c 6
 700 185 l 5
 700 350 l 5
 709 350 l 5
 750 320 l 5
 791 350 l 5
 800 350 l 5
 800 185 l 5
 768 218 l 6
EndSplineSet
EndChar

StartChar: music-note
Encoding: 36 59427 36
Width: 1000
Flags: W
LayerCount: 2
Fore
SplineSet
991 794 m 0
 985 799 978 801 971 800 c 2
 421 700 l 2
 409 697 400 687 400 675 c 2
 400 105 l 1
 393 110 386 114 378 118 c 0
 336 139 282 150 225 150 c 0
 168 150 114 139 72 118 c 0
 26 95 0 62 0 25 c 0
 0 -12 26 -45 72 -68 c 0
 114 -89 168 -100 225 -100 c 0
 282 -100 336 -89 378 -68 c 0
 424 -45 450 -12 450 25 c 2
 450 529 l 1
 950 622 l 1
 950 205 l 1
 943 210 936 214 928 218 c 0
 886 239 832 250 775 250 c 0
 718 250 664 239 622 218 c 0
 576 195 550 162 550 125 c 0
 550 88 576 55 622 32 c 0
 664 11 718 0 775 0 c 0
 832 0 886 11 928 32 c 0
 974 55 1000 88 1000 125 c 2
 1000 775 l 2
 1000 782 997 789 991 794 c 0
225 -50 m 0
 125 -50 50 -10 50 25 c 0
 50 60 125 100 225 100 c 0
 325 100 400 60 400 25 c 0
 400 -10 325 -50 225 -50 c 0
450 580 m 1
 450 654 l 1
 950 745 l 1
 950 672 l 1
 450 580 l 1
775 50 m 0
 675 50 600 90 600 125 c 0
 600 160 675 200 775 200 c 0
 875 200 950 160 950 125 c 0
 950 90 875 50 775 50 c 0
EndSplineSet
EndChar

StartChar: film-play
Encoding: 37 59428 37
Width: 1000
Flags: W
VStem: 350 50<225 575>
LayerCount: 2
Fore
SplineSet
375 150 m 4
 371 150 367 151 364 153 c 4
 355 157 350 166 350 175 c 6
 350 625 l 6
 350 635 355 643 364 647 c 4
 372 652 382 651 390 645 c 6
 690 420 l 6
 696 415 700 408 700 400 c 4
 700 392 696 385 690 380 c 6
 390 155 l 6
 386 152 380 150 375 150 c 4
400 575 m 5
 400 225 l 5
 633 400 l 5
 400 575 l 5
975 800 m 6
 25 800 l 6
 11 800 0 789 0 775 c 6
 0 25 l 6
 0 11 11 0 25 0 c 6
 975 0 l 6
 989 0 1000 11 1000 25 c 6
 1000 775 l 6
 1000 789 989 800 975 800 c 6
150 350 m 5
 50 350 l 5
 50 450 l 5
 150 450 l 5
 150 350 l 5
150 500 m 5
 50 500 l 5
 50 600 l 5
 150 600 l 5
 150 500 l 5
50 300 m 5
 150 300 l 5
 150 200 l 5
 50 200 l 5
 50 300 l 5
200 750 m 5
 800 750 l 5
 800 50 l 5
 200 50 l 5
 200 750 l 5
850 450 m 5
 950 450 l 5
 950 350 l 5
 850 350 l 5
 850 450 l 5
850 500 m 5
 850 600 l 5
 950 600 l 5
 950 500 l 5
 850 500 l 5
850 300 m 5
 950 300 l 5
 950 200 l 5
 850 200 l 5
 850 300 l 5
950 650 m 5
 850 650 l 5
 850 750 l 5
 950 750 l 5
 950 650 l 5
150 750 m 5
 150 650 l 5
 50 650 l 5
 50 750 l 5
 150 750 l 5
50 150 m 5
 150 150 l 5
 150 50 l 5
 50 50 l 5
 50 150 l 5
850 50 m 5
 850 150 l 5
 950 150 l 5
 950 50 l 5
 850 50 l 5
EndSplineSet
EndChar

StartChar: video-cam
Encoding: 38 59429 38
Width: 1000
Flags: W
LayerCount: 2
Fore
SplineSet
957 -3 m 5
 957 -3 957 -3 957 -3 c 5
 944 -3 932 2 920 12 c 6
 748 149 l 6
 721 171 700 215 700 250 c 6
 700 400 l 6
 700 435 721 479 748 501 c 6
 920 638 l 6
 932 648 944 653 957 653 c 4
 978 653 1000 636 1000 600 c 6
 1000 50 l 6
 1000 36 997 24 991 15 c 4
 983 4 970 -3 957 -3 c 5
950 598 m 5
 780 462 l 6
 764 449 750 420 750 400 c 6
 750 250 l 6
 750 230 764 201 780 188 c 6
 950 52 l 5
 950 598 l 5
575 0 m 6
 75 0 l 6
 34 0 0 34 0 75 c 6
 0 575 l 6
 0 616 34 650 75 650 c 6
 575 650 l 6
 616 650 650 616 650 575 c 6
 650 75 l 6
 650 34 616 0 575 0 c 6
75 600 m 6
 61 600 50 589 50 575 c 6
 50 75 l 6
 50 61 61 50 75 50 c 6
 575 50 l 6
 589 50 600 61 600 75 c 6
 600 575 l 6
 600 589 589 600 575 600 c 6
 75 600 l 6
EndSplineSet
EndChar

StartChar: cam
Encoding: 39 59430 39
Width: 1000
Flags: W
HStem: 0 50<76.1084 923.892> 150 50<417.24 582.76> 550 50<417.24 582.982> 600 50<76.1084 235.417 764.583 923.892> 700 50<314.583 685.417>
VStem: 25 50<51.1084 598.892> 275 50<292.018 457.982> 675 50<292.24 457.76> 925 50<51.1084 598.892>
LayerCount: 2
Fore
SplineSet
500 150 m 4xef80
 376 150 275 251 275 375 c 4
 275 499 376 600 500 600 c 4
 624 600 725 499 725 375 c 4
 725 251 624 150 500 150 c 4xef80
500 550 m 4
 404 550 325 472 325 375 c 4
 325 278 404 200 500 200 c 4
 596 200 675 279 675 375 c 4
 675 471 597 550 500 550 c 4
900 0 m 6
 100 0 l 6
 59 0 25 34 25 75 c 6
 25 575 l 6
 25 616 59 650 100 650 c 6
 175 650 l 6
 196 650 228 663 243 678 c 6
 272 707 l 6
 296 732 341 750 375 750 c 6
 625 750 l 6
 659 750 704 732 728 707 c 6
 757 678 l 6
 772 663 804 650 825 650 c 6
 900 650 l 6xdf80
 941 650 975 616 975 575 c 6
 975 75 l 6
 975 34 941 0 900 0 c 6
100 600 m 6
 86 600 75 589 75 575 c 6
 75 75 l 6
 75 61 86 50 100 50 c 6
 900 50 l 6
 914 50 925 61 925 75 c 6
 925 575 l 6
 925 589 914 600 900 600 c 6
 825 600 l 6
 791 600 746 618 722 643 c 6
 693 672 l 6
 678 687 646 700 625 700 c 6
 375 700 l 6
 354 700 322 687 307 672 c 6
 278 643 l 6
 254 618 209 600 175 600 c 6
 100 600 l 6
EndSplineSet
EndChar

StartChar: picture
Encoding: 40 59431 40
Width: 1000
Flags: W
LayerCount: 2
Fore
SplineSet
925 -150 m 2
 75 -150 l 2
 34 -150 0 -116 0 -75 c 2
 0 775 l 2
 0 816 34 850 75 850 c 2
 925 850 l 2
 966 850 1000 816 1000 775 c 2
 1000 -75 l 2
 1000 -116 966 -150 925 -150 c 2
75 800 m 2
 61 800 50 789 50 775 c 2
 50 -75 l 2
 50 -89 61 -100 75 -100 c 2
 925 -100 l 2
 939 -100 950 -89 950 -75 c 2
 950 775 l 2
 950 789 939 800 925 800 c 2
 75 800 l 2
650 400 m 0
 595 400 550 445 550 500 c 0
 550 555 595 600 650 600 c 0
 705 600 750 555 750 500 c 0
 750 445 705 400 650 400 c 0
650 550 m 0
 622 550 600 528 600 500 c 0
 600 472 622 450 650 450 c 0
 678 450 700 472 700 500 c 0
 700 528 678 550 650 550 c 0
875 750 m 2
 125 750 l 2
 111 750 100 739 100 725 c 2
 100 125 l 2
 100 111 111 100 125 100 c 2
 875 100 l 2
 889 100 900 111 900 125 c 2
 900 725 l 2
 900 739 889 750 875 750 c 2
150 266 m 1
 311 446 l 2
 315 451 320 453 326 453 c 0
 331 453 337 451 341 446 c 2
 618 150 l 1
 150 150 l 1
 150 266 l 1
850 150 m 1
 686 150 l 1
 377 481 l 2
 364 495 345 504 325 503 c 0
 305 503 287 495 273 479 c 2
 150 341 l 1
 150 700 l 1
 850 700 l 1
 850 150 l 1
EndSplineSet
EndChar

StartChar: book
Encoding: 41 59432 41
Width: 1000
Flags: W
LayerCount: 2
Fore
SplineSet
725 -50 m 2
 225 -50 l 2
 211 -50 200 -39 200 -25 c 0
 200 -11 211 0 225 0 c 2
 725 0 l 2
 739 0 750 -11 750 -25 c 0
 750 -39 739 -50 725 -50 c 2
825 700 m 0
 811 700 800 689 800 675 c 2
 800 -75 l 2
 800 -89 789 -100 775 -100 c 2
 225 -100 l 2
 184 -100 150 -66 150 -25 c 0
 150 16 184 50 225 50 c 2
 675 50 l 2
 716 50 750 84 750 125 c 2
 750 725 l 2
 750 766 716 800 675 800 c 2
 175 800 l 2
 134 800 100 766 100 725 c 2
 100 -25 l 2
 100 -94 156 -150 225 -150 c 2
 775 -150 l 2
 816 -150 850 -116 850 -75 c 2
 850 675 l 2
 850 689 839 700 825 700 c 0
175 750 m 2
 675 750 l 2
 689 750 700 739 700 725 c 2
 700 125 l 2
 700 111 689 100 675 100 c 2
 225 100 l 2
 197 100 171 91 150 75 c 1
 150 725 l 2
 150 739 161 750 175 750 c 2
EndSplineSet
EndChar

StartChar: bookmark
Encoding: 42 59433 42
Width: 1000
Flags: W
HStem: 800 50<236 786>
VStem: 186 50<-7 800> 786 50<-7 800>
LayerCount: 2
Fore
SplineSet
811 -100 m 4
 804 -100 797 -97 792 -91 c 6
 511 237 l 5
 230 -91 l 6
 223 -99 212 -102 202 -98 c 4
 193 -95 186 -86 186 -75 c 6
 186 825 l 6
 186 839 197 850 211 850 c 6
 811 850 l 6
 825 850 836 839 836 825 c 6
 836 -75 l 6
 836 -86 830 -95 820 -98 c 4
 817 -100 814 -100 811 -100 c 4
511 300 m 4
 518 300 525 297 530 291 c 6
 786 -7 l 5
 786 800 l 5
 236 800 l 5
 236 -7 l 5
 492 291 l 6
 497 297 504 300 511 300 c 4
EndSplineSet
EndChar

StartChar: user
Encoding: 43 59434 43
Width: 1000
Flags: W
HStem: -150 50<76.1084 923.892> 200 50<318.574 681.426> 300 50<406.457 593.543> 800 50<406.457 593.543>
VStem: 25 50<-99.347 9.56749> 225 50<481.457 668.543> 725 50<481.457 668.543> 925 50<-99.347 9.56749>
LayerCount: 2
Fore
SplineSet
500 300 m 4
 348 300 225 423 225 575 c 4
 225 727 348 850 500 850 c 4
 652 850 775 727 775 575 c 4
 775 423 652 300 500 300 c 4
500 800 m 4
 376 800 275 699 275 575 c 4
 275 451 376 350 500 350 c 4
 624 350 725 451 725 575 c 4
 725 699 624 800 500 800 c 4
900 -150 m 6
 100 -150 l 6
 59 -150 25 -116 25 -75 c 4
 25 -72 26 9 86 90 c 4
 122 137 170 174 230 201 c 4
 303 234 394 250 500 250 c 4
 606 250 697 234 770 201 c 4
 830 174 879 137 914 90 c 4
 974 9 975 -72 975 -75 c 4
 975 -116 941 -150 900 -150 c 6
500 200 m 4
 326 200 197 152 128 62 c 4
 76 -5 75 -74 75 -75 c 4
 75 -89 86 -100 100 -100 c 6
 900 -100 l 6
 914 -100 925 -89 925 -75 c 4
 925 -74 924 -5 872 62 c 4
 803 152 674 200 500 200 c 4
EndSplineSet
EndChar

StartChar: user-1
Encoding: 44 59435 44
Width: 1000
Flags: W
HStem: 0 50<51.1084 249.802 351.108 948.892> 200 50<131.359 299.794> 250 50<495.119 804.881> 300 50<188.28 311.72> 350 50<572.247 727.753> 550 50<188.28 311.72> 700 50<572.247 727.753>
VStem: 0 50<50.653 131.916> 100 50<388.28 511.72> 300 50<50.653 140.076> 350 50<388.28 511.72> 450 50<472.247 627.753> 800 50<472.247 627.753> 950 50<50.653 140.076>
LayerCount: 2
Fore
SplineSet
925 0 m 6xa7dc
 375 0 l 6
 334 0 300 34 300 75 c 4
 300 77 301 135 346 191 c 4
 373 223 408 249 453 267 c 4
 506 289 573 300 650 300 c 4
 727 300 794 289 847 267 c 4
 892 249 928 223 954 191 c 4
 1000 135 1000 77 1000 75 c 4
 1000 34 966 0 925 0 c 6xa7dc
350 75 m 4
 350 61 361 50 375 50 c 6
 925 50 l 6
 939 50 950 61 950 75 c 4
 950 77 948 120 913 162 c 4
 864 219 773 250 650 250 c 4
 527 250 436 219 387 162 c 4
 352 120 350 77 350 75 c 4
650 350 m 4x8f9c
 540 350 450 440 450 550 c 4
 450 660 540 750 650 750 c 4
 760 750 850 660 850 550 c 4
 850 440 760 350 650 350 c 4x8f9c
650 700 m 4
 567 700 500 633 500 550 c 4
 500 467 567 400 650 400 c 4
 733 400 800 467 800 550 c 4
 800 633 733 700 650 700 c 4
225 0 m 6
 75 0 l 6
 34 0 0 34 0 75 c 4
 0 77 0 121 33 165 c 4
 52 190 78 210 110 224 c 4
 148 241 195 250 250 250 c 4
 259 250 268 250 276 249 c 4
 290 249 301 237 300 223 c 4
 299 209 288 199 274 199 c 4
 266 200 258 200 250 200 c 4xc7dc
 55 200 50 81 50 75 c 4
 50 61 61 50 75 50 c 6
 225 50 l 6
 239 50 250 39 250 25 c 4
 250 11 239 0 225 0 c 6
250 300 m 4x97bc
 167 300 100 367 100 450 c 4
 100 533 167 600 250 600 c 4
 333 600 400 533 400 450 c 4
 400 367 333 300 250 300 c 4x97bc
250 550 m 4
 195 550 150 505 150 450 c 4
 150 395 195 350 250 350 c 4
 305 350 350 395 350 450 c 4
 350 505 305 550 250 550 c 4
EndSplineSet
EndChar

StartChar: tshirt
Encoding: 45 59436 45
Width: 1000
Flags: W
HStem: 0 50<275.108 722.892> 650 50<429.331 568.669>
VStem: 224 50<51.1084 540> 724 50<51.1084 540>
LayerCount: 2
Fore
SplineSet
699 0 m 6
 299 0 l 6
 258 0 224 34 224 75 c 6
 224 540 l 5
 107 501 l 6
 94 497 80 504 75 517 c 6
 25 667 l 6
 21 679 27 692 38 697 c 6
 338 847 l 6
 346 851 355 851 362 846 c 4
 369 841 374 834 374 825 c 4
 374 756 430 700 499 700 c 4
 568 700 624 756 624 825 c 4
 624 834 629 842 636 846 c 4
 643 851 652 851 660 847 c 6
 960 697 l 6
 971 692 977 679 973 667 c 6
 923 517 l 6
 918 504 904 497 891 501 c 6
 774 540 l 5
 774 75 l 6
 774 34 740 0 699 0 c 6
249 600 m 4
 254 600 259 598 264 595 c 4
 270 591 274 583 274 575 c 6
 274 75 l 6
 274 61 285 50 299 50 c 6
 699 50 l 6
 713 50 724 61 724 75 c 6
 724 575 l 6
 724 583 728 591 734 595 c 4
 741 600 749 601 757 599 c 6
 883 557 l 5
 918 662 l 5
 670 787 l 5
 652 709 582 650 499 650 c 4
 416 650 346 709 328 787 c 5
 80 662 l 5
 115 557 l 5
 241 599 l 6
 244 600 246 600 249 600 c 4
EndSplineSet
EndChar

StartChar: store
Encoding: 46 59437 46
Width: 1000
Flags: W
HStem: 0 50<87.1976 112 912 936.802> 200 50<687.198 736.802> 350 50<187.742 263.746 360.254 463.746 760.254 836.258>
VStem: 87 50<423.417 475> 287 50<423.417 475> 487 50<423.417 475> 687 50<200.198 249.802 423.417 475> 887 50<423.417 475>
LayerCount: 2
Fore
SplineSet
937 475 m 6
 937 525 l 6
 937 529 936 533 934 536 c 6
 834 736 l 6
 830 745 822 750 812 750 c 6
 212 750 l 6
 203 750 194 745 190 736 c 6
 90 536 l 6
 88 533 87 529 87 525 c 6
 87 475 l 6
 87 434 107 398 137 375 c 5
 137 50 l 5
 112 50 l 6
 98 50 87 39 87 25 c 4
 87 11 98 0 112 0 c 6
 912 0 l 6
 926 0 937 11 937 25 c 4
 937 39 926 50 912 50 c 6
 887 50 l 5
 887 375 l 5
 917 398 937 434 937 475 c 6
612 400 m 4
 571 400 537 434 537 475 c 6
 537 500 l 5
 687 500 l 5
 687 475 l 6
 687 434 653 400 612 400 c 4
137 475 m 6
 137 500 l 5
 287 500 l 5
 287 475 l 6
 287 434 253 400 212 400 c 4
 171 400 137 434 137 475 c 6
487 700 m 5
 487 550 l 5
 344 550 l 5
 382 700 l 5
 487 700 l 5
643 700 m 5
 680 550 l 5
 537 550 l 5
 537 700 l 5
 643 700 l 5
337 500 m 5
 487 500 l 5
 487 475 l 6
 487 434 453 400 412 400 c 4
 371 400 337 434 337 475 c 6
 337 500 l 5
737 500 m 5
 887 500 l 5
 887 475 l 6
 887 434 853 400 812 400 c 4
 771 400 737 434 737 475 c 6
 737 500 l 5
872 550 m 5
 732 550 l 5
 694 700 l 5
 797 700 l 5
 872 550 l 5
228 700 m 5
 330 700 l 5
 293 550 l 5
 153 550 l 5
 228 700 l 5
187 353 m 5
 195 351 203 350 212 350 c 4
 253 350 289 370 312 400 c 5
 335 370 371 350 412 350 c 4
 453 350 489 370 512 400 c 5
 530 376 557 359 587 353 c 5
 587 50 l 5
 187 50 l 5
 187 353 l 5
837 50 m 5
 637 50 l 5
 637 353 l 5
 668 359 694 376 712 400 c 5
 735 370 771 350 812 350 c 4
 821 350 829 351 837 353 c 5
 837 50 l 5
737 225 m 4
 737 211 726 200 712 200 c 4
 698 200 687 211 687 225 c 4
 687 239 698 250 712 250 c 4
 726 250 737 239 737 225 c 4
262 200 m 4
 256 200 249 202 244 207 c 4
 235 217 235 233 244 243 c 6
 294 293 l 6
 304 302 320 302 330 293 c 4
 339 283 339 267 330 257 c 6
 280 207 l 6
 275 202 268 200 262 200 c 4
312 100 m 4
 306 100 299 102 294 107 c 4
 285 117 285 133 294 143 c 6
 444 293 l 6
 454 302 470 302 480 293 c 4
 489 283 489 267 480 257 c 6
 330 107 l 6
 325 102 318 100 312 100 c 4
462 100 m 4
 456 100 449 102 444 107 c 4
 435 117 435 133 444 143 c 6
 494 193 l 6
 504 202 520 202 530 193 c 4
 540 184 539 167 530 157 c 6
 480 107 l 6
 475 102 468 100 462 100 c 4
EndSplineSet
EndChar

StartChar: cart
Encoding: 47 59438 47
Width: 1000
Flags: W
HStem: -50 50<361.691 444.309 711.691 794.309> 100 50<361.691 444.309 711.691 794.309> 200 50<297.44 328 828 852.802> 700 50<828 841.858> 800 50<53.1976 78 128 158.56>
VStem: 303 50<8.69102 91.309> 453 50<8.69102 91.309> 653 50<8.69102 91.309> 803 50<8.69102 91.309>
LayerCount: 2
Fore
SplineSet
403 -50 m 4
 348 -50 303 -5 303 50 c 4
 303 105 348 150 403 150 c 4
 458 150 503 105 503 50 c 4
 503 -5 458 -50 403 -50 c 4
403 100 m 4
 375 100 353 78 353 50 c 4
 353 22 375 0 403 0 c 4
 431 0 453 22 453 50 c 4
 453 78 431 100 403 100 c 4
753 -50 m 4
 698 -50 653 -5 653 50 c 4
 653 105 698 150 753 150 c 4
 808 150 853 105 853 50 c 4
 853 -5 808 -50 753 -50 c 4
753 100 m 4
 725 100 703 78 703 50 c 4
 703 22 725 0 753 0 c 4
 781 0 803 22 803 50 c 4
 803 78 781 100 753 100 c 4
880 727 m 4
 867 742 849 750 828 750 c 6
 216 750 l 5
 211 780 l 6
 204 819 168 850 128 850 c 6
 78 850 l 6
 64 850 53 839 53 825 c 4
 53 811 64 800 78 800 c 6
 128 800 l 6
 143 800 159 787 162 772 c 6
 245 270 l 6
 252 231 288 200 328 200 c 6
 828 200 l 6
 842 200 853 211 853 225 c 4
 853 239 842 250 828 250 c 6
 328 250 l 6
 313 250 297 263 294 278 c 6
 282 352 l 5
 780 396 l 6
 819 399 855 432 861 470 c 6
 894 672 l 6
 898 692 893 712 880 727 c 4
845 680 m 6
 812 478 l 6
 809 463 792 447 776 446 c 6
 274 402 l 5
 224 700 l 5
 828 700 l 6
 834 700 839 698 842 694 c 4
 845 691 846 686 845 680 c 6
EndSplineSet
EndChar

StartChar: tag
Encoding: 48 59439 48
Width: 1000
Flags: W
HStem: -4 50<361.591 425.159> 600 50<718.653 767.347> 700 50<718.653 767.347> 800 50<557.583 866.892>
VStem: 64 50<293.591 357.159> 668 50<650.653 699.347> 768 50<650.653 699.347> 868 50<489.583 798.892>
LayerCount: 2
Fore
SplineSet
393 -4 m 4
 373 -4 354 4 340 18 c 6
 86 272 l 6
 72 286 64 305 64 325 c 4
 64 345 72 364 86 378 c 6
 515 807 l 6
 539 832 584 850 618 850 c 6
 843 850 l 6
 884 850 918 816 918 775 c 6
 918 550 l 6
 918 516 900 471 875 447 c 6
 446 18 l 6
 432 3 413 -4 393 -4 c 4
618 800 m 6
 597 800 565 787 550 772 c 6
 121 343 l 6
 116 338 114 332 114 325 c 4
 114 318 116 312 121 307 c 6
 375 53 l 6
 380 48 386 46 393 46 c 4
 400 46 406 48 411 53 c 6
 840 482 l 6
 855 497 868 529 868 550 c 6
 868 775 l 6
 868 789 857 800 843 800 c 6
 618 800 l 6
743 600 m 4
 702 600 668 634 668 675 c 4
 668 716 702 750 743 750 c 4
 784 750 818 716 818 675 c 4
 818 634 784 600 743 600 c 4
743 700 m 4
 729 700 718 689 718 675 c 4
 718 661 729 650 743 650 c 4
 757 650 768 661 768 675 c 4
 768 689 757 700 743 700 c 4
EndSplineSet
EndChar

StartChar: tel-2
Encoding: 49 59440 49
Width: 1000
Flags: W
LayerCount: 2
Fore
SplineSet
800 -150 m 0
 711 -150 617 -125 520 -75 c 0
 430 -30 342 36 264 114 c 0
 186 192 121 280 75 370 c 0
 26 467 1 561 1 650 c 0
 1 707 54 763 77 784 c 0
 110 815 162 850 200 850 c 0
 219 850 241 838 269 811 c 0
 291 792 315 765 339 734 c 0
 353 716 425 621 425 575 c 0
 425 538 383 512 338 484 c 0
 321 474 303 463 290 452 c 0
 276 441 274 435 273 434 c 0
 321 316 466 171 584 123 c 0
 585 124 591 126 602 140 c 0
 613 153 624 171 634 188 c 0
 662 233 688 275 725 275 c 0
 771 275 866 203 884 189 c 0
 915 165 942 141 961 119 c 0
 988 91 1000 69 1000 50 c 0
 1000 12 965 -40 934 -73 c 0
 913 -96 857 -150 800 -150 c 0
200 800 m 0
 186 800 150 783 111 747 c 0
 74 713 51 676 51 650 c 0
 51 314 464 -100 800 -100 c 0
 826 -100 863 -77 897 -39 c 0
 933 0 950 36 950 50 c 0
 948 59 922 96 850 152 c 0
 788 199 738 225 725 225 c 0
 724 225 719 223 707 208 c 0
 698 196 687 179 677 162 c 0
 649 116 622 73 584 73 c 0
 578 73 572 74 566 77 c 0
 435 129 279 285 227 416 c 0
 221 432 220 456 251 484 c 0
 267 499 290 513 312 527 c 0
 329 537 346 548 358 557 c 0
 373 569 375 574 375 575 c 0
 375 588 349 638 302 700 c 0
 246 772 209 798 200 800 c 0
EndSplineSet
EndChar

StartChar: tel
Encoding: 50 59441 50
Width: 1000
Flags: W
HStem: 0 50<124.999 875.351> 100 50<438.28 561.72> 350 50<438.28 561.72> 450 50<347.744 652.28> 456 50<61.4947 223.35 776.149 933.023> 626 50<345.431 654> 744 50<309.609 687.569>
VStem: 56 50<72.6137 214.04> 350 50<188.28 311.72> 600 50<188.28 311.72>
LayerCount: 2
Fore
SplineSet
895 455 m 4xefc0
 843 455 748 474 719 503 c 4
 701 521 697 544 693 562 c 4
 689 585 686 591 677 596 c 4
 631 615 567 626 499 626 c 4
 432 626 368 615 323 596 c 4
 314 592 311 585 307 563 c 4
 304 545 300 522 281 504 c 4
 265 488 231 476 205 470 c 4
 171 461 136 456 107 456 c 4
 73 456 51 463 38 476 c 4
 19 495 6 522 4 549 c 4
 2 572 6 606 38 637 c 4
 89 688 158 728 242 755 c 4
 320 781 408 794 498 794 c 4
 588 794 677 781 756 755 c 4
 841 727 910 687 962 635 c 4
 1014 583 1001 513 962 474 c 4
 950 461 927 455 895 455 c 4xefc0
499 676 m 4
 574 676 644 664 696 641 c 4
 732 626 738 595 742 572 c 4
 745 558 747 546 754 539 c 4
 767 526 840 505 895 505 c 4
 919 505 926 509 927 510 c 4
 943 526 962 564 927 600 c 4
 836 690 676 744 498 744 c 4
 321 744 162 691 73 602 c 4
 59 587 52 571 54 553 c 4
 55 538 62 522 73 511 c 4
 74 511 82 506 107 506 c 4
 162 506 234 527 246 539 c 4
 253 546 255 558 258 572 c 4
 262 595 268 627 304 642 c 4
 355 664 424 676 499 676 c 4
825 0 m 6
 175 0 l 6
 142 0 111 13 88 37 c 4
 65 61 54 93 56 126 c 4
 56 130 62 221 119 313 c 4
 153 368 198 411 253 442 c 4
 321 481 404 500 500 500 c 4xf7c0
 596 500 679 481 747 442 c 4
 802 411 847 368 881 313 c 4
 939 221 944 130 944 126 c 4
 946 93 935 61 912 37 c 4
 889 13 859 0 825 0 c 6
500 450 m 4
 344 450 231 396 163 288 c 4
 111 207 106 124 106 123 c 4
 104 104 111 85 124 72 c 4
 137 59 155 50 175 50 c 6
 825 50 l 6
 845 50 863 58 876 72 c 4
 889 85 896 104 895 124 c 4
 894 124 889 207 838 288 c 4
 769 396 656 450 500 450 c 4
500 100 m 4
 417 100 350 167 350 250 c 4
 350 333 417 400 500 400 c 4
 583 400 650 333 650 250 c 4
 650 167 583 100 500 100 c 4
500 350 m 4
 445 350 400 305 400 250 c 4
 400 195 445 150 500 150 c 4
 555 150 600 195 600 250 c 4
 600 305 555 350 500 350 c 4
EndSplineSet
EndChar

StartChar: pin
Encoding: 51 59442 51
Width: 1000
Flags: W
LayerCount: 2
Fore
SplineSet
900 510 m 2
 635 775 l 2
 626 784 613 790 600 790 c 0
 587 790 574 784 565 775 c 2
 550 760 l 2
 536 746 525 721 525 700 c 2
 525 650 l 2
 525 643 520 630 515 625 c 2
 375 485 l 2
 370 480 357 475 350 475 c 2
 300 475 l 2
 280 475 254 465 240 450 c 2
 225 435 l 2
 206 416 206 384 225 365 c 2
 303 287 l 1
 55 -35 l 2
 48 -45 48 -59 57 -68 c 0
 62 -73 69 -75 75 -75 c 0
 80 -75 86 -73 90 -70 c 2
 412 178 l 1
 490 100 l 2
 499 91 512 85 525 85 c 0
 538 85 551 91 560 100 c 2
 575 115 l 2
 590 129 600 155 600 175 c 2
 600 225 l 2
 600 232 605 245 610 250 c 2
 750 390 l 2
 755 395 768 400 775 400 c 2
 825 400 l 2
 846 400 871 411 885 425 c 2
 900 440 l 2
 909 449 915 462 915 475 c 0
 915 488 909 501 900 510 c 2
212 87 m 1
 338 251 l 1
 376 213 l 1
 212 87 l 1
850 460 m 2
 845 455 832 450 825 450 c 2
 775 450 l 2
 755 450 729 440 715 425 c 2
 575 285 l 2
 561 271 550 246 550 225 c 2
 550 175 l 2
 550 168 545 155 540 150 c 2
 525 135 l 1
 525 135 525 135 525 135 c 1
 525 135 l 1
 260 400 l 1
 275 415 l 2
 280 420 293 425 300 425 c 2
 350 425 l 2
 371 425 396 436 410 450 c 2
 550 590 l 2
 565 604 575 630 575 650 c 2
 575 700 l 2
 575 707 580 720 585 725 c 2
 600 740 l 1
 865 475 l 1
 850 460 l 2
EndSplineSet
EndChar

StartChar: glyph-113
Encoding: 52 59443 52
Width: 1000
Flags: W
HStem: 415.394 32.6973<457.822 553.749> 611.574 32.6973<457.826 553.749> 807.756 32.6807<409.846 595.961>
VStem: 391.349 32.6963<481.871 577.794> 587.529 32.6973<481.871 577.794>
LayerCount: 2
Fore
SplineSet
505.787109375 415.393554688 m 0
 442.682617188 415.393554688 391.348632812 466.744140625 391.348632812 529.833007812 c 0
 391.348632812 592.920898438 442.69921875 644.271484375 505.787109375 644.271484375 c 0
 568.875976562 644.271484375 620.2265625 592.920898438 620.2265625 529.833007812 c 0
 620.2265625 466.744140625 568.875976562 415.393554688 505.787109375 415.393554688 c 0
505.787109375 611.57421875 m 0
 460.71484375 611.57421875 424.044921875 574.905273438 424.044921875 529.833007812 c 0
 424.044921875 484.759765625 460.71484375 448.090820312 505.787109375 448.090820312 c 0
 550.860351562 448.090820312 587.529296875 484.759765625 587.529296875 529.833007812 c 0
 587.529296875 574.905273438 550.860351562 611.57421875 505.787109375 611.57421875 c 0
278.25 327.112304688 m 2
 341.649414062 235.561523438 l 1
 502.893554688 2.7109375 l 1
 727.194335938 326.622070312 l 2
 812.565429688 440.439453125 800.385742188 626.615234375 701.477539062 725.506835938 c 0
 648.427734375 778.541015625 577.916992188 807.755859375 502.91015625 807.755859375 c 0
 427.903320312 807.755859375 357.375976562 778.541015625 304.341796875 725.506835938 c 0
 205.434570312 626.615234375 193.254882812 440.456054688 278.25 327.112304688 c 2
681.254882812 202.864257812 m 1
 502.893554688 -54.7373046875 l 1
 324.515625 202.864257812 l 1
 251.716796875 307.984375 l 2
 162.909468618 436.220460579 171.625976562 639.040039062 281.208984375 748.607421875 c 0
 340.422851562 807.821289062 419.157226562 840.436523438 502.893554688 840.436523438 c 0
 586.646484375 840.436523438 665.380859375 807.821289062 724.578125 748.607421875 c 0
 834.162109375 639.040039062 847.780273438 432.90234375 753.694335938 307.494140625 c 2
 681.254882812 202.864257812 l 1
EndSplineSet
EndChar

StartChar: map
Encoding: 53 59444 53
Width: 1000
Flags: W
HStem: -140.452 32.6963<51.792 948.208> 202.864 32.6807<199.712 301.873 703.881 800.288> 415.394 32.6973<457.822 553.749> 611.574 32.6973<457.826 553.749> 807.756 32.6807<409.846 595.961>
VStem: 391.349 32.6963<481.871 577.794> 587.529 32.6973<481.871 577.794>
LayerCount: 2
Fore
SplineSet
505.787109375 415.393554688 m 0
 442.682617188 415.393554688 391.348632812 466.744140625 391.348632812 529.833007812 c 0
 391.348632812 592.920898438 442.69921875 644.271484375 505.787109375 644.271484375 c 0
 568.875976562 644.271484375 620.2265625 592.920898438 620.2265625 529.833007812 c 0
 620.2265625 466.744140625 568.875976562 415.393554688 505.787109375 415.393554688 c 0
505.787109375 611.57421875 m 0
 460.71484375 611.57421875 424.044921875 574.905273438 424.044921875 529.833007812 c 0
 424.044921875 484.759765625 460.71484375 448.090820312 505.787109375 448.090820312 c 0
 550.860351562 448.090820312 587.529296875 484.759765625 587.529296875 529.833007812 c 0
 587.529296875 574.905273438 550.860351562 611.57421875 505.787109375 611.57421875 c 0
820.952148438 235.561523438 m 1
 1000 -140.452148438 l 1
 0 -140.452148438 l 1
 179.047851562 235.544921875 l 1
 301.873046875 235.544921875 l 1
 251.716796875 307.984375 l 2
 158.0078125 432.88671875 171.625976562 639.040039062 281.208984375 748.607421875 c 0
 340.422851562 807.821289062 419.157226562 840.436523438 502.893554688 840.436523438 c 0
 586.646484375 840.436523438 665.380859375 807.821289062 724.578125 748.607421875 c 0
 834.162109375 639.040039062 847.780273438 432.90234375 753.694335938 307.494140625 c 2
 703.880859375 235.561523438 l 1
 820.952148438 235.561523438 l 1
278.25 327.112304688 m 2
 341.649414062 235.561523438 l 1
 502.893554688 2.7109375 l 1
 727.194335938 326.622070312 l 2
 812.565429688 440.439453125 800.385742188 626.615234375 701.477539062 725.506835938 c 0
 648.427734375 778.541015625 577.916992188 807.755859375 502.91015625 807.755859375 c 0
 427.903320312 807.755859375 357.375976562 778.541015625 304.341796875 725.506835938 c 0
 205.434570312 626.615234375 193.254882812 440.456054688 278.25 327.112304688 c 2
199.711914062 202.864257812 m 1
 51.7919921875 -107.755859375 l 1
 948.208007812 -107.755859375 l 1
 800.288085938 202.864257812 l 1
 681.254882812 202.864257812 l 1
 502.893554688 -54.7373046875 l 1
 324.515625 202.864257812 l 1
 199.711914062 202.864257812 l 1
EndSplineSet
EndChar

StartChar: bluetooth
Encoding: 54 59445 54
Width: 1000
Flags: W
VStem: 484.437 37.0557<-55.21 297.343 405.325 760.546>
LayerCount: 2
Fore
SplineSet
751.000976562 583.435546875 m 1
 537.556640625 352.205078125 l 1
 751.000976562 138.760742188 l 1
 484.436523438 -150 l 1
 484.436523438 294.674804688 l 1
 484.436523438 297.342773438 l 1
 275.198242188 88.1044921875 l 1
 248.999023438 114.303710938 l 1
 484.436523438 349.740234375 l 1
 484.436523438 352.927734375 l 1
 248.999023438 588.364257812 l 1
 275.198242188 614.563476562 l 1
 484.436523438 405.325195312 l 1
 484.436523438 850 l 1
 751.000976562 583.435546875 l 1
521.4921875 760.545898438 m 1
 521.4921875 389.46484375 l 1
 699.603515625 582.435546875 l 1
 521.4921875 760.545898438 l 1
521.4921875 -55.2099609375 m 1
 699.603515625 137.760742188 l 1
 521.4921875 315.87109375 l 1
 521.4921875 -55.2099609375 l 1
EndSplineSet
EndChar

StartChar: calendar
Encoding: 55 59446 55
Width: 1000
Flags: W
HStem: -49 50<51.1084 75 925 948.892> 101 50<150.198 249.802 300.198 399.802 450.198 549.802 600.198 699.802 750.198 849.802> 201 50<150.198 249.802 300.198 399.802 450.198 549.802 600.198 699.802 750.198 849.802> 301 50<150.198 249.802 300.198 399.802 450.198 549.802 600.198 699.802 750.198 849.802> 401 50<300.198 399.802 450.198 549.802 600.198 699.802 750.198 849.802> 751 50<51.1084 75 925 948.892>
VStem: 0 50<2.10836 26 726 749.892> 150 100<101.198 150.802 201.198 250.802 301.198 350.802> 200 50<651.198 676 826 850.802> 300 100<101.198 150.802 201.198 250.802 301.198 350.802 401.198 450.802> 450 100<101.198 150.802 201.198 250.802 301.198 350.802 401.198 450.802> 600 100<101.198 150.802 201.198 250.802 301.198 350.802 401.198 450.802> 750 100<101.198 150.802 201.198 250.802 301.198 350.802 401.198 450.802> 750 50<651.198 676 826 850.802> 950 50<2.10836 26 726 749.892>
LayerCount: 2
Fore
SplineSet
925 801 m 2xfef6
 800 801 l 1
 800 826 l 2
 800 840 789 851 775 851 c 0
 761 851 750 840 750 826 c 2
 750 801 l 1
 250 801 l 1
 250 826 l 2
 250 840 239 851 225 851 c 0
 211 851 200 840 200 826 c 2
 200 801 l 1
 75 801 l 2
 34 801 0 767 0 726 c 2
 0 26 l 2
 0 -15 34 -49 75 -49 c 2
 925 -49 l 2
 966 -49 1000 -15 1000 26 c 2
 1000 726 l 2
 1000 767 966 801 925 801 c 2xfef6
75 751 m 2
 200 751 l 1
 200 676 l 2
 200 662 211 651 225 651 c 0
 239 651 250 662 250 676 c 2
 250 751 l 1
 750 751 l 1
 750 676 l 2
 750 662 761 651 775 651 c 0
 789 651 800 662 800 676 c 2
 800 751 l 1
 925 751 l 2
 939 751 950 740 950 726 c 2
 950 601 l 1
 50 601 l 1
 50 726 l 2
 50 740 61 751 75 751 c 2
925 1 m 2
 75 1 l 2
 61 1 50 12 50 26 c 2
 50 551 l 1
 950 551 l 1
 950 26 l 2
 950 12 939 1 925 1 c 2
375 401 m 2
 325 401 l 2
 311 401 300 412 300 426 c 0
 300 440 311 451 325 451 c 2
 375 451 l 2
 389 451 400 440 400 426 c 0
 400 412 389 401 375 401 c 2
525 401 m 2
 475 401 l 2
 461 401 450 412 450 426 c 0
 450 440 461 451 475 451 c 2
 525 451 l 2
 539 451 550 440 550 426 c 0
 550 412 539 401 525 401 c 2
675 401 m 2
 625 401 l 2
 611 401 600 412 600 426 c 0
 600 440 611 451 625 451 c 2
 675 451 l 2
 689 451 700 440 700 426 c 0
 700 412 689 401 675 401 c 2
825 401 m 2
 775 401 l 2
 761 401 750 412 750 426 c 0
 750 440 761 451 775 451 c 2
 825 451 l 2
 839 451 850 440 850 426 c 0xfe7a
 850 412 839 401 825 401 c 2
225 301 m 2
 175 301 l 2
 161 301 150 312 150 326 c 0
 150 340 161 351 175 351 c 2
 225 351 l 2
 239 351 250 340 250 326 c 0xff72
 250 312 239 301 225 301 c 2
375 301 m 2
 325 301 l 2
 311 301 300 312 300 326 c 0
 300 340 311 351 325 351 c 2
 375 351 l 2
 389 351 400 340 400 326 c 0
 400 312 389 301 375 301 c 2
525 301 m 2
 475 301 l 2
 461 301 450 312 450 326 c 0
 450 340 461 351 475 351 c 2
 525 351 l 2
 539 351 550 340 550 326 c 0
 550 312 539 301 525 301 c 2
675 301 m 2
 625 301 l 2
 611 301 600 312 600 326 c 0
 600 340 611 351 625 351 c 2
 675 351 l 2
 689 351 700 340 700 326 c 0
 700 312 689 301 675 301 c 2
825 301 m 2
 775 301 l 2
 761 301 750 312 750 326 c 0
 750 340 761 351 775 351 c 2
 825 351 l 2
 839 351 850 340 850 326 c 0xfe7a
 850 312 839 301 825 301 c 2
225 201 m 2
 175 201 l 2
 161 201 150 212 150 226 c 0
 150 240 161 251 175 251 c 2
 225 251 l 2
 239 251 250 240 250 226 c 0xff72
 250 212 239 201 225 201 c 2
375 201 m 2
 325 201 l 2
 311 201 300 212 300 226 c 0
 300 240 311 251 325 251 c 2
 375 251 l 2
 389 251 400 240 400 226 c 0
 400 212 389 201 375 201 c 2
525 201 m 2
 475 201 l 2
 461 201 450 212 450 226 c 0
 450 240 461 251 475 251 c 2
 525 251 l 2
 539 251 550 240 550 226 c 0
 550 212 539 201 525 201 c 2
675 201 m 2
 625 201 l 2
 611 201 600 212 600 226 c 0
 600 240 611 251 625 251 c 2
 675 251 l 2
 689 251 700 240 700 226 c 0
 700 212 689 201 675 201 c 2
825 201 m 2
 775 201 l 2
 761 201 750 212 750 226 c 0
 750 240 761 251 775 251 c 2
 825 251 l 2
 839 251 850 240 850 226 c 0xfe7a
 850 212 839 201 825 201 c 2
225 101 m 2
 175 101 l 2
 161 101 150 112 150 126 c 0
 150 140 161 151 175 151 c 2
 225 151 l 2
 239 151 250 140 250 126 c 0xff72
 250 112 239 101 225 101 c 2
375 101 m 2
 325 101 l 2
 311 101 300 112 300 126 c 0
 300 140 311 151 325 151 c 2
 375 151 l 2
 389 151 400 140 400 126 c 0
 400 112 389 101 375 101 c 2
525 101 m 2
 475 101 l 2
 461 101 450 112 450 126 c 0
 450 140 461 151 475 151 c 2
 525 151 l 2
 539 151 550 140 550 126 c 0
 550 112 539 101 525 101 c 2
675 101 m 2
 625 101 l 2
 611 101 600 112 600 126 c 0
 600 140 611 151 625 151 c 2
 675 151 l 2
 689 151 700 140 700 126 c 0
 700 112 689 101 675 101 c 2
825 101 m 2
 775 101 l 2
 761 101 750 112 750 126 c 0
 750 140 761 151 775 151 c 2
 825 151 l 2
 839 151 850 140 850 126 c 0xfe7a
 850 112 839 101 825 101 c 2
EndSplineSet
EndChar

StartChar: keyboard
Encoding: 56 59447 56
Width: 1000
Flags: W
HStem: 55 50<71.1084 918.892> 155 50<120.198 219.802 270.198 619.802 670.198 769.802> 255 50<120.198 319.802 370.198 419.802 470.198 519.802 570.198 619.802 670.198 820> 355 50<120.198 269.802 320.198 369.802 420.198 469.802 520.198 569.802 620.198 669.802 720.198 769.802> 455 50<120.198 219.802 270.198 319.802 370.198 419.802 470.198 519.802 570.198 619.802 670.198 719.802 770.198 869.802> 555 50<71.1084 918.892>
VStem: 20 50<106.108 553.892> 120 100<155.198 204.802 455.198 504.802> 270 50<455.198 504.802> 320 50<355.198 404.802> 370 50<255.198 304.802 455.198 504.802> 420 50<355.198 404.802> 470 50<255.198 304.802 455.198 504.802> 520 50<355.198 404.802> 570 50<255.198 304.802 455.198 504.802> 620 50<355.198 404.802> 670 100<155.198 204.802> 670 50<455.198 504.802> 720 50<355.198 404.802> 770 100<455.198 504.802> 820 50<305 404.802> 920 50<106.108 553.892>
LayerCount: 2
Fore
SplineSet
895 55 m 6xff0004
 95 55 l 6
 54 55 20 89 20 130 c 6
 20 530 l 6
 20 571 54 605 95 605 c 6
 895 605 l 6
 936 605 970 571 970 530 c 6
 970 130 l 6
 970 89 936 55 895 55 c 6xff0004
95 555 m 6
 81 555 70 544 70 530 c 6
 70 130 l 6
 70 116 81 105 95 105 c 6
 895 105 l 6
 909 105 920 116 920 130 c 6
 920 530 l 6
 920 544 909 555 895 555 c 6
 95 555 l 6
195 455 m 6
 145 455 l 6
 131 455 120 466 120 480 c 4
 120 494 131 505 145 505 c 6
 195 505 l 6
 209 505 220 494 220 480 c 4
 220 466 209 455 195 455 c 6
845 455 m 6
 795 455 l 6
 781 455 770 466 770 480 c 4
 770 494 781 505 795 505 c 6
 845 505 l 6
 859 505 870 494 870 480 c 4xff0014
 870 466 859 455 845 455 c 6
245 355 m 6
 145 355 l 6
 131 355 120 366 120 380 c 4
 120 394 131 405 145 405 c 6
 245 405 l 6
 259 405 270 394 270 380 c 4xff8004
 270 366 259 355 245 355 c 6
195 155 m 6
 145 155 l 6
 131 155 120 166 120 180 c 4
 120 194 131 205 145 205 c 6
 195 205 l 6
 209 205 220 194 220 180 c 4
 220 166 209 155 195 155 c 6
595 155 m 6
 295 155 l 6
 281 155 270 166 270 180 c 4
 270 194 281 205 295 205 c 6
 595 205 l 6
 609 205 620 194 620 180 c 4xff8104
 620 166 609 155 595 155 c 6
745 155 m 6
 695 155 l 6
 681 155 670 166 670 180 c 4
 670 194 681 205 695 205 c 6
 745 205 l 6
 759 205 770 194 770 180 c 4xff0084
 770 166 759 155 745 155 c 6
845 255 m 6
 695 255 l 6
 681 255 670 266 670 280 c 4
 670 294 681 305 695 305 c 6
 820 305 l 5
 820 380 l 6
 820 394 831 405 845 405 c 4
 859 405 870 394 870 380 c 6
 870 280 l 6xff004c
 870 266 859 255 845 255 c 6
295 255 m 6
 145 255 l 6
 131 255 120 266 120 280 c 4
 120 294 131 305 145 305 c 6
 295 305 l 6
 309 305 320 294 320 280 c 4xff4004
 320 266 309 255 295 255 c 6
320 480 m 4xff8004
 320 466 309 455 295 455 c 4
 281 455 270 466 270 480 c 4
 270 494 281 505 295 505 c 4
 309 505 320 494 320 480 c 4xff8004
420 480 m 4xff2004
 420 466 409 455 395 455 c 4
 381 455 370 466 370 480 c 4
 370 494 381 505 395 505 c 4
 409 505 420 494 420 480 c 4xff2004
520 480 m 4xff0804
 520 466 509 455 495 455 c 4
 481 455 470 466 470 480 c 4
 470 494 481 505 495 505 c 4
 509 505 520 494 520 480 c 4xff0804
620 480 m 4xff0204
 620 466 609 455 595 455 c 4
 581 455 570 466 570 480 c 4
 570 494 581 505 595 505 c 4
 609 505 620 494 620 480 c 4xff0204
720 480 m 4xff0044
 720 466 709 455 695 455 c 4
 681 455 670 466 670 480 c 4
 670 494 681 505 695 505 c 4
 709 505 720 494 720 480 c 4xff0044
370 380 m 4xff4004
 370 366 359 355 345 355 c 4
 331 355 320 366 320 380 c 4
 320 394 331 405 345 405 c 4
 359 405 370 394 370 380 c 4xff4004
470 380 m 4xff1004
 470 366 459 355 445 355 c 4
 431 355 420 366 420 380 c 4
 420 394 431 405 445 405 c 4
 459 405 470 394 470 380 c 4xff1004
570 380 m 4xff0404
 570 366 559 355 545 355 c 4
 531 355 520 366 520 380 c 4
 520 394 531 405 545 405 c 4
 559 405 570 394 570 380 c 4xff0404
670 380 m 4xff0104
 670 366 659 355 645 355 c 4
 631 355 620 366 620 380 c 4
 620 394 631 405 645 405 c 4
 659 405 670 394 670 380 c 4xff0104
770 380 m 4xff0024
 770 366 759 355 745 355 c 4
 731 355 720 366 720 380 c 4
 720 394 731 405 745 405 c 4
 759 405 770 394 770 380 c 4xff0024
420 280 m 4xff2004
 420 266 409 255 395 255 c 4
 381 255 370 266 370 280 c 4
 370 294 381 305 395 305 c 4
 409 305 420 294 420 280 c 4xff2004
520 280 m 4xff0804
 520 266 509 255 495 255 c 4
 481 255 470 266 470 280 c 4
 470 294 481 305 495 305 c 4
 509 305 520 294 520 280 c 4xff0804
620 280 m 4xff0204
 620 266 609 255 595 255 c 4
 581 255 570 266 570 280 c 4
 570 294 581 305 595 305 c 4
 609 305 620 294 620 280 c 4xff0204
EndSplineSet
EndChar

StartChar: spell-check
Encoding: 57 59448 57
Width: 1000
Flags: W
HStem: 0 50<89.4952 192.638 389.362 492.505 689.495 806.544> 200 50<89.4952 192.638 389.362 492.505 689.495 806.544>
VStem: 16 50<73.4952 176.505> 216 50<0.197601 25 73.4173 176.583 225 249.802> 316 50<0.197601 25 73.4173 176.583 425 449.802> 516 50<73.4952 176.505> 616 50<73.4952 176.505>
LayerCount: 2
Fore
SplineSet
241 250 m 4
 227 250 216 239 216 225 c 5
 195 241 169 250 141 250 c 4
 72 250 16 194 16 125 c 4
 16 56 72 0 141 0 c 4
 169 0 195 9 216 25 c 5
 216 11 227 0 241 0 c 4
 255 0 266 11 266 25 c 6
 266 225 l 6
 266 239 255 250 241 250 c 4
141 50 m 4
 100 50 66 84 66 125 c 4
 66 166 100 200 141 200 c 4
 182 200 216 166 216 125 c 4
 216 84 182 50 141 50 c 4
441 250 m 4
 413 250 387 241 366 225 c 5
 366 425 l 6
 366 439 355 450 341 450 c 4
 327 450 316 439 316 425 c 6
 316 25 l 6
 316 11 327 0 341 0 c 4
 355 0 366 11 366 25 c 5
 387 9 413 0 441 0 c 4
 510 0 566 56 566 125 c 4
 566 194 510 250 441 250 c 4
441 50 m 4
 400 50 366 84 366 125 c 4
 366 166 400 200 441 200 c 4
 482 200 516 166 516 125 c 4
 516 84 482 50 441 50 c 4
741 0 m 4
 672 0 616 56 616 125 c 4
 616 194 672 250 741 250 c 4
 763 250 785 244 804 233 c 4
 816 226 820 211 813 199 c 4
 806 187 790 183 779 190 c 4
 767 197 754 200 741 200 c 4
 700 200 666 166 666 125 c 4
 666 84 700 50 741 50 c 4
 754 50 767 53 779 60 c 4
 790 67 806 63 813 51 c 4
 820 39 816 24 804 17 c 4
 785 6 763 0 741 0 c 4
591 425 m 4
 585 425 578 427 573 432 c 6
 423 582 l 6
 414 592 414 608 423 618 c 4
 433 627 449 627 459 618 c 6
 591 485 l 5
 923 818 l 6
 933 827 949 827 959 818 c 4
 968 808 968 792 959 782 c 6
 609 432 l 6
 604 427 597 425 591 425 c 4
EndSplineSet
EndChar

StartChar: screen
Encoding: 58 59449 58
Width: 1000
Flags: W
HStem: 2 50<274.198 299 699 723.802> 152 50<75.1084 99 899 922.892> 752 50<75.1084 99 899 922.892>
VStem: 24 50<203.108 227 727 750.892> 924 50<203.108 227 727 750.892>
LayerCount: 2
Fore
SplineSet
899 802 m 6
 99 802 l 6
 58 802 24 768 24 727 c 6
 24 227 l 6
 24 186 58 152 99 152 c 6
 474 152 l 5
 474 52 l 5
 299 52 l 6
 285 52 274 41 274 27 c 4
 274 13 285 2 299 2 c 6
 699 2 l 6
 713 2 724 13 724 27 c 4
 724 41 713 52 699 52 c 6
 524 52 l 5
 524 152 l 5
 899 152 l 6
 940 152 974 186 974 227 c 6
 974 727 l 6
 974 768 940 802 899 802 c 6
924 227 m 6
 924 213 913 202 899 202 c 6
 99 202 l 6
 85 202 74 213 74 227 c 6
 74 727 l 6
 74 741 85 752 99 752 c 6
 899 752 l 6
 913 752 924 741 924 727 c 6
 924 227 l 6
EndSplineSet
EndChar

StartChar: phone
Encoding: 59 59450 59
Width: 1000
Flags: W
HStem: -150 33.334<252.146 747.852> -100 33.334<466.735 533.256> -33.332 33.332<466.744 533.265> 16.668 33.332<250 750> 716.666 33.334<250 750> 766.668 33.332<400.007 599.995 666.673 716.661> 816.666 33.334<252.146 747.86>
VStem: 216.666 33.334<-114.52 16.668 50 716.666 750 814.52> 433.334 33.332<-66.604 -33.4104> 533.334 33.332<-66.604 -33.4104> 666.668 49.998<766.668 800> 749.998 33.334<-114.527 814.52>
LayerCount: 2
Fore
SplineSet
583.333984375 800 m 2
 592.533203125 800 600 792.533203125 600 783.333984375 c 0
 600 774.134765625 592.533203125 766.66796875 583.333984375 766.66796875 c 2
 416.66796875 766.66796875 l 2
 407.46875 766.66796875 400.001953125 774.134765625 400.001953125 783.333984375 c 0
 400.001953125 792.533203125 407.46875 800 416.66796875 800 c 2
 583.333984375 800 l 2
700 800 m 2
 709.19921875 800 716.666015625 792.533203125 716.666015625 783.333984375 c 0
 716.666015625 774.134765625 709.19921875 766.66796875 700 766.66796875 c 2
 683.333984375 766.66796875 l 2
 674.134765625 766.66796875 666.66796875 774.134765625 666.66796875 783.333984375 c 0
 666.66796875 792.533203125 674.134765625 800 683.333984375 800 c 2
 700 800 l 2
520.69921875 0 m 2
 546.033203125 0 566.666015625 -20.6328125 566.666015625 -45.982421875 c 2
 566.666015625 -54.033203125 l 2
 566.666015625 -79.3828125 546.033203125 -100 520.68359375 -100 c 2
 479.30078125 -100 l 2
 453.966796875 -100 433.333984375 -79.3828125 433.333984375 -54.033203125 c 2
 433.333984375 -45.982421875 l 2
 433.333984375 -20.6328125 453.966796875 0 479.31640625 0 c 2
 520.69921875 0 l 2
533.333984375 -54.033203125 m 1
 533.333984375 -45.982421875 l 2
 533.333984375 -38.998046875 527.66796875 -33.33203125 520.68359375 -33.33203125 c 2
 479.31640625 -33.33203125 l 2
 472.33203125 -33.33203125 466.666015625 -39 466.666015625 -45.982421875 c 2
 466.666015625 -54.033203125 l 2
 466.666015625 -61 472.333984375 -66.666015625 479.31640625 -66.666015625 c 2
 520.701171875 -66.666015625 l 2
 527.66796875 -66.666015625 533.333984375 -61 533.333984375 -54.033203125 c 1
723.099609375 850 m 2
 756.30078125 850 783.333984375 822.966796875 783.33203125 789.75 c 2
 783.33203125 -89.767578125 l 2
 783.33203125 -122.966796875 756.298828125 -150 723.08203125 -150 c 2
 276.916015625 -150 l 2
 243.69921875 -150 216.666015625 -122.966796875 216.666015625 -89.75 c 2
 216.666015625 789.75 l 2
 216.666015625 822.966796875 243.69921875 850 276.916015625 850 c 2
 723.099609375 850 l 2
750 -89.75 m 1
 749.998046875 -89.75 l 1
 749.998046875 789.75 l 2
 749.998046875 804.58203125 737.931640625 816.666015625 723.08203125 816.666015625 c 2
 276.916015625 816.666015625 l 2
 262.06640625 816.666015625 250 804.583984375 250 789.75 c 2
 250 -89.765625 l 2
 250 -104.58203125 262.06640625 -116.666015625 276.916015625 -116.666015625 c 2
 723.099609375 -116.666015625 l 2
 737.93359375 -116.666015625 750 -104.583984375 750 -89.75 c 1
766.666015625 750 m 2
 775.8671875 750 783.333984375 742.533203125 783.333984375 733.333984375 c 2
 783.333984375 33.333984375 l 2
 783.333984375 24.134765625 775.8671875 16.66796875 766.66796875 16.66796875 c 2
 233.333984375 16.66796875 l 2
 224.134765625 16.66796875 216.66796875 24.134765625 216.66796875 33.333984375 c 2
 216.66796875 733.333984375 l 2
 216.66796875 742.533203125 224.134765625 750 233.333984375 750 c 2
 766.666015625 750 l 2
750 50 m 1
 750 716.666015625 l 1
 250 716.666015625 l 1
 250 50 l 1
 750 50 l 1
EndSplineSet
EndChar

StartChar: tablet
Encoding: 60 59451 60
Width: 1000
Flags: W
LayerCount: 2
Fore
SplineSet
825 -150 m 2
 175 -150 l 2
 134 -150 100 -116 100 -75 c 2
 100 775 l 2
 100 816 134 850 175 850 c 2
 825 850 l 2
 866 850 900 816 900 775 c 2
 900 -75 l 2
 900 -116 866 -150 825 -150 c 2
175 800 m 2
 161 800 150 789 150 775 c 2
 150 -75 l 2
 150 -89 161 -100 175 -100 c 2
 825 -100 l 2
 839 -100 850 -89 850 -75 c 2
 850 775 l 2
 850 789 839 800 825 800 c 2
 175 800 l 2
525 -50 m 2
 475 -50 l 2
 461 -50 450 -39 450 -25 c 0
 450 -11 461 0 475 0 c 2
 525 0 l 2
 539 0 550 -11 550 -25 c 0
 550 -39 539 -50 525 -50 c 2
775 50 m 2
 225 50 l 2
 211 50 200 61 200 75 c 2
 200 725 l 2
 200 739 211 750 225 750 c 2
 775 750 l 2
 789 750 800 739 800 725 c 2
 800 75 l 2
 800 61 789 50 775 50 c 2
250 100 m 1
 750 100 l 1
 750 700 l 1
 250 700 l 1
 250 100 l 1
EndSplineSet
EndChar

StartChar: laptop
Encoding: 61 59452 61
Width: 1000
Flags: W
HStem: 2 50<51.1084 75 925 948.892> 202 50<151.108 175 825 848.892> 702 50<151.108 175 825 848.892>
VStem: 0 50<53.1084 77> 100 50<253.108 277 677 700.892> 850 50<253.108 277 677 700.892> 950 50<53.1084 77>
LayerCount: 2
Fore
SplineSet
175 202 m 6
 825 202 l 6
 866 202 900 236 900 277 c 6
 900 677 l 6
 900 718 866 752 825 752 c 6
 175 752 l 6
 134 752 100 718 100 677 c 6
 100 277 l 6
 100 236 134 202 175 202 c 6
150 677 m 6
 150 691 161 702 175 702 c 6
 825 702 l 6
 839 702 850 691 850 677 c 6
 850 277 l 6
 850 263 839 252 825 252 c 6
 175 252 l 6
 161 252 150 263 150 277 c 6
 150 677 l 6
975 152 m 6
 25 152 l 6
 11 152 0 141 0 127 c 6
 0 77 l 6
 0 36 34 2 75 2 c 6
 925 2 l 6
 966 2 1000 36 1000 77 c 6
 1000 127 l 6
 1000 141 989 152 975 152 c 6
925 52 m 6
 75 52 l 6
 61 52 50 63 50 77 c 6
 50 102 l 5
 950 102 l 5
 950 77 l 6
 950 63 939 52 925 52 c 6
EndSplineSet
EndChar

StartChar: laptop-phone
Encoding: 62 59453 62
Width: 1000
Flags: W
HStem: -25 31.25<328.125 627.695 656.25 905.637> 21.875 31.25<328.125 377.637 410.781 587.266 620.41 625> 115.625 31.25<59.9153 399.766 432.91 565.137 598.281 625> 162.5 31.25<78.1301 218.745 234.38 281.245> 209.375 31.25<46.875 625> 350 31.25<745.645 816.855> 396.875 31.25<656.863 707.48 740.43 822.07 855.02 905.637> 678.125 31.25<59.9153 940.085>
VStem: 15.625 31.25<159.915 209.375 240.625 665.085> 234.375 46.875<162.5 193.75> 296.875 31.25<6.25 21.875> 625 31.25<6.44801 21.875 53.125 115.625 146.875 209.375 240.625 396.262> 906.25 31.25<6.86259 131.377 158.809 396.262> 953.125 31.25<159.176 665.085>
LayerCount: 2
Fore
SplineSet
906.25 709.375 m 2
 949.33203125 709.33203125 984.33203125 674.33203125 984.375 631.25 c 2
 984.375 193.75 l 2
 984.375 193.745117188 984.375 193.736328125 984.375 193.731445312 c 0
 984.375 165.5 963.375 133.421875 937.5 122.12890625 c 1
 937.5 21.875 l 2
 937.465820312 -3.9658203125 916.465820312 -24.9658203125 890.625 -25 c 2
 312.5 -25 l 2
 303.875 -25 296.875 -18 296.875 -9.375 c 2
 296.875 37.5 l 2
 296.875 46.125 303.875 53.125 312.5 53.125 c 2
 377.63671875 53.125 l 1
 399.765625 115.625 l 1
 93.75 115.625 l 2
 50.66796875 115.66796875 15.66796875 150.66796875 15.625 193.75 c 2
 15.625 631.25 l 2
 15.66796875 674.33203125 50.66796875 709.33203125 93.75 709.375 c 2
 906.25 709.375 l 2
93.75 146.875 m 2
 625 146.875 l 1
 625 209.375 l 1
 46.875 209.375 l 1
 46.875 193.75 l 2
 46.9091796875 167.909179688 67.9091796875 146.909179688 93.75 146.875 c 2
625 115.625 m 1
 598.28125 115.625 l 1
 620.41015625 53.125 l 1
 625 53.125 l 1
 625 115.625 l 1
587.265625 53.125 m 1
 565.13671875 115.625 l 1
 432.91015625 115.625 l 1
 410.78125 53.125 l 1
 587.265625 53.125 l 1
328.125 6.25 m 1
 627.6953125 6.25 l 2
 626.20703125 10.4306640625 625 17.4248046875 625 21.8623046875 c 0
 625 21.8662109375 625 21.87109375 625 21.875 c 2
 328.125 21.875 l 1
 328.125 6.25 l 1
906.25 21.875 m 2
 906.25 381.25 l 2
 906.23828125 389.86328125 899.23828125 396.86328125 890.625 396.875 c 2
 855.01953125 396.875 l 1
 842.94921875 360.68359375 l 2
 840.983398438 354.786132812 834.342773438 350 828.125976562 350 c 0
 828.125976562 350 828.125 350 828.125 350 c 2
 734.375 350 l 2
 734.375 350 734.374023438 350 734.374023438 350 c 0
 728.157226562 350 721.516601562 354.786132812 719.55078125 360.68359375 c 2
 707.48046875 396.875 l 1
 671.875 396.875 l 2
 663.26171875 396.86328125 656.26171875 389.86328125 656.25 381.25 c 2
 656.25 21.875 l 2
 656.26171875 13.26171875 663.26171875 6.26171875 671.875 6.25 c 2
 890.625 6.25 l 2
 899.23828125 6.26171875 906.23828125 13.26171875 906.25 21.875 c 2
740.4296875 396.875 m 1
 745.64453125 381.25 l 1
 816.85546875 381.25 l 1
 822.0703125 396.875 l 1
 740.4296875 396.875 l 1
953.125 193.75 m 2
 953.125 631.25 l 2
 953.090820312 657.090820312 932.090820312 678.090820312 906.25 678.125 c 2
 93.75 678.125 l 2
 67.9091796875 678.090820312 46.9091796875 657.090820312 46.875 631.25 c 2
 46.875 240.625 l 1
 625 240.625 l 1
 625 381.25 l 2
 625.034179688 407.090820312 646.034179688 428.090820312 671.875 428.125 c 2
 890.625 428.125 l 2
 916.465820312 428.090820312 937.465820312 407.090820312 937.5 381.25 c 2
 937.5 158.80859375 l 1
 946.123046875 166.525390625 953.123046875 182.178710938 953.125 193.75 c 2
203.125 193.75 m 2
 211.75 193.75 218.75 186.75 218.75 178.125 c 0
 218.75 169.5 211.75 162.5 203.125 162.5 c 2
 93.75 162.5 l 2
 85.125 162.5 78.125 169.5 78.125 178.125 c 0
 78.125 186.75 85.125 193.75 93.75 193.75 c 2
 203.125 193.75 l 2
265.625 193.75 m 2
 274.25 193.75 281.25 186.75 281.25 178.125 c 0
 281.25 169.5 274.25 162.5 265.625 162.5 c 2
 250 162.5 l 2
 241.375 162.5 234.375 169.5 234.375 178.125 c 0
 234.375 186.75 241.375 193.75 250 193.75 c 2
 265.625 193.75 l 2
EndSplineSet
EndChar

StartChar: shutdown
Encoding: 63 59454 63
Width: 1000
Flags: W
HStem: 0 50<397.512 622.488> 687 48<367.984 433.805 586.195 652.303>
VStem: 135 50<262.512 490.645> 485 50<350.198 849.802> 835 50<262.512 490.645>
CounterMasks: 1 38
LayerCount: 2
Fore
SplineSet
510 350 m 4
 496 350 485 361 485 375 c 6
 485 825 l 6
 485 839 496 850 510 850 c 4
 524 850 535 839 535 825 c 6
 535 375 l 6
 535 361 524 350 510 350 c 4
510 0 m 4
 410 0 316 39 245 110 c 4
 174 181 135 275 135 375 c 4
 135 457 161 536 211 601 c 4
 259 665 327 712 403 735 c 4
 416 738 430 731 434 718 c 4
 438 705 430 691 417 687 c 4
 281 646 185 518 185 375 c 4
 185 196 331 50 510 50 c 4
 689 50 835 196 835 375 c 4
 835 518 740 646 603 687 c 4
 590 691 582 704 586 718 c 4
 590 731 604 738 617 735 c 4
 693 712 761 665 809 601 c 4
 859 536 885 457 885 375 c 4
 885 275 846 181 775 110 c 4
 704 39 610 0 510 0 c 4
EndSplineSet
EndChar

StartChar: msg
Encoding: 64 59455 64
Width: 1000
Flags: W
HStem: 0 21G<47.5 79> 100 50<320.331 650.051> 800 50<355.983 650.051>
VStem: 28 50<373.929 573.758> 928 50<375.209 573.758>
LayerCount: 2
Fore
SplineSet
53 0 m 4
 42 0 32 7 29 18 c 4
 26 29 31 41 40 46 c 4
 125 97 160 171 172 205 c 5
 80 276 28 373 28 475 c 4
 28 527 41 576 66 623 c 4
 91 668 125 708 170 742 c 4
 259 812 377 850 503 850 c 4
 629 850 747 812 837 742 c 4
 881 708 915 668 940 623 c 4
 965 576 978 527 978 475 c 4
 978 424 965 374 940 327 c 4
 915 282 881 242 837 208 c 4
 747 138 629 100 503 100 c 4
 451 100 401 107 352 119 c 5
 331 105 291 80 243 56 c 4
 168 19 105 0 53 0 c 4
503 800 m 4
 269 800 78 654 78 475 c 4
 78 384 128 297 216 235 c 4
 224 229 228 219 226 209 c 4
 220 187 200 127 147 69 c 5
 212 92 282 131 334 167 c 4
 340 171 347 173 355 170 c 4
 402 157 452 150 503 150 c 4
 737 150 928 296 928 475 c 4
 928 654 737 800 503 800 c 4
EndSplineSet
EndChar

StartChar: heart-pulse
Encoding: 65 59456 65
Width: 1000
Flags: W
HStem: 0 21G<504 508> 300 50<131.198 255.505 740.998 880.802> 800 50<202.585 377.996 634.556 809.839>
VStem: 31 50<471.801 678.839> 931 50<470.607 678.839>
LayerCount: 2
Fore
SplineSet
506 0 m 4
 502 0 498 1 494 3 c 4
 488 6 350 84 225 207 c 4
 216 217 216 233 225 243 c 4
 234 253 251 253 261 243 c 4
 360 145 470 75 506 54 c 5
 542 75 653 145 751 243 c 4
 761 253 777 252 787 243 c 4
 797 233 796 217 787 207 c 4
 662 84 524 6 518 3 c 4
 514 1 510 0 506 0 c 4
95 400 m 4
 86 400 77 405 72 414 c 4
 45 473 31 531 31 588 c 4
 31 732 149 850 294 850 c 4
 343 850 395 832 440 798 c 4
 467 779 489 755 506 730 c 5
 523 755 545 779 572 798 c 4
 618 832 670 850 719 850 c 4
 863 850 981 732 981 588 c 4
 981 531 967 473 940 414 c 4
 934 402 919 397 906 402 c 4
 894 408 889 423 895 436 c 4
 919 487 931 538 931 588 c 4
 931 705 836 800 719 800 c 4
 633 800 551 730 530 667 c 4
 526 657 517 650 506 650 c 4
 495 650 486 657 482 667 c 4
 461 730 379 800 294 800 c 4
 176 800 81 705 81 588 c 4
 81 538 93 487 118 436 c 4
 123 423 118 408 106 402 c 4
 102 401 99 400 95 400 c 4
557 200 m 6
 557 200 556 200 556 200 c 6
 546 200 528 205 518 238 c 6
 458 455 l 5
 417 291 l 6
 409 259 391 252 381 251 c 4
 371 250 351 252 336 282 c 6
 306 343 l 6
 305 345 303 347 302 348 c 5
 283 321 242 300 206 300 c 6
 156 300 l 6
 142 300 131 311 131 325 c 4
 131 339 142 350 156 350 c 6
 206 350 l 6
 227 350 252 364 260 376 c 4
 272 392 288 401 305 400 c 4
 324 398 340 386 351 365 c 6
 373 320 l 5
 420 511 l 6
 428 543 444 550 456 550 c 4
 468 550 485 544 494 512 c 6
 558 283 l 5
 617 463 l 6
 627 495 646 500 656 501 c 4
 666 501 686 497 698 467 c 6
 735 381 l 6
 741 365 764 350 781 350 c 6
 856 350 l 6
 870 350 881 339 881 325 c 4
 881 311 870 300 856 300 c 6
 781 300 l 6
 744 300 703 327 689 361 c 6
 659 432 l 5
 595 237 l 6
 585 205 567 200 557 200 c 6
EndSplineSet
EndChar

StartChar: construction
Encoding: 66 59457 66
Width: 1000
Flags: W
HStem: 1 50<50.1976 75 275 299.802 700.198 725 925 949.802>
LayerCount: 2
Fore
SplineSet
1000 601 m 5
 1000 676 l 6
 1000 690 989 701 975 701 c 6
 800 701 l 5
 550 701 l 5
 300 701 l 5
 25 701 l 6
 11 701 0 690 0 676 c 6
 0 376 l 6
 0 362 11 351 25 351 c 6
 100 351 l 5
 100 51 l 5
 75 51 l 6
 61 51 50 40 50 26 c 4
 50 12 61 1 75 1 c 6
 275 1 l 6
 289 1 300 12 300 26 c 4
 300 40 289 51 275 51 c 6
 250 51 l 5
 250 201 l 5
 750 201 l 5
 750 51 l 5
 725 51 l 6
 711 51 700 40 700 26 c 4
 700 12 711 1 725 1 c 6
 925 1 l 6
 939 1 950 12 950 26 c 4
 950 40 939 51 925 51 c 6
 900 51 l 5
 900 351 l 5
 975 351 l 6
 989 351 1000 362 1000 376 c 6
 1000 601 l 5
950 611 m 5
 740 401 l 5
 560 401 l 5
 810 651 l 5
 950 651 l 5
 950 611 l 5
310 401 m 5
 560 651 l 5
 740 651 l 5
 490 401 l 5
 310 401 l 5
60 401 m 5
 310 651 l 5
 490 651 l 5
 240 401 l 5
 60 401 l 5
240 651 m 5
 50 461 l 5
 50 651 l 5
 240 651 l 5
150 51 m 5
 150 351 l 5
 200 351 l 5
 200 51 l 5
 150 51 l 5
250 251 m 5
 250 351 l 5
 750 351 l 5
 750 251 l 5
 250 251 l 5
850 51 m 5
 800 51 l 5
 800 351 l 5
 850 351 l 5
 850 51 l 5
810 401 m 5
 950 541 l 5
 950 401 l 5
 810 401 l 5
EndSplineSet
EndChar

StartChar: pie
Encoding: 67 59458 67
Width: 1000
Flags: W
HStem: -100 50<326.141 571.976> 300 50<473 822> 400 50<573 922>
VStem: 23 50<202.983 448.844> 423 50<350 699> 523 50<450 799>
LayerCount: 2
Fore
SplineSet
448 -100 m 4
 335 -100 228 -56 148 24 c 4
 68 104 23 212 23 325 c 4
 23 439 67 545 148 626 c 4
 229 707 335 750 448 750 c 4
 462 750 473 739 473 725 c 6
 473 350 l 5
 848 350 l 6
 862 350 873 339 873 325 c 4
 873 212 829 105 749 24 c 4
 669 -57 562 -100 448 -100 c 4
423 699 m 5
 228 686 73 523 73 325 c 4
 73 118 241 -50 448 -50 c 4
 646 -50 809 105 822 300 c 5
 448 300 l 6
 434 300 423 311 423 325 c 6
 423 699 l 5
948 400 m 6
 548 400 l 6
 534 400 523 411 523 425 c 6
 523 825 l 6
 523 839 534 850 548 850 c 4
 662 850 768 806 849 726 c 4
 930 646 973 539 973 425 c 4
 973 411 962 400 948 400 c 6
573 450 m 5
 922 450 l 5
 910 637 760 787 573 799 c 5
 573 450 l 5
EndSplineSet
EndChar

StartChar: chart
Encoding: 68 59459 68
Width: 1000
Flags: W
HStem: -99 50<79.1084 926.892> 51 50<278 328 478 528 678 728> 301 50<678 728> 501 50<278 328> 651 50<478 528> 801 50<79.1084 926.892>
VStem: 28 50<-47.8916 799.892> 228 50<101 501> 328 50<101 501> 428 50<101 651> 528 50<101 651> 628 50<101 301> 728 50<101 301> 928 50<-47.8916 799.892>
LayerCount: 2
Fore
SplineSet
903 -99 m 6
 103 -99 l 6
 62 -99 28 -65 28 -24 c 6
 28 776 l 6
 28 817 62 851 103 851 c 6
 903 851 l 6
 944 851 978 817 978 776 c 6
 978 -24 l 6
 978 -65 944 -99 903 -99 c 6
103 801 m 6
 89 801 78 790 78 776 c 6
 78 -24 l 6
 78 -38 89 -49 103 -49 c 6
 903 -49 l 6
 917 -49 928 -38 928 -24 c 6
 928 776 l 6
 928 790 917 801 903 801 c 6
 103 801 l 6
353 51 m 6
 253 51 l 6
 239 51 228 62 228 76 c 6
 228 526 l 6
 228 540 239 551 253 551 c 6
 353 551 l 6
 367 551 378 540 378 526 c 6
 378 76 l 6
 378 62 367 51 353 51 c 6
278 101 m 5
 328 101 l 5
 328 501 l 5
 278 501 l 5
 278 101 l 5
553 51 m 6
 453 51 l 6
 439 51 428 62 428 76 c 6
 428 676 l 6
 428 690 439 701 453 701 c 6
 553 701 l 6
 567 701 578 690 578 676 c 6
 578 76 l 6
 578 62 567 51 553 51 c 6
478 101 m 5
 528 101 l 5
 528 651 l 5
 478 651 l 5
 478 101 l 5
753 51 m 6
 653 51 l 6
 639 51 628 62 628 76 c 6
 628 326 l 6
 628 340 639 351 653 351 c 6
 753 351 l 6
 767 351 778 340 778 326 c 6
 778 76 l 6
 778 62 767 51 753 51 c 6
678 101 m 5
 728 101 l 5
 728 301 l 5
 678 301 l 5
 678 101 l 5
EndSplineSet
EndChar

StartChar: gift
Encoding: 69 59460 69
Width: 1000
Flags: W
HStem: -100 50<125.108 149 849 872.892> 450 200<24.1976 49 258 299 699 740 949 973.802> 600 50<247.417 299 699 750.583> 800 50<247.495 360.88 637.54 750.505>
VStem: 74 50<-48.8916 -25> 174 50<673.362 776.505> 774 50<673.362 776.505> 874 50<-48.8916 -25>
LayerCount: 2
Fore
SplineSet
949 650 m 6xdf
 799 650 l 5
 815 671 824 697 824 725 c 4
 824 794 768 850 699 850 c 4
 630 850 571 795 543 762 c 4
 525 742 511 721 499 700 c 5
 488 721 473 742 455 762 c 4
 427 795 369 850 299 850 c 4
 230 850 174 794 174 725 c 4
 174 697 183 671 199 650 c 5xbf
 49 650 l 6
 35 650 24 639 24 625 c 6
 24 475 l 6
 24 461 35 450 49 450 c 6
 74 450 l 5
 74 -25 l 6
 74 -66 108 -100 149 -100 c 6
 849 -100 l 6
 890 -100 924 -66 924 -25 c 6
 924 450 l 5
 949 450 l 6
 963 450 974 461 974 475 c 6
 974 625 l 6
 974 639 963 650 949 650 c 6xdf
580 729 m 4
 620 774 663 800 699 800 c 4
 740 800 774 766 774 725 c 4
 774 684 740 650 699 650 c 6xdf
 530 650 l 5
 539 672 556 702 580 729 c 4
574 -50 m 5
 424 -50 l 5
 424 600 l 5
 574 600 l 5xbf
 574 -50 l 5
224 725 m 4
 224 766 258 800 299 800 c 4
 335 800 379 774 418 729 c 4
 442 702 459 672 468 650 c 5xbf
 299 650 l 6xdf
 258 650 224 684 224 725 c 4
74 600 m 5
 374 600 l 5
 374 500 l 5
 74 500 l 5
 74 600 l 5
124 -25 m 6
 124 450 l 5
 374 450 l 5xdf
 374 -50 l 5
 149 -50 l 6
 135 -50 124 -39 124 -25 c 6
874 -25 m 6
 874 -39 863 -50 849 -50 c 6
 624 -50 l 5
 624 450 l 5
 874 450 l 5
 874 -25 l 6
924 500 m 5
 624 500 l 5
 624 600 l 5
 924 600 l 5xbf
 924 500 l 5
EndSplineSet
EndChar

StartChar: diamond
Encoding: 70 59461 70
Width: 1000
Flags: W
LayerCount: 2
Fore
SplineSet
971 559 m 6
 821 759 l 6
 817 764 812 768 805 769 c 6
 505 819 l 6
 502 819 500 819 497 819 c 6
 197 769 l 6
 191 768 185 764 181 759 c 6
 31 559 l 6
 24 549 24 536 32 527 c 6
 482 27 l 6
 487 22 494 19 501 19 c 4
 508 19 515 22 520 27 c 6
 970 527 l 6
 978 536 978 549 971 559 c 6
665 569 m 5
 501 117 l 5
 337 569 l 5
 665 569 l 5
361 619 m 5
 501 759 l 5
 641 619 l 5
 361 619 l 5
574 757 m 5
 759 726 l 5
 697 633 l 5
 574 757 l 5
305 633 m 5
 243 726 l 5
 428 757 l 5
 305 633 l 5
260 611 m 5
 110 581 l 5
 200 701 l 5
 260 611 l 5
285 565 m 5
 434 156 l 5
 99 528 l 5
 285 565 l 5
717 565 m 5
 903 528 l 5
 568 156 l 5
 717 565 l 5
743 611 m 5
 802 701 l 5
 892 581 l 5
 743 611 l 5
EndSplineSet
EndChar

StartChar: share
Encoding: 71 59462 71
Width: 989
Flags: W
HStem: -46.5059 47.1572<723.569 843.54> 189.283 47.1582<722.972 841.813> 260.435 46.3311<227.027 347.131> 495.397 47.1572<227.027 347.223> 565.719 47.9854<722.127 843.54> 802.336 47.1592<723.569 841.813>
VStem: 146.558 46.3311<340.578 461.664> 381.521 47.9854<340.886 461.276> 641.303 47.1582<35.9319 151.058 651.759 767.057> 877.092 47.1592<34.2045 154.176 648.399 768.63>
LayerCount: 2
Fore
SplineSet
782.776367188 189.283203125 m 4
 729.827148438 189.283203125 688.4609375 147.08984375 688.4609375 94.9677734375 c 4
 688.4609375 42.8466796875 729.827148438 0.6513671875 782.776367188 0.6513671875 c 4
 835.725585938 0.6513671875 877.091796875 42.0185546875 877.091796875 94.9677734375 c 4
 877.091796875 147.91796875 834.8984375 189.283203125 782.776367188 189.283203125 c 4
287.204101562 495.397460938 m 4
 235.083007812 495.397460938 192.888671875 454.030273438 192.888671875 401.081054688 c 4
 192.888671875 348.131835938 235.083007812 306.765625 287.204101562 306.765625 c 4
 339.327148438 306.765625 381.520507812 348.958984375 381.520507812 401.081054688 c 4
 381.520507812 453.202148438 340.154296875 495.397460938 287.204101562 495.397460938 c 4
782.776367188 802.3359375 m 4
 729.827148438 802.3359375 688.4609375 760.142578125 688.4609375 708.020507812 c 4
 688.4609375 655.071289062 729.827148438 613.704101562 782.776367188 613.704101562 c 4
 835.725585938 613.704101562 877.091796875 655.071289062 877.091796875 708.020507812 c 4
 877.091796875 760.969726562 834.8984375 802.3359375 782.776367188 802.3359375 c 4
782.776367188 849.495117188 m 4
 860.545898438 849.495117188 924.250976562 785.790039062 924.250976562 707.193359375 c 4
 924.250976562 629.423828125 860.545898438 565.71875 782.776367188 565.71875 c 4
 740.583007812 565.71875 702.525390625 584.748046875 676.051757812 614.532226562 c 5
 412.1328125 468.094726562 l 5
 422.88671875 448.23828125 429.505859375 425.072265625 429.505859375 401.081054688 c 4
 429.505859375 377.087890625 422.88671875 353.922851562 412.1328125 334.067382812 c 5
 676.051757812 187.629882812 l 5
 702.525390625 217.413085938 740.583007812 236.44140625 782.776367188 236.44140625 c 4
 860.545898438 236.44140625 924.250976562 172.737304688 924.250976562 94.9677734375 c 4
 924.250976562 17.19921875 860.545898438 -46.505859375 782.776367188 -46.505859375 c 4
 705.006835938 -46.505859375 641.302734375 17.19921875 641.302734375 94.9677734375 c 4
 641.302734375 113.997070312 644.611328125 131.370117188 651.23046875 147.91796875 c 5
 383.174804688 296.836914062 l 5
 357.52734375 273.671875 324.435546875 260.434570312 288.032226562 260.434570312 c 4
 210.262695312 260.434570312 146.557617188 324.138671875 146.557617188 401.081054688 c 4
 146.557617188 478.021484375 210.262695312 542.5546875 288.032226562 542.5546875 c 4
 324.435546875 542.5546875 357.52734375 528.489257812 382.34765625 506.151367188 c 5
 651.23046875 655.071289062 l 5
 644.611328125 671.618164062 641.302734375 688.993164062 641.302734375 708.020507812 c 4
 641.302734375 785.790039062 705.006835938 849.495117188 782.776367188 849.495117188 c 4
EndSplineSet
EndChar

StartChar: dinner
Encoding: 72 59463 72
Width: 1000
Flags: W
HStem: -150 50<289.697 362.349 739.697 812.349> 501 50<221.852 300 353 430.251>
VStem: 201 50<670.384 849.802> 301 50<289.42 501 775 799.802> 401 50<673.664 849.802> 751 50<402.58 575>
LayerCount: 2
Fore
SplineSet
451 825 m 4
 451 839 440 850 426 850 c 4
 412 850 401 839 401 825 c 4
 401 760 414 705 424 661 c 4
 434 619 441 585 430 571 c 4
 421 559 394 552 351 551 c 5
 351 559 351 567 351 575 c 6
 351 775 l 6
 351 789 340 800 326 800 c 4
 312 800 301 789 301 775 c 6
 301 575 l 6
 301 567 301 559 301 551 c 5
 258 552 231 559 222 571 c 4
 211 585 219 619 228 662 c 4
 238 705 251 760 251 825 c 4
 251 839 240 850 226 850 c 4
 212 850 201 839 201 825 c 4
 201 766 189 714 180 673 c 4
 167 617 157 573 183 540 c 4
 202 515 238 503 300 501 c 5
 294 361 274 241 257 142 c 4
 235 10 220 -78 258 -122 c 4
 273 -141 296 -150 326 -150 c 4
 356 -150 379 -141 395 -122 c 4
 432 -78 417 10 395 142 c 4
 378 241 358 361 353 501 c 5
 414 503 450 515 469 540 c 4
 496 573 485 617 473 673 c 4
 463 714 451 765 451 825 c 4
356 -90 m 4
 353 -94 346 -100 326 -100 c 4
 306 -100 299 -94 296 -90 c 4
 273 -63 288 28 306 133 c 4
 313 172 320 213 326 257 c 5
 333 213 339 172 346 134 c 4
 364 28 379 -63 356 -90 c 4
845 142 m 4
 826 259 801 404 801 575 c 6
 801 825 l 6
 801 836 793 846 782 849 c 4
 772 852 760 847 754 837 c 4
 653 661 604 391 601 380 c 4
 600 372 602 365 607 359 c 4
 612 353 619 350 626 350 c 6
 738 350 l 5
 729 273 717 203 707 142 c 4
 685 10 670 -78 708 -122 c 4
 723 -141 746 -150 776 -150 c 4
 806 -150 829 -141 845 -122 c 4
 882 -78 867 10 845 142 c 4
657 400 m 5
 669 459 701 594 751 716 c 5
 751 575 l 6
 751 513 748 455 743 400 c 5
 657 400 l 5
806 -90 m 4
 803 -94 796 -100 776 -100 c 4
 756 -100 749 -94 746 -90 c 4
 723 -63 738 28 756 133 c 4
 763 172 770 213 776 257 c 5
 783 213 789 172 796 134 c 4
 814 28 829 -63 806 -90 c 4
EndSplineSet
EndChar

StartChar: coffee
Encoding: 73 59464 73
Width: 1000
Flags: W
HStem: -150 50<306.92 334 684 711.092> -20 20G<300 718> 100 50<447.28 570.72> 350 50<447.28 570.72> 800 50<275.263 309 709 742.737>
VStem: 159 50<601.391 625 675 699.328> 359 50<188.28 311.72> 609 50<188.28 311.72> 809 50<601.391 625 675 699.328>
LayerCount: 2
Fore
SplineSet
509 100 m 4
 426 100 359 167 359 250 c 4
 359 333 426 400 509 400 c 4
 592 400 659 333 659 250 c 4
 659 167 592 100 509 100 c 4
509 350 m 4
 454 350 409 305 409 250 c 4
 409 195 454 150 509 150 c 4
 564 150 609 195 609 250 c 4
 609 305 564 350 509 350 c 4
804 747 m 5
 795 783 l 6
 786 820 748 850 709 850 c 6
 309 850 l 6
 270 850 232 820 223 783 c 6
 214 747 l 5
 182 738 159 709 159 675 c 6
 159 625 l 6
 159 592 181 564 210 554 c 5
 256 -77 l 6
 258 -117 294 -150 334 -150 c 6
 684 -150 l 6
 724 -150 760 -117 763 -77 c 6
 808 554 l 5
 837 564 859 592 859 625 c 6
 859 675 l 6
 859 709 836 738 804 747 c 5
309 800 m 6
 709 800 l 6
 725 800 743 786 747 770 c 6
 752 750 l 5
 266 750 l 5
 271 770 l 6
 275 786 293 800 309 800 c 6
754 500 m 5
 264 500 l 5
 261 550 l 5
 757 550 l 5
 754 500 l 5
721 50 m 5
 297 50 l 5
 268 450 l 5
 750 450 l 5
 721 50 l 5
684 -100 m 6
 334 -100 l 6
 320 -100 306 -88 305 -73 c 6
 300 0 l 5
 718 0 l 5
 713 -73 l 6
 712 -88 699 -100 684 -100 c 6
809 625 m 6
 809 611 798 600 784 600 c 6
 234 600 l 6
 220 600 209 611 209 625 c 6
 209 675 l 6
 209 689 220 700 234 700 c 5
 784 700 l 6
 798 700 809 689 809 675 c 6
 809 625 l 6
EndSplineSet
EndChar

StartChar: leaf
Encoding: 74 59465 74
Width: 1000
Flags: W
LayerCount: 2
Fore
SplineSet
994 841 m 0
 989 847 982 850 975 850 c 2
 950 850 l 2
 698 850 499 850 352 815 c 0
 273 796 212 768 166 728 c 0
 116 685 81 629 61 557 c 0
 48 509 41 422 68 335 c 0
 78 303 93 273 113 245 c 1
 53 150 0 24 0 -125 c 0
 0 -139 11 -150 25 -150 c 0
 39 -150 50 -139 50 -125 c 0
 50 105 186 276 268 357 c 0
 326 416 392 465 459 500 c 0
 520 532 580 550 625 550 c 0
 639 550 650 561 650 575 c 0
 650 589 639 600 625 600 c 0
 571 600 505 581 435 544 c 0
 364 507 294 455 232 393 c 0
 206 367 175 332 144 289 c 1
 132 308 122 328 116 350 c 0
 91 431 100 510 109 543 c 0
 181 800 452 800 945 800 c 1
 886 486 777 282 619 195 c 0
 473 114 328 158 273 181 c 0
 261 186 249 192 238 199 c 0
 226 206 211 202 204 190 c 0
 197 178 200 163 212 156 c 0
 226 147 240 140 254 135 c 0
 285 122 335 106 397 100 c 0
 411 99 424 99 438 99 c 0
 511 99 580 116 644 151 c 0
 724 196 794 268 851 366 c 0
 917 482 967 635 1000 821 c 0
 1001 828 999 836 994 841 c 0
EndSplineSet
EndChar

StartChar: pet
Encoding: 75 59466 75
Width: 1000
Flags: W
HStem: 1 50<307.323 413.953 612.047 718.677> 51 50<437.047 588.365> 301 50<159.505 217.682 809.505 867.682> 401 50<437.382 588.618> 501 50<358.318 417.682 608.318 667.682> 552 50<158.318 218.164 808.318 868.164> 751 50<358.318 417.682 608.318 667.682>
VStem: 88 50<371.847 531.696> 238 50<370.379 533.154> 288 50<571.526 730.474> 438 50<571.526 730.474> 538 50<571.526 730.474> 688 50<571.526 730.474> 738 50<371.847 531.696> 888 50<370.379 533.154>
LayerCount: 2
Fore
SplineSet
188 301 m 4x3fb2
 132 301 88 367 88 452 c 4
 88 537 132 602 188 602 c 4
 244 602 288 536 288 452 c 4
 288 368 244 301 188 301 c 4x3fb2
188 552 m 4
 164 552 138 509 138 452 c 4
 138 395 164 351 188 351 c 4
 212 351 238 394 238 452 c 4
 238 510 212 552 188 552 c 4
388 501 m 4
 332 501 288 567 288 651 c 4x3f72
 288 735 332 801 388 801 c 4
 444 801 488 735 488 651 c 4
 488 567 444 501 388 501 c 4
388 751 m 4
 364 751 338 708 338 651 c 4
 338 594 364 551 388 551 c 4
 412 551 438 594 438 651 c 4
 438 708 412 751 388 751 c 4
638 501 m 4
 582 501 538 567 538 651 c 4
 538 735 582 801 638 801 c 4
 694 801 738 735 738 651 c 4x3f3a
 738 567 694 501 638 501 c 4
638 751 m 4
 614 751 588 708 588 651 c 4
 588 594 614 551 638 551 c 4
 662 551 688 594 688 651 c 4
 688 708 662 751 638 751 c 4
838 301 m 4
 782 301 738 367 738 452 c 4x3f36
 738 537 782 602 838 602 c 4
 894 602 938 536 938 452 c 4
 938 368 894 301 838 301 c 4
838 552 m 4
 814 552 788 509 788 452 c 4
 788 395 814 351 838 351 c 4
 862 351 888 394 888 452 c 4
 888 510 862 552 838 552 c 4
688 1 m 4xbf7a
 645 1 615 16 589 29 c 4
 565 41 545 51 513 51 c 4x7f7a
 482 51 461 41 437 29 c 4
 411 16 381 1 338 1 c 4
 310 1 284 16 266 42 c 4
 235 89 234 159 265 235 c 4
 320 372 410 451 513 451 c 4
 616 451 706 372 761 235 c 4
 792 159 791 89 760 42 c 4
 742 16 716 1 688 1 c 4xbf7a
513 101 m 4
 557 101 586 86 612 73 c 4
 636 61 656 51 688 51 c 4
 699 51 710 58 718 71 c 4
 740 102 739 157 715 217 c 4
 668 334 594 401 513 401 c 4
 432 401 358 334 311 217 c 4
 287 157 286 102 308 71 c 4
 316 58 327 51 338 51 c 4xbf7a
 370 51 390 61 414 73 c 4
 440 86 470 101 513 101 c 4
EndSplineSet
EndChar

StartChar: rocket
Encoding: 76 59467 76
Width: 1000
Flags: W
LayerCount: 2
Fore
SplineSet
675 400 m 0
 606 400 550 456 550 525 c 0
 550 594 606 650 675 650 c 0
 744 650 800 594 800 525 c 0
 800 456 744 400 675 400 c 0
675 600 m 0
 634 600 600 566 600 525 c 0
 600 484 634 450 675 450 c 0
 716 450 750 484 750 525 c 0
 750 566 716 600 675 600 c 0
25 -150 m 0
 19 -150 12 -147 7 -143 c 0
 1 -136 -2 -126 2 -117 c 0
 78 95 159 202 242 202 c 0
 269 202 295 191 318 168 c 0
 354 131 355 95 350 71 c 0
 333 -4 227 -78 34 -149 c 0
 31 -150 28 -150 25 -150 c 0
242 152 m 0
 217 152 188 131 158 90 c 0
 128 49 98 -8 68 -82 c 1
 135 -55 189 -28 228 -1 c 0
 282 36 297 65 301 82 c 0
 305 99 299 116 282 132 c 0
 269 146 256 152 242 152 c 0
975 850 m 2
 845 850 730 828 631 785 c 0
 550 749 481 699 425 635 c 0
 415 624 405 612 396 600 c 1
 353 597 309 580 265 549 c 0
 228 522 190 486 154 441 c 0
 92 365 54 289 53 286 c 0
 47 275 50 262 60 255 c 0
 65 252 70 250 75 250 c 0
 81 250 88 253 93 257 c 0
 93 258 117 281 158 304 c 0
 191 323 243 345 306 349 c 1
 321 309 367 260 389 239 c 0
 410 217 459 171 499 156 c 1
 495 93 473 41 454 8 c 0
 431 -33 408 -57 407 -57 c 0
 399 -66 398 -80 405 -90 c 0
 410 -96 417 -100 425 -100 c 0
 429 -100 433 -99 436 -97 c 0
 439 -96 515 -58 591 4 c 0
 636 40 672 78 699 115 c 0
 730 159 747 203 750 246 c 1
 762 255 774 265 785 275 c 0
 849 331 899 400 935 481 c 0
 978 580 1000 695 1000 825 c 2
 1000 850 l 1
 975 850 l 2
155 360 m 1
 203 429 276 515 358 542 c 1
 326 485 309 432 303 399 c 1
 245 396 195 379 155 360 c 1
510 6 m 1
 529 45 546 95 549 153 c 1
 582 159 635 176 691 208 c 1
 664 126 579 53 510 6 c 1
752 313 m 0
 648 221 541 200 525 200 c 1
 525 200 515 200 487 220 c 0
 468 233 445 253 424 274 c 0
 403 295 383 318 370 337 c 0
 350 365 350 375 350 375 c 1
 350 391 371 498 463 602 c 0
 572 727 740 795 950 800 c 1
 945 590 877 422 752 313 c 0
EndSplineSet
EndChar

StartChar: briefcase
Encoding: 77 59468 77
Width: 1000
Flags: W
LayerCount: 2
Fore
SplineSet
925 600 m 2
 700 600 l 1
 700 675 l 2
 700 716 666 750 625 750 c 2
 375 750 l 2
 334 750 300 716 300 675 c 2
 300 600 l 1
 75 600 l 2
 34 600 0 566 0 525 c 2
 0 -25 l 2
 0 -66 34 -100 75 -100 c 2
 925 -100 l 2
 966 -100 1000 -66 1000 -25 c 2
 1000 525 l 2
 1000 566 966 600 925 600 c 2
350 675 m 2
 350 689 361 700 375 700 c 2
 625 700 l 2
 639 700 650 689 650 675 c 2
 650 600 l 1
 350 600 l 1
 350 675 l 2
75 550 m 2
 925 550 l 2
 939 550 950 539 950 525 c 2
 950 150 l 1
 850 150 l 1
 850 175 l 2
 850 189 839 200 825 200 c 2
 725 200 l 2
 711 200 700 189 700 175 c 2
 700 150 l 1
 300 150 l 1
 300 175 l 2
 300 189 289 200 275 200 c 2
 175 200 l 2
 161 200 150 189 150 175 c 2
 150 150 l 1
 50 150 l 1
 50 525 l 2
 50 539 61 550 75 550 c 2
800 150 m 1
 800 100 l 1
 750 100 l 1
 750 150 l 1
 800 150 l 1
250 150 m 1
 250 100 l 1
 200 100 l 1
 200 150 l 1
 250 150 l 1
925 -50 m 2
 75 -50 l 2
 61 -50 50 -39 50 -25 c 2
 50 100 l 1
 150 100 l 1
 150 75 l 2
 150 61 161 50 175 50 c 2
 275 50 l 2
 289 50 300 61 300 75 c 2
 300 100 l 1
 700 100 l 1
 700 75 l 2
 700 61 711 50 725 50 c 2
 825 50 l 2
 839 50 850 61 850 75 c 2
 850 100 l 1
 950 100 l 1
 950 -25 l 2
 950 -39 939 -50 925 -50 c 2
EndSplineSet
EndChar

StartChar: bus
Encoding: 78 59469 78
Width: 1000
Flags: W
HStem: -150 50<250 300 700 750> 50 50<250.653 299.347 700.653 749.347> 150 50<250.653 299.347 700.653 749.347> 600 50<300.198 699.802> 750 50<285.92 714.08>
VStem: 100 50<23.4173 75 625 673.778> 200 50<-100 -50 100.653 149.347> 300 50<-100 -50 100.653 149.347> 650 50<-100 -50 100.653 149.347> 750 50<-100 -50 100.653 149.347> 850 50<23.4173 75 625 673.778>
LayerCount: 2
Fore
SplineSet
275 50 m 4
 234 50 200 84 200 125 c 4
 200 166 234 200 275 200 c 4
 316 200 350 166 350 125 c 4
 350 84 316 50 275 50 c 4
275 150 m 4
 261 150 250 139 250 125 c 4
 250 111 261 100 275 100 c 4
 289 100 300 111 300 125 c 4
 300 139 289 150 275 150 c 4
725 50 m 4
 684 50 650 84 650 125 c 4
 650 166 684 200 725 200 c 4
 766 200 800 166 800 125 c 4
 800 84 766 50 725 50 c 4
725 150 m 4
 711 150 700 139 700 125 c 4
 700 111 711 100 725 100 c 4
 739 100 750 111 750 125 c 4
 750 139 739 150 725 150 c 4
675 600 m 6
 325 600 l 6
 311 600 300 611 300 625 c 4
 300 639 311 650 325 650 c 6
 675 650 l 6
 689 650 700 639 700 625 c 4
 700 611 689 600 675 600 c 6
775 550 m 6
 225 550 l 6
 211 550 200 539 200 525 c 6
 200 275 l 6
 200 261 211 250 225 250 c 6
 475 250 l 5
 725 250 l 5
 775 250 l 6
 789 250 800 261 800 275 c 6
 800 525 l 6
 800 539 789 550 775 550 c 6
250 500 m 5
 750 500 l 5
 750 300 l 5
 733 300 l 5
 589 396 l 6
 577 404 562 400 554 389 c 4
 547 377 550 362 561 354 c 6
 642 300 l 5
 483 300 l 5
 339 396 l 6
 327 404 312 400 304 389 c 4
 297 377 300 362 311 354 c 6
 392 300 l 5
 250 300 l 5
 250 500 l 5
781 761 m 4
 713 787 618 800 500 800 c 4
 382 800 287 787 219 761 c 4
 121 723 100 666 100 625 c 6
 100 75 l 6
 100 15 143 -36 200 -48 c 5
 200 -100 l 6
 200 -128 222 -150 250 -150 c 6
 300 -150 l 6
 328 -150 350 -128 350 -100 c 6
 350 -50 l 5
 650 -50 l 5
 650 -100 l 6
 650 -128 672 -150 700 -150 c 6
 750 -150 l 6
 778 -150 800 -128 800 -100 c 6
 800 -48 l 5
 857 -36 900 15 900 75 c 6
 900 625 l 6
 900 666 879 723 781 761 c 4
300 -100 m 5
 250 -100 l 5
 250 -50 l 5
 300 -50 l 5
 300 -100 l 5
700 -100 m 5
 700 -50 l 5
 750 -50 l 5
 750 -100 l 5
 700 -100 l 5
850 75 m 6
 850 34 816 0 775 0 c 6
 225 0 l 6
 184 0 150 34 150 75 c 6
 150 625 l 6
 150 662 179 692 237 714 c 4
 299 738 390 750 500 750 c 4
 610 750 701 738 763 714 c 4
 821 692 850 662 850 625 c 6
 850 75 l 6
EndSplineSet
EndChar

StartChar: car
Encoding: 79 59470 79
Width: 1000
Flags: W
LayerCount: 2
Fore
SplineSet
275 50 m 0
 234 50 200 84 200 125 c 0
 200 166 234 200 275 200 c 0
 316 200 350 166 350 125 c 0
 350 84 316 50 275 50 c 0
275 150 m 0
 261 150 250 139 250 125 c 0
 250 111 261 100 275 100 c 0
 289 100 300 111 300 125 c 0
 300 139 289 150 275 150 c 0
725 50 m 0
 684 50 650 84 650 125 c 0
 650 166 684 200 725 200 c 0
 766 200 800 166 800 125 c 0
 800 84 766 50 725 50 c 0
725 150 m 0
 711 150 700 139 700 125 c 0
 700 111 711 100 725 100 c 0
 739 100 750 111 750 125 c 0
 750 139 739 150 725 150 c 0
848 255 m 1
 841 294 820 415 797 461 c 0
 782 492 743 515 681 531 c 0
 631 543 567 550 500 550 c 0
 433 550 369 543 319 531 c 0
 257 515 218 492 203 461 c 0
 180 415 159 294 152 255 c 1
 117 231 100 196 100 150 c 2
 100 25 l 2
 100 -8 121 -35 150 -46 c 1
 150 -100 l 2
 150 -128 172 -150 200 -150 c 2
 250 -150 l 2
 278 -150 300 -128 300 -100 c 2
 300 -50 l 1
 700 -50 l 1
 700 -100 l 2
 700 -128 722 -150 750 -150 c 2
 800 -150 l 2
 828 -150 850 -128 850 -100 c 2
 850 -46 l 1
 879 -35 900 -8 900 25 c 2
 900 150 l 2
 900 196 883 231 848 255 c 1
247 439 m 0
 262 469 356 500 500 500 c 0
 644 500 738 469 753 439 c 0
 767 410 783 334 793 280 c 1
 788 281 783 283 778 284 c 0
 764 287 750 289 735 292 c 1
 590 395 l 2
 578 403 563 401 555 390 c 0
 547 378 549 363 560 355 c 2
 639 299 l 1
 596 300 550 300 500 300 c 0
 494 300 488 300 483 300 c 2
 339 396 l 2
 327 404 312 400 304 389 c 0
 296 378 300 362 311 354 c 2
 393 299 l 1
 326 298 268 295 222 284 c 0
 217 282 212 281 207 280 c 1
 217 334 233 410 247 439 c 0
250 -100 m 1
 200 -100 l 1
 200 -50 l 1
 250 -50 l 1
 250 -100 l 1
750 -100 m 1
 750 -50 l 1
 800 -50 l 1
 800 -100 l 1
 750 -100 l 1
850 25 m 2
 850 11 839 0 825 0 c 2
 175 0 l 2
 161 0 150 11 150 25 c 2
 150 150 l 2
 150 196 174 221 234 235 c 0
 297 250 391 250 500 250 c 0
 609 250 703 250 766 235 c 0
 826 221 850 196 850 150 c 2
 850 25 l 2
EndSplineSet
EndChar

StartChar: train
Encoding: 80 59471 80
Width: 1000
Flags: W
HStem: -20 20G<125 864> 100 50<192.573 795.427> 200 50<269.653 318.347 669.653 718.347> 300 50<269.653 318.347 669.653 718.347> 700 50<319.198 668.802> 800 50<192.573 795.427>
VStem: 119 50<173.573 776.427> 219 50<250.653 299.347> 319 50<250.653 299.347> 619 50<250.653 299.347> 719 50<250.653 299.347> 819 50<173.573 776.427>
LayerCount: 2
Fore
SplineSet
744 100 m 6
 244 100 l 6
 175 100 119 156 119 225 c 6
 119 725 l 6
 119 794 175 850 244 850 c 6
 744 850 l 6
 813 850 869 794 869 725 c 6
 869 225 l 6
 869 156 813 100 744 100 c 6
244 800 m 6
 203 800 169 766 169 725 c 6
 169 225 l 6
 169 184 203 150 244 150 c 6
 744 150 l 6
 785 150 819 184 819 225 c 6
 819 725 l 6
 819 766 785 800 744 800 c 6
 244 800 l 6
966 -114 m 6
 866 86 l 6
 860 99 845 104 833 97 c 4
 821 91 816 76 822 64 c 6
 829 50 l 5
 160 50 l 5
 166 64 l 6
 173 76 168 91 155 97 c 4
 143 104 128 99 122 86 c 6
 22 -114 l 6
 15 -126 21 -141 33 -147 c 4
 36 -149 40 -150 44 -150 c 4
 53 -150 62 -145 66 -136 c 6
 85 -100 l 5
 904 -100 l 5
 922 -136 l 6
 926 -145 935 -150 944 -150 c 4
 948 -150 952 -149 955 -147 c 4
 968 -141 973 -126 966 -114 c 6
110 -50 m 5
 135 0 l 5
 854 0 l 5
 879 -50 l 5
 110 -50 l 5
294 200 m 4
 253 200 219 234 219 275 c 4
 219 316 253 350 294 350 c 4
 335 350 369 316 369 275 c 4
 369 234 335 200 294 200 c 4
294 300 m 4
 280 300 269 289 269 275 c 4
 269 261 280 250 294 250 c 4
 308 250 319 261 319 275 c 4
 319 289 308 300 294 300 c 4
694 200 m 4
 653 200 619 234 619 275 c 4
 619 316 653 350 694 350 c 4
 735 350 769 316 769 275 c 4
 769 234 735 200 694 200 c 4
694 300 m 4
 680 300 669 289 669 275 c 4
 669 261 680 250 694 250 c 4
 708 250 719 261 719 275 c 4
 719 289 708 300 694 300 c 4
644 700 m 6
 344 700 l 6
 330 700 319 711 319 725 c 4
 319 739 330 750 344 750 c 6
 644 750 l 6
 658 750 669 739 669 725 c 4
 669 711 658 700 644 700 c 6
744 650 m 6
 244 650 l 6
 230 650 219 639 219 625 c 6
 219 425 l 6
 219 411 230 400 244 400 c 6
 744 400 l 6
 758 400 769 411 769 425 c 6
 769 625 l 6
 769 639 758 650 744 650 c 6
269 600 m 5
 469 600 l 5
 469 450 l 5
 269 450 l 5
 269 600 l 5
719 450 m 5
 519 450 l 5
 519 600 l 5
 719 600 l 5
 719 450 l 5
EndSplineSet
EndChar

StartChar: bike
Encoding: 81 59472 81
Width: 1000
Flags: W
HStem: 1 50<151.247 306.753 701.247 856.753> 351 50<151.247 306.753 701.247 856.753> 451 50<229.198 344> 551 50<279.653 328.347> 651 50<279.653 328.347>
VStem: 29 50<123.247 278.753> 229 50<601.653 650.347> 329 50<601.653 650.347> 379 50<123.247 278.753> 479 50<151.198 361.476> 579 50<123.247 278.753> 929 50<123.247 278.753>
LayerCount: 2
Fore
SplineSet
304 551 m 0xff70
 263 551 229 585 229 626 c 0
 229 667 263 701 304 701 c 0
 345 701 379 667 379 626 c 0
 379 585 345 551 304 551 c 0xff70
304 651 m 0
 290 651 279 640 279 626 c 0
 279 612 290 601 304 601 c 0
 318 601 329 612 329 626 c 0
 329 640 318 651 304 651 c 0
504 151 m 0
 490 151 479 162 479 176 c 2
 479 326 l 2
 479 365 508 403 545 414 c 2
 620 435 l 1
 457 544 l 1
 372 458 l 2
 367 454 361 451 354 451 c 2
 254 451 l 2
 240 451 229 462 229 476 c 0
 229 490 240 501 254 501 c 2
 344 501 l 1
 436 594 l 2
 445 602 458 603 468 597 c 2
 651 475 l 2
 679 456 679 435 677 426 c 0
 675 417 670 397 638 388 c 2
 559 366 l 2
 543 361 529 342 529 326 c 2
 529 176 l 2
 529 162 518 151 504 151 c 0
779 1 m 0
 669 1 579 91 579 201 c 0
 579 311 669 401 779 401 c 0
 889 401 979 311 979 201 c 0
 979 91 889 1 779 1 c 0
779 351 m 0
 696 351 629 284 629 201 c 0
 629 118 696 51 779 51 c 0
 862 51 929 118 929 201 c 0
 929 284 862 351 779 351 c 0
229 1 m 0
 119 1 29 91 29 201 c 0
 29 311 119 401 229 401 c 0
 339 401 429 311 429 201 c 0xfef0
 429 91 339 1 229 1 c 0
229 351 m 0
 146 351 79 284 79 201 c 0
 79 118 146 51 229 51 c 0
 312 51 379 118 379 201 c 0
 379 284 312 351 229 351 c 0
EndSplineSet
EndChar

StartChar: weelchair
Encoding: 82 59473 82
Width: 1000
Flags: W
HStem: -100 50<302.43 514.432> 400 50<658 682.802> 496 50<292.454 382.853> 600 50<483.742 559.505> 800 50<456.495 559.505>
VStem: 83 50<119.43 331.432> 383 50<673.254 776.505> 433 50<303.141 316> 583 50<673.495 776.505> 679 50<109.454 199.853>
LayerCount: 2
Fore
SplineSet
926 243 m 4xfdc0
 916 252 900 252 890 243 c 6
 858 210 l 5
 721 343 l 5
 721 344 720 344 720 344 c 5
 720 344 719 345 719 345 c 5
 719 345 719 345 718 346 c 6
 718 346 717 346 717 346 c 5
 717 346 717 347 716 347 c 6
 716 347 715 347 715 347 c 6
 715 348 714 348 714 348 c 5
 714 348 713 348 713 348 c 6
 712 349 712 349 712 349 c 6
 711 349 711 349 711 349 c 6
 710 349 710 349 709 349 c 5
 709 350 709 350 708 350 c 6
 708 350 707 350 707 350 c 6
 706 350 706 350 706 350 c 6
 705 350 705 350 704 350 c 6
 704 350 704 350 703 350 c 6
 703 350 702 350 702 350 c 5
 702 350 701 350 701 350 c 5
 701 350 700 350 700 350 c 6
 699 350 699 350 698 349 c 5
 501 302 l 6
 495 300 491 301 488 303 c 4
 485 306 483 310 483 316 c 6
 483 400 l 5
 658 400 l 6
 672 400 683 411 683 425 c 4
 683 439 672 450 658 450 c 6
 483 450 l 5
 483 603 l 5xfdc0
 491 601 499 600 508 600 c 4
 577 600 633 656 633 725 c 4
 633 794 577 850 508 850 c 4
 439 850 383 794 383 725 c 4xfec0
 383 684 403 648 433 625 c 5
 433 316 l 6
 433 295 442 276 457 264 c 4
 468 256 481 251 496 251 c 4
 501 251 507 252 513 253 c 6
 696 298 l 5
 841 157 l 6
 845 152 852 150 858 150 c 4
 864 150 871 152 876 157 c 6
 926 207 l 6
 935 217 935 233 926 243 c 4xfdc0
508 800 m 4
 549 800 583 766 583 725 c 4
 583 684 549 650 508 650 c 4
 467 650 433 684 433 725 c 4xfec0
 433 766 467 800 508 800 c 4
408 -100 m 4
 229 -100 83 46 83 225 c 4
 83 302 111 377 161 436 c 4
 210 494 279 533 354 546 c 4
 368 548 380 539 383 525 c 4
 385 511 376 499 362 496 c 4
 229 474 133 360 133 225 c 4
 133 73 256 -50 408 -50 c 4
 543 -50 657 46 679 179 c 4
 682 193 694 202 708 200 c 4
 722 197 731 185 729 171 c 4
 716 96 677 27 619 -22 c 4
 560 -72 485 -100 408 -100 c 4
EndSplineSet
EndChar

StartChar: select
Encoding: 83 59474 83
Width: 1000
Flags: W
HStem: 100 50<69.1084 317.802> 150 50<730 878> 800 50<69.1084 816.892>
VStem: 18 50<151.108 798.892> 368 50<-9 619> 818 50<400.198 798.892>
LayerCount: 2
Fore
SplineSet
293 100 m 6xbc
 93 100 l 6
 52 100 18 134 18 175 c 6
 18 775 l 6
 18 816 52 850 93 850 c 6
 793 850 l 6
 834 850 868 816 868 775 c 6
 868 425 l 6
 868 411 857 400 843 400 c 4
 829 400 818 411 818 425 c 6
 818 775 l 6
 818 789 807 800 793 800 c 6
 93 800 l 6
 79 800 68 789 68 775 c 6
 68 175 l 6
 68 161 79 150 93 150 c 6
 293 150 l 6
 307 150 318 139 318 125 c 4
 318 111 307 100 293 100 c 6xbc
668 -150 m 4
 658 -150 649 -144 645 -134 c 6
 560 78 l 5
 412 -92 l 6
 405 -99 394 -102 384 -98 c 4
 375 -95 368 -85 368 -75 c 6
 368 675 l 6
 368 685 374 694 383 698 c 4
 392 702 403 700 410 694 c 6
 960 194 l 6
 968 187 970 176 966 166 c 4
 962 156 953 150 943 150 c 6
 730 150 l 5x7c
 816 -66 l 6
 821 -79 815 -93 802 -98 c 6
 677 -148 l 6
 674 -149 671 -150 668 -150 c 4
568 150 m 4
 569 150 571 150 572 150 c 4
 581 148 588 142 591 134 c 6
 682 -93 l 5
 761 -61 l 5
 670 166 l 6
 667 173 668 182 672 189 c 4
 676 196 685 200 693 200 c 6
 878 200 l 5
 418 619 l 5
 418 -9 l 5
 549 142 l 6
 554 147 561 150 568 150 c 4
EndSplineSet
EndChar

StartChar: glob
Encoding: 84 59475 84
Width: 1000
Flags: W
LayerCount: 2
Fore
SplineSet
854 704 m 0
 759 798 634 850 500 850 c 0
 366 850 241 798 146 704 c 0
 52 609 0 484 0 350 c 0
 0 216 52 91 146 -4 c 0
 241 -98 366 -150 500 -150 c 0
 634 -150 759 -98 854 -4 c 0
 948 91 1000 216 1000 350 c 0
 1000 484 948 609 854 704 c 0
920 512 m 1
 910 530 886 538 854 549 c 0
 819 560 807 596 793 637 c 0
 781 672 768 709 738 732 c 1
 820 680 885 603 920 512 c 1
780 341 m 0
 783 307 787 272 745 224 c 0
 734 212 727 194 720 175 c 0
 704 132 688 90 623 90 c 0
 621 92 616 100 611 127 c 0
 607 151 604 182 602 215 c 0
 598 265 593 323 581 370 c 0
 565 431 538 467 499 480 c 0
 482 486 464 489 445 489 c 0
 431 489 419 487 408 486 c 0
 399 485 391 484 384 484 c 1
 384 484 384 484 384 484 c 1
 372 484 359 484 343 521 c 0
 319 575 337 661 405 707 c 0
 443 732 469 742 492 742 c 0
 511 742 531 736 560 721 c 0
 593 703 620 700 639 700 c 0
 646 700 653 701 660 701 c 0
 665 702 671 702 676 702 c 0
 687 702 696 700 706 693 c 0
 725 680 735 651 746 620 c 0
 762 574 780 521 838 501 c 0
 845 499 859 494 868 490 c 1
 860 482 846 470 833 458 c 0
 824 450 815 441 804 432 c 0
 773 403 776 370 780 341 c 0
50 354 m 1
 55 353 61 352 67 351 c 0
 95 345 109 339 114 336 c 1
 112 331 106 323 103 318 c 0
 90 301 75 279 81 255 c 0
 85 239 81 219 76 200 c 1
 59 247 50 298 50 350 c 0
 50 351 50 353 50 354 c 1
500 -100 m 0
 329 -100 180 -4 104 137 c 1
 117 162 141 218 130 266 c 0
 130 271 139 282 144 289 c 0
 157 309 174 333 162 358 c 0
 153 376 129 388 83 398 c 0
 73 401 62 403 53 404 c 1
 80 627 270 800 500 800 c 0
 579 800 653 780 718 744 c 1
 702 751 687 752 676 752 c 0
 669 752 663 752 657 751 c 0
 651 751 645 750 639 750 c 0
 625 750 607 752 583 765 c 0
 547 784 520 792 492 792 c 0
 459 792 424 779 378 748 c 0
 338 722 307 681 292 634 c 0
 278 588 280 541 297 501 c 0
 317 455 344 434 384 434 c 1
 384 434 384 434 384 434 c 1
 394 434 403 435 414 436 c 0
 424 438 434 439 445 439 c 0
 459 439 471 437 483 433 c 0
 505 426 521 401 532 358 c 0
 544 314 548 259 552 211 c 0
 555 170 558 132 565 103 c 0
 569 86 574 72 581 63 c 0
 591 48 605 40 621 40 c 0
 666 40 701 54 726 82 c 0
 748 106 758 134 767 158 c 0
 772 171 777 185 783 191 c 0
 839 255 834 308 829 346 c 0
 826 374 826 384 837 395 c 0
 848 404 858 413 866 421 c 0
 884 437 897 448 907 458 c 0
 913 465 928 482 924 502 c 1
 924 502 924 502 924 502 c 1
 941 455 950 403 950 350 c 0
 950 102 748 -100 500 -100 c 0
EndSplineSet
EndChar

StartChar: smile
Encoding: 85 59476 85
Width: 1000
Flags: W
HStem: -130 50<374.519 633.481> 20 50<398.43 609.57> 470 50<329.653 378.347 629.653 678.347> 570 50<329.653 378.347 629.653 678.347> 770 50<374.519 633.481>
VStem: 29 50<215.519 474.481> 179 50<240.954 369.802> 279 50<520.653 569.347> 379 50<520.653 569.347> 579 50<520.653 569.347> 679 50<520.653 569.347> 779 50<240.954 369.802> 929 50<215.519 474.481>
LayerCount: 2
Fore
SplineSet
504 -130 m 4
 377 -130 258 -81 168 9 c 4
 78 99 29 218 29 345 c 4
 29 472 78 591 168 681 c 4
 258 771 377 820 504 820 c 4
 631 820 750 771 840 681 c 4
 930 591 979 472 979 345 c 4
 979 218 930 99 840 9 c 4
 750 -81 631 -130 504 -130 c 4
504 770 m 4
 270 770 79 579 79 345 c 4
 79 111 270 -80 504 -80 c 4
 738 -80 929 111 929 345 c 4
 929 579 738 770 504 770 c 4
354 470 m 4
 313 470 279 504 279 545 c 4
 279 586 313 620 354 620 c 4
 395 620 429 586 429 545 c 4
 429 504 395 470 354 470 c 4
354 570 m 4
 340 570 329 559 329 545 c 4
 329 531 340 520 354 520 c 4
 368 520 379 531 379 545 c 4
 379 559 368 570 354 570 c 4
654 470 m 4
 613 470 579 504 579 545 c 4
 579 586 613 620 654 620 c 4
 695 620 729 586 729 545 c 4
 729 504 695 470 654 470 c 4
654 570 m 4
 640 570 629 559 629 545 c 4
 629 531 640 520 654 520 c 4
 668 520 679 531 679 545 c 4
 679 559 668 570 654 570 c 4
504 20 m 4
 325 20 179 166 179 345 c 4
 179 359 190 370 204 370 c 4
 218 370 229 359 229 345 c 4
 229 193 352 70 504 70 c 4
 656 70 779 193 779 345 c 4
 779 359 790 370 804 370 c 4
 818 370 829 359 829 345 c 4
 829 166 683 20 504 20 c 4
EndSplineSet
EndChar

StartChar: sad
Encoding: 86 59477 86
Width: 1000
Flags: W
HStem: -130 50<375.519 634.481> 220 50<409.105 600.895> 470 50<330.653 379.347 630.653 679.347> 570 50<330.653 379.347 630.653 679.347> 770 50<375.519 634.481>
VStem: 30 50<215.519 474.481> 280 50<520.653 569.347> 380 50<520.653 569.347> 580 50<520.653 569.347> 680 50<520.653 569.347> 930 50<215.519 474.481>
LayerCount: 2
Fore
SplineSet
505 -130 m 4
 378 -130 259 -81 169 9 c 4
 79 99 30 218 30 345 c 4
 30 472 79 591 169 681 c 4
 259 771 378 820 505 820 c 4
 632 820 751 771 841 681 c 4
 931 591 980 472 980 345 c 4
 980 218 931 99 841 9 c 4
 751 -81 632 -130 505 -130 c 4
505 770 m 4
 271 770 80 579 80 345 c 4
 80 111 271 -80 505 -80 c 4
 739 -80 930 111 930 345 c 4
 930 579 739 770 505 770 c 4
355 470 m 4
 314 470 280 504 280 545 c 4
 280 586 314 620 355 620 c 4
 396 620 430 586 430 545 c 4
 430 504 396 470 355 470 c 4
355 570 m 4
 341 570 330 559 330 545 c 4
 330 531 341 520 355 520 c 4
 369 520 380 531 380 545 c 4
 380 559 369 570 355 570 c 4
655 470 m 4
 614 470 580 504 580 545 c 4
 580 586 614 620 655 620 c 4
 696 620 730 586 730 545 c 4
 730 504 696 470 655 470 c 4
655 570 m 4
 641 570 630 559 630 545 c 4
 630 531 641 520 655 520 c 4
 669 520 680 531 680 545 c 4
 680 559 669 570 655 570 c 4
305 120 m 4
 300 120 295 122 290 125 c 4
 279 133 277 149 285 160 c 4
 310 193 343 221 380 240 c 4
 419 260 461 270 505 270 c 4
 549 270 591 260 630 240 c 4
 667 221 700 193 725 160 c 4
 733 149 731 133 720 125 c 4
 709 117 693 119 685 130 c 4
 642 187 576 220 505 220 c 4
 434 220 368 187 325 130 c 4
 320 123 313 120 305 120 c 4
EndSplineSet
EndChar

StartChar: neutral
Encoding: 87 59478 87
Width: 1000
Flags: W
HStem: -130 50<375.519 634.481> 207 50<280.198 729.802> 470 50<330.653 379.347 630.653 679.347> 570 50<330.653 379.347 630.653 679.347> 770 50<375.519 634.481>
VStem: 30 50<215.519 474.481> 280 50<520.653 569.347> 380 50<520.653 569.347> 580 50<520.653 569.347> 680 50<520.653 569.347> 930 50<215.519 474.481>
LayerCount: 2
Fore
SplineSet
505 -130 m 0
 378 -130 259 -81 169 9 c 0
 79 99 30 218 30 345 c 0
 30 472 79 591 169 681 c 0
 259 771 378 820 505 820 c 0
 632 820 751 771 841 681 c 0
 931 591 980 472 980 345 c 0
 980 218 931 99 841 9 c 0
 751 -81 632 -130 505 -130 c 0
505 770 m 0
 271 770 80 579 80 345 c 0
 80 111 271 -80 505 -80 c 0
 739 -80 930 111 930 345 c 0
 930 579 739 770 505 770 c 0
705 207 m 6
 305 207 l 6
 291 207 280 218 280 232 c 4
 280 246 291 257 305 257 c 6
 705 257 l 6
 719 257 730 246 730 232 c 4
 730 218 719 207 705 207 c 6
655 470 m 0
 614 470 580 504 580 545 c 0
 580 586 614 620 655 620 c 0
 696 620 730 586 730 545 c 0
 730 504 696 470 655 470 c 0
655 570 m 0
 641 570 630 559 630 545 c 0
 630 531 641 520 655 520 c 0
 669 520 680 531 680 545 c 0
 680 559 669 570 655 570 c 0
355 470 m 0
 314 470 280 504 280 545 c 0
 280 586 314 620 355 620 c 0
 396 620 430 586 430 545 c 0
 430 504 396 470 355 470 c 0
355 570 m 0
 341 570 330 559 330 545 c 0
 330 531 341 520 355 520 c 0
 369 520 380 531 380 545 c 0
 380 559 369 570 355 570 c 0
EndSplineSet
EndChar

StartChar: check-1
Encoding: 88 59479 88
Width: 1000
Flags: W
LayerCount: 2
Fore
SplineSet
909 615.7890625 m 4
 924.01953125 600.76953125 924.01953125 576.41796875 909 561.396484375 c 6
 359.083007812 11.47265625 l 6
 359.083007812 11.47265625 319.703125 -3.5400390625 304.690429688 11.47265625 c 6
 88.5556640625 227.607421875 l 6
 73.5361328125 242.62890625 73.5361328125 266.98046875 88.5556640625 282 c 4
 103.577148438 297.021484375 127.930664062 297.021484375 142.948242188 282 c 6
 331.883789062 93.0625 l 5
 854.607421875 615.7890625 l 6
 869.62890625 630.80859375 893.982421875 630.80859375 909 615.7890625 c 4
EndSplineSet
EndChar

StartChar: bell-1
Encoding: 89 59480 89
Width: 1000
Flags: W
HStem: 0.357422 29.293<102.14 220.227 388.177 498.389 779.3 898.333> 37.4688 29.2949<394.922 498.389 527.686 637.303> 78.2422 29.293<124.999 197.823 802.354 875.001> 117.15 29.2949<443.448 514.48 818.14 851.662> 215.535 29.3008<124.998 168.661> 293.424 29.2988<101.667 220.975 780.114 898.381> 308.287 30.125<401.856 540.596> 341.492 29.2969<761.41 863.046> 426.893 29.2969<281.926 422.377> 495.445 29.2988<489.923 609.102> 524.287 29.2949<70.509 167.115> 531.609 29.2969<585.474 630.684 678.834 710.831>
VStem: 0 29.2969<102.022 221.055> 40.541 29.2969<491.579 523.948> 77.8867 29.2969<125.352 197.722> 293.07 29.2949<102.022 185.162> 351.883 29.2969<80.5084 223.221> 443.279 71.3691<119.254 148.551> 498.389 29.2969<29.6523 37.4688> 616.77 29.2969<87.1615 228> 647.34 31.4941<484.813 531.605> 677.633 29.2969<102.022 214.049> 841.041 29.2949<424.764 487.428> 853.904 29.291<151.274 181.511> 892.818 29.293<125.353 197.661> 970.701 29.2988<102.021 221.485>
LayerCount: 2
Fore
SplineSet
977.853515625 243.052734375 m 0xf9df94c0
 992.341796875 218.390625 1000 190.201171875 1000 161.5390625 c 0
 1000 72.662109375 927.693359375 0.357421875 838.81640625 0.357421875 c 0
 749.939453125 0.357421875 677.6328125 72.6640625 677.6328125 161.541015625 c 0
 677.6328125 187.6328125 683.943359375 213.1875 695.953125 236.146484375 c 1
 674.703125 256.35546875 l 1
 656.580078125 227.91796875 646.06640625 194.18359375 646.06640625 158.03515625 c 0
 646.06640625 123.177734375 655.884765625 89.265625 674.462890625 59.9609375 c 0
 677.322265625 55.44921875 677.498046875 49.736328125 674.923828125 45.056640625 c 0
 672.349609375 40.376953125 667.431640625 37.46875 662.08984375 37.46875 c 2
 527.685546875 37.46875 l 1
 527.685546875 15.00390625 l 2
 527.685546875 6.912109375 521.12890625 0.35546875 513.037109375 0.35546875 c 2
 402.8203125 0.35546875 l 2
 394.728515625 0.35546875 388.171875 6.912109375 388.171875 15.00390625 c 0
 388.171875 23.095703125 394.728515625 29.65234375 402.8203125 29.65234375 c 2
 498.388671875 29.65234375 l 1
 498.388671875 37.46875 l 1
 427.810546875 37.46875 l 2
 385.943359375 37.46875 351.8828125 71.529296875 351.8828125 113.3984375 c 2
 351.8828125 223.220703125 l 1
 317.208984375 201.88671875 l 1
 320.619140625 188.71484375 322.365234375 175.193359375 322.365234375 161.5390625 c 0
 322.365234375 72.662109375 250.060546875 0.35546875 161.18359375 0.35546875 c 0
 72.306640625 0.35546875 0 72.662109375 0 161.5390625 c 0
 0 250.416015625 72.306640625 322.720703125 161.185546875 322.72265625 c 0xfddfb4c0
 202.546875 322.72265625 242.345703125 306.697265625 272.17578125 278.39453125 c 1
 303.751953125 297.818359375 l 1
 130.162109375 422.5 l 2
 123.591796875 427.21875 122.08984375 436.373046875 126.80859375 442.943359375 c 0
 131.529296875 449.513671875 140.68359375 451.013671875 147.251953125 446.294921875 c 2
 338.7109375 308.779296875 l 2
 338.71484375 308.77734375 338.71875 308.775390625 338.720703125 308.7734375 c 2
 362.931640625 291.3828125 l 1
 379.35546875 321.1015625 409.9375 338.412109375 442.1484375 338.412109375 c 2
 474.31640625 338.412109375 l 2
 531.521484375 338.412109375 566.728515625 369.26953125 569.447265625 370.677734375 c 2
 517.236328125 390.634765625 l 1
 422.376953125 426.892578125 l 1
 311.50390625 426.892578125 l 2
 296.56640625 426.892578125 281.92578125 432.044921875 270.28125 441.400390625 c 2
 167.115234375 524.287109375 l 1
 84.63671875 524.287109375 l 2
 76.4765625 524.287109375 69.837890625 517.6484375 69.837890625 509.48828125 c 0
 69.837890625 504.734375 72.142578125 500.240234375 76.005859375 497.466796875 c 2
 107.533203125 474.822265625 l 2
 114.103515625 470.1015625 115.60546875 460.94921875 110.88671875 454.37890625 c 0
 106.166015625 447.806640625 97.0078125 446.30859375 90.443359375 451.025390625 c 2
 58.9140625 473.669921875 l 2
 47.41015625 481.935546875 40.541015625 495.32421875 40.541015625 509.486328125 c 0
 40.541015625 533.80078125 60.322265625 553.58203125 84.63671875 553.58203125 c 2
 172.271484375 553.58203125 l 2xfbafb4c0
 175.607421875 553.58203125 178.84375 552.443359375 181.4453125 550.353515625 c 2
 288.625 464.240234375 l 2
 295.087890625 459.048828125 303.2109375 456.189453125 311.5 456.189453125 c 2
 416.900390625 456.189453125 l 1
 447.33203125 499.259765625 496.224609375 524.744140625 549.298828125 524.744140625 c 0
 589.564453125 524.744140625 627.38671875 510.181640625 656.771484375 484.046875 c 1
 657.359375 500.400390625 654.1484375 516.650390625 647.33984375 531.609375 c 1xf9dfb8c0
 600.1171875 531.609375 l 2
 592.025390625 531.609375 585.46875 538.16796875 585.46875 546.2578125 c 0
 585.46875 554.34765625 592.025390625 560.90625 600.1171875 560.90625 c 2
 630.68359375 560.90625 l 1
 624.244140625 571.728515625 l 2
 610.404296875 594.9921875 625.8984375 624.681640625 652.767578125 626.603515625 c 0
 762.181640625 634.416015625 858.009765625 598.109375 922.5859375 524.349609375 c 0
 946.130859375 497.4609375 945.52734375 437.552734375 933.1796875 405.818359375 c 0
 929.728515625 396.943359375 924.142578125 388.98828125 916.771484375 382.60546875 c 2
 870.546875 342.576171875 l 2
 867.27734375 339.744140625 862.92578125 338.5 858.650390625 339.18359375 c 0
 849.041015625 340.71484375 839.2421875 341.4921875 829.521484375 341.4921875 c 0
 796.666015625 341.4921875 765.806640625 332.802734375 739.103515625 317.61328125 c 1
 757.125 300.474609375 l 1
 781.845703125 315.05859375 809.84765625 322.71875 838.8125 322.71875 c 0
 877.0859375 322.71875 914.20703125 309.03515625 943.337890625 284.1875 c 0
 949.494140625 278.939453125 950.2265625 269.69140625 944.9765625 263.537109375 c 0
 942.080078125 260.140625 937.96484375 258.39453125 933.82421875 258.39453125 c 0
 930.46484375 258.39453125 927.083984375 259.544921875 924.326171875 261.8984375 c 0
 900.494140625 282.228515625 870.125 293.421875 838.814453125 293.421875 c 0
 817.970703125 293.421875 797.74609375 288.55859375 779.41796875 279.275390625 c 1
 818.337890625 242.263671875 l 2
 825.013671875 243.95703125 831.865234375 244.833984375 838.814453125 244.833984375 c 0
 884.744140625 244.833984375 922.111328125 207.466796875 922.111328125 161.537109375 c 0
 922.111328125 115.607421875 884.744140625 78.240234375 838.814453125 78.240234375 c 0
 792.884765625 78.240234375 755.517578125 115.60546875 755.517578125 161.537109375 c 0
 755.517578125 167.064453125 756.068359375 172.552734375 757.150390625 177.943359375 c 2
 718.228515625 214.958984375 l 1
 710.80078125 198.216796875 706.9296875 180.041015625 706.9296875 161.537109375 c 0
 706.9296875 88.814453125 766.09375 29.650390625 838.81640625 29.650390625 c 0
 911.537109375 29.650390625 970.701171875 88.814453125 970.701171875 161.537109375 c 0
 970.701171875 184.98828125 964.439453125 208.044921875 952.591796875 228.212890625 c 0
 948.494140625 235.189453125 950.826171875 244.1640625 957.802734375 248.263671875 c 0
 964.779296875 252.36328125 973.75390625 250.02734375 977.853515625 243.052734375 c 0xf9df94c0
892.818359375 161.5390625 m 0
 892.818359375 188.4921875 872.966796875 210.896484375 847.1171875 214.900390625 c 1
 869.40625 193.703125 l 2
 878 185.53515625 882.896484375 174.5078125 883.1953125 162.654296875 c 0xf98f91c0
 883.4921875 150.80078125 879.158203125 139.541015625 870.986328125 130.951171875 c 0
 862.64453125 122.1796875 850.919921875 117.150390625 838.814453125 117.150390625 c 0
 827.380859375 117.150390625 816.517578125 121.4921875 808.23046875 129.373046875 c 2
 785.939453125 150.5703125 l 1
 791.0234375 126.037109375 812.80078125 107.5390625 838.818359375 107.5390625 c 0
 868.59375 107.5390625 892.818359375 131.763671875 892.818359375 161.5390625 c 0
905.408203125 497.486328125 m 1
 885.51171875 494.19921875 870.3359375 476.919921875 870.3359375 456.16015625 c 0xf98f92c0
 870.3359375 435.45703125 885.4296875 418.212890625 905.19140625 414.85546875 c 1
 913.05078125 431.62109375 916.44921875 473.185546875 905.408203125 497.486328125 c 1
549.3046875 495.4453125 m 0xf9cf90c0
 509.75 495.4453125 473.01953125 478.17578125 447.931640625 448.48828125 c 1
 475.80078125 437.8359375 l 1
 597.994140625 391.130859375 l 1
 606.275390625 398.2734375 635.015625 411.43359375 649.71875 449.576171875 c 1
 624.427734375 478.822265625 588.251953125 495.4453125 549.3046875 495.4453125 c 0xf9cf90c0
352.962890625 262.470703125 m 2
 329.548828125 279.28515625 l 1
 277.380859375 247.1953125 l 2
 277.35546875 247.1796875 277.328125 247.162109375 277.302734375 247.146484375 c 2
 208.75390625 204.98046875 l 2
 208.712890625 204.95703125 208.671875 204.931640625 208.630859375 204.90625 c 2
 162.67578125 176.63671875 l 2
 159.232421875 174.5625 156.83203125 171.39453125 155.8046875 167.64453125 c 0
 154.69921875 163.6171875 155.275390625 159.427734375 157.431640625 155.8515625 c 0
 161.7265625 148.7265625 171.0234375 146.423828125 178.1484375 150.720703125 c 2
 221.9921875 177.697265625 l 2
 222.041015625 177.7265625 222.087890625 177.755859375 222.134765625 177.78515625 c 2
 352.3359375 257.89453125 l 2
 352.515625 259.5078125 352.73828125 261.05859375 352.962890625 262.470703125 c 2
132.341796875 140.7265625 m 0
 126.09375 151.09375 124.34765625 163.732421875 127.55078125 175.400390625 c 0
 130.580078125 186.4296875 137.642578125 195.755859375 147.4375 201.658203125 c 2
 169.04296875 214.94921875 l 2
 166.458984375 215.326171875 163.8359375 215.53515625 161.18359375 215.53515625 c 0
 131.408203125 215.53515625 107.18359375 191.310546875 107.18359375 161.53515625 c 0
 107.18359375 131.759765625 131.408203125 107.53515625 161.18359375 107.53515625 c 0
 181.1953125 107.53515625 198.685546875 118.484375 208.013671875 134.69921875 c 1
 193.390625 125.701171875 l 2
 186.181640625 121.35546875 178.240234375 119.287109375 170.404296875 119.287109375 c 0
 155.333984375 119.287109375 140.66015625 126.93359375 132.341796875 140.7265625 c 0
293.0703125 161.5390625 m 0
 293.0703125 169.65625 292.298828125 177.712890625 290.818359375 185.650390625 c 2
 244.357421875 157.064453125 l 1
 242.0234375 113.20703125 205.61328125 78.2421875 161.18359375 78.2421875 c 0
 115.25390625 78.2421875 77.88671875 115.609375 77.88671875 161.5390625 c 0
 77.88671875 207.46875 115.251953125 244.8359375 161.18359375 244.8359375 c 0
 175.271484375 244.8359375 188.88671875 241.33984375 201.076171875 234.658203125 c 1
 246.111328125 262.361328125 l 1
 222.470703125 282.248046875 192.380859375 293.423828125 161.18359375 293.423828125 c 0xfd8f90c0
 88.4609375 293.423828125 29.296875 234.259765625 29.296875 161.5390625 c 0
 29.296875 88.814453125 88.4609375 29.650390625 161.185546875 29.65234375 c 0
 233.90625 29.65234375 293.0703125 88.81640625 293.0703125 161.5390625 c 0
637.302734375 66.763671875 m 1
 623.814453125 95.140625 616.76953125 126.251953125 616.76953125 158.03125 c 0
 616.76953125 275.60546875 712.3359375 370.7890625 829.52734375 370.7890625 c 0
 838.486328125 370.7890625 847.50390625 370.21875 856.421875 369.091796875 c 2
 882.365234375 391.55859375 l 1
 857.9921875 402.873046875 841.041015625 427.56640625 841.041015625 456.158203125 c 0
 841.041015625 485.60546875 859.01171875 510.935546875 884.5625 521.75390625 c 1
 826.787109375 577.15625 746.15234375 603.904296875 654.861328125 597.37890625 c 0
 649.6328125 597.00390625 646.78125 591.15234375 649.427734375 586.705078125 c 2
 664.77734375 560.90234375 l 1
 696.1875 560.90234375 l 2
 704.279296875 560.90234375 710.8359375 554.34375 710.8359375 546.25390625 c 0
 710.8359375 538.1640625 704.279296875 531.60546875 696.1875 531.60546875 c 2
 678.833984375 531.60546875 l 1
 686.6796875 508.7578125 688.3203125 484.1171875 683.2890625 460.064453125 c 0
 670.30859375 398.00390625 628.400390625 376.875 582.21484375 343.77734375 c 0
 516.91796875 296.9921875 458.32421875 312.642578125 432.205078125 308.287109375 c 0xfb8f9ac0
 403.611328125 303.58984375 381.1796875 278.603515625 381.1796875 248.14453125 c 2
 381.1796875 113.396484375 l 2
 381.1796875 87.68359375 402.09765625 66.763671875 427.810546875 66.763671875 c 2
 637.302734375 66.763671875 l 1
714.35546875 300.72265625 m 1
 706.509765625 294.376953125 699.1953125 287.3984375 692.486328125 279.86328125 c 1
 724.392578125 249.521484375 l 2
 724.42578125 249.4921875 724.45703125 249.462890625 724.48828125 249.431640625 c 2
 828.4140625 150.599609375 l 2
 831.232421875 147.921875 834.923828125 146.4453125 838.810546875 146.4453125 c 0
 842.990234375 146.4453125 846.875 148.111328125 849.75390625 151.13671875 c 0
 852.53125 154.060546875 854.005859375 157.888671875 853.904296875 161.91796875 c 0xf98f91c0
 853.802734375 165.9453125 852.138671875 169.6953125 849.216796875 172.47265625 c 2
 745.26953125 271.32421875 l 2
 745.255859375 271.3359375 745.244140625 271.349609375 745.23046875 271.361328125 c 2
 714.35546875 300.72265625 l 1
500 148.55078125 m 2
 508.091796875 148.55078125 514.6484375 141.994140625 514.6484375 133.90234375 c 0
 514.6484375 125.810546875 508.091796875 119.25390625 500 119.25390625 c 2
 457.927734375 119.25390625 l 2
 449.8359375 119.25390625 443.279296875 125.810546875 443.279296875 133.90234375 c 0xf98fd0c0
 443.279296875 141.994140625 449.8359375 148.55078125 457.927734375 148.55078125 c 2
 500 148.55078125 l 2
EndSplineSet
EndChar

StartChar: bullhorn
Encoding: 90 59481 90
Width: 1000
Flags: W
HStem: -1.59766 39.0625<810.967 876.51> 154.652 39.0625<321.023 351.562> 232.777 39.0625<107.782 159.454 197.611 277.041 314.996 351.562 390.625 468.407> 310.902 39.0625<156.256 312.494> 389.027 39.0625<156.256 312.494> 467.152 39.0625<156.256 312.494> 545.277 39.0625<107.579 351.562> 779.652 39.0625<810.99 874.072>
VStem: 0 39.0625<340.433 476.828> 156.25 156.25<310.902 349.965 389.027 428.09 467.152 506.215> 275.873 39.123<193.715 232.777> 351.562 39.0625<193.715 229.252 271.84 545.277> 765.625 39.0625<44.3713 96.841 133.516 683.598 719.866 772.711> 882.812 39.0625<44.4058 326.064 360.438 495.742 530.115 767.857> 960.938 39.0625<377.433 478.747>
LayerCount: 2
Fore
SplineSet
921.875 538.587890625 m 1xff9e
 967.96875 522.275390625 1000 478.12109375 1000 428.08984375 c 0
 1000 378.05859375 967.96875 333.90234375 921.875 317.591796875 c 1
 921.875 76.52734375 l 2
 921.875 33.44921875 886.828125 -1.59765625 843.75 -1.59765625 c 0
 800.58203125 -1.59765625 765.625 33.369140625 765.625 76.52734375 c 2
 765.625 86.16796875 l 1
 603.919921875 202.857421875 395.876953125 227.8203125 390.625 229.251953125 c 2
 390.625 174.18359375 l 2
 390.625 163.3984375 381.880859375 154.65234375 371.09375 154.65234375 c 2
 321.0234375 154.65234375 l 1
 331.548828125 46.525390625 345.943359375 -5.947265625 349.37109375 -22.291015625 c 0
 356.15625 -50.201171875 348.953125 -76.900390625 329.568359375 -95.61328125 c 0
 288.0703125 -135.671875 213.587890625 -123.625 197.62890625 -59.5390625 c 0
 197.421875 -58.287109375 168.677734375 45.529296875 158.44140625 233.6328125 c 1
 69.625 242.369140625 0 317.484375 0 408.55859375 c 0
 0 506.0703125 79.03515625 584.33984375 175.78125 584.33984375 c 2
 369.474609375 584.33984375 l 2
 382.240234375 587.724609375 597.529296875 609.65234375 765.625 730.94921875 c 1
 765.625 740.58984375 l 2
 765.625 783.66796875 800.671875 818.71484375 843.75 818.71484375 c 0
 864.609375 818.71484375 884.224609375 810.5859375 898.986328125 795.826171875 c 0
 913.74609375 781.068359375 921.875 761.451171875 921.875 740.58984375 c 2
 921.875 538.587890625 l 1xff9e
302.439453125 -67.5078125 m 0
 309.0390625 -61.138671875 315.9375 -49.673828125 311.341796875 -31.220703125 c 2
 311.078125 -30.03515625 l 2
 298.73046875 22.791015625 288.021484375 81.025390625 280.150390625 172.490234375 c 0
 278.46484375 192.15625 277.03515625 212.36328125 275.873046875 232.77734375 c 1xffbe
 197.611328125 232.77734375 l 1
 207.91015625 48.63671875 235.228515625 -48.263671875 235.53125 -50.08203125 c 0
 244.482421875 -86.0390625 283.658203125 -85.630859375 302.439453125 -67.5078125 c 0
351.5625 193.71484375 m 1
 351.5625 232.77734375 l 1
 314.99609375 232.77734375 l 1
 315.759765625 219.626953125 316.63671875 206.580078125 317.623046875 193.71484375 c 1
 351.5625 193.71484375 l 1
351.5625 271.83984375 m 1
 351.5625 545.27734375 l 1
 175.78125 545.27734375 l 2
 99.9375 545.27734375 39.0625 483.802734375 39.0625 408.55859375 c 0
 39.0625 333.169921875 100.39453125 271.83984375 175.78125 271.83984375 c 2
 351.5625 271.83984375 l 1
765.625 133.515625 m 1
 765.625 683.59765625 l 1
 594.8828125 571.923828125 400.486328125 550.849609375 390.625 548.26171875 c 1
 390.625 268.85546875 l 1
 400.0234375 266.388671875 594.955078125 245.146484375 765.625 133.515625 c 1
882.8125 76.52734375 m 0
 882.8125 138.94921875 882.8125 516.494140625 882.8125 740.58984375 c 0
 882.8125 751.017578125 878.74609375 760.82421875 871.365234375 768.205078125 c 0
 863.982421875 775.5859375 854.17578125 779.65234375 843.75 779.65234375 c 0
 822.2109375 779.65234375 804.6875 762.12890625 804.6875 740.58984375 c 2
 804.6875 76.52734375 l 2
 804.6875 54.94921875 822.181640625 37.46484375 843.75 37.46484375 c 0
 865.2890625 37.46484375 882.8125 54.98828125 882.8125 76.52734375 c 0
921.875 360.4375 m 1
 945.4453125 374.11328125 960.9375 399.673828125 960.9375 428.08984375 c 0
 960.9375 456.505859375 945.4453125 482.068359375 921.875 495.7421875 c 1
 921.875 360.4375 l 1
292.96875 506.21484375 m 2
 303.755859375 506.21484375 312.5 497.46875 312.5 486.68359375 c 0
 312.5 475.8984375 303.755859375 467.15234375 292.96875 467.15234375 c 2
 175.78125 467.15234375 l 2
 164.994140625 467.15234375 156.25 475.8984375 156.25 486.68359375 c 0xffde
 156.25 497.46875 164.994140625 506.21484375 175.78125 506.21484375 c 2
 292.96875 506.21484375 l 2
292.96875 428.08984375 m 2
 303.755859375 428.08984375 312.5 419.34375 312.5 408.55859375 c 0
 312.5 397.7734375 303.755859375 389.02734375 292.96875 389.02734375 c 2
 175.78125 389.02734375 l 2
 164.994140625 389.02734375 156.25 397.7734375 156.25 408.55859375 c 0
 156.25 419.34375 164.994140625 428.08984375 175.78125 428.08984375 c 2
 292.96875 428.08984375 l 2
292.96875 349.96484375 m 2
 303.755859375 349.96484375 312.5 341.21875 312.5 330.43359375 c 0
 312.5 319.6484375 303.755859375 310.90234375 292.96875 310.90234375 c 2
 175.78125 310.90234375 l 2
 164.994140625 310.90234375 156.25 319.6484375 156.25 330.43359375 c 0
 156.25 341.21875 164.994140625 349.96484375 175.78125 349.96484375 c 2
 292.96875 349.96484375 l 2
EndSplineSet
EndChar

StartChar: volume-high
Encoding: 91 59482 91
Width: 1000
Flags: W
HStem: 189 50<79.1084 103> 489 50<79.1084 103>
VStem: 28 50<240.108 264 464 487.892> 628 50<311.685 416.315> 778 50<266.926 461.074> 928 50<241.339 486.883>
LayerCount: 2
Fore
SplineSet
711 145 m 4
 703 145 696 148 691 154 c 4
 683 165 684 181 695 189 c 4
 748 232 778 296 778 364 c 4
 778 432 748 496 695 539 c 4
 684 547 683 563 691 574 c 4
 699 585 716 586 726 577 c 4
 791 525 828 447 828 364 c 4
 828 281 791 203 726 151 c 4
 722 147 716 145 711 145 c 4
805 28 m 4
 798 28 791 32 786 38 c 4
 777 49 779 64 790 73 c 4
 878 145 928 251 928 364 c 4
 928 477 878 583 790 655 c 4
 779 664 777 680 786 690 c 4
 795 701 810 703 821 694 c 4
 921 613 978 493 978 364 c 4
 978 236 921 115 821 34 c 4
 816 30 811 28 805 28 c 4
616 261 m 4
 609 261 602 265 597 271 c 4
 588 281 590 297 600 306 c 4
 618 320 628 341 628 364 c 4
 628 387 618 408 600 422 c 4
 590 431 588 447 597 457 c 4
 606 467 621 470 632 461 c 4
 661 437 678 402 678 364 c 4
 678 326 661 291 632 267 c 4
 627 263 622 261 616 261 c 4
436 729 m 4
 423 729 411 723 399 713 c 6
 194 539 l 5
 103 539 l 6
 62 539 28 505 28 464 c 6
 28 264 l 6
 28 223 62 189 103 189 c 6
 194 189 l 5
 399 15 l 6
 411 5 423 -1 436 -1 c 5
 449 -1 461 6 469 17 c 4
 475 26 478 38 478 52 c 6
 478 677 l 6
 478 713 457 729 436 729 c 4
78 264 m 6
 78 464 l 6
 78 478 89 489 103 489 c 6
 178 489 l 5
 178 239 l 5
 103 239 l 6
 89 239 78 250 78 264 c 6
428 56 m 5
 228 226 l 5
 228 502 l 5
 428 672 l 5
 428 56 l 5
EndSplineSet
EndChar

StartChar: volume-medium
Encoding: 92 59483 92
Width: 1000
Flags: W
HStem: 189 50<79.1084 103> 489 50<79.1084 103>
VStem: 28 50<240.108 264 464 487.892> 628 50<311.685 416.315> 778 50<266.926 461.074>
LayerCount: 2
Fore
SplineSet
711 145 m 4
 703 145 696 148 691 154 c 4
 683 165 684 181 695 189 c 4
 748 232 778 296 778 364 c 4
 778 432 748 496 695 539 c 4
 684 547 683 563 691 574 c 4
 699 585 716 586 726 577 c 4
 791 525 828 447 828 364 c 4
 828 281 791 203 726 151 c 4
 722 147 716 145 711 145 c 4
616 261 m 4
 609 261 602 265 597 271 c 4
 588 281 590 297 600 306 c 4
 618 320 628 341 628 364 c 4
 628 387 618 408 600 422 c 4
 590 431 588 447 597 457 c 4
 606 467 621 470 632 461 c 4
 661 437 678 402 678 364 c 4
 678 326 661 291 632 267 c 4
 627 263 622 261 616 261 c 4
436 729 m 4
 423 729 411 723 399 713 c 6
 194 539 l 5
 103 539 l 6
 62 539 28 505 28 464 c 6
 28 264 l 6
 28 223 62 189 103 189 c 6
 194 189 l 5
 399 15 l 6
 411 5 423 -1 436 -1 c 5
 449 -1 461 6 469 17 c 4
 475 26 478 38 478 52 c 6
 478 677 l 6
 478 713 457 729 436 729 c 4
78 264 m 6
 78 464 l 6
 78 478 89 489 103 489 c 6
 178 489 l 5
 178 239 l 5
 103 239 l 6
 89 239 78 250 78 264 c 6
428 56 m 5
 228 226 l 5
 228 502 l 5
 428 672 l 5
 428 56 l 5
EndSplineSet
EndChar

StartChar: volume-low
Encoding: 93 59484 93
Width: 1000
Flags: W
HStem: 189 50<79.1084 103> 489 50<79.1084 103>
VStem: 28 50<240.108 264 464 487.892> 628 50<311.685 416.315>
LayerCount: 2
Fore
SplineSet
616 261 m 4
 609 261 602 265 597 271 c 4
 588 281 590 297 600 306 c 4
 618 320 628 341 628 364 c 4
 628 387 618 408 600 422 c 4
 590 431 588 447 597 457 c 4
 606 467 621 470 632 461 c 4
 661 437 678 402 678 364 c 4
 678 326 661 291 632 267 c 4
 627 263 622 261 616 261 c 4
436 729 m 4
 423 729 411 723 399 713 c 6
 194 539 l 5
 103 539 l 6
 62 539 28 505 28 464 c 6
 28 264 l 6
 28 223 62 189 103 189 c 6
 194 189 l 5
 399 15 l 6
 411 5 423 -1 436 -1 c 5
 449 -1 461 6 469 17 c 4
 475 26 478 38 478 52 c 6
 478 677 l 6
 478 713 457 729 436 729 c 4
78 264 m 6
 78 464 l 6
 78 478 89 489 103 489 c 6
 178 489 l 5
 178 239 l 5
 103 239 l 6
 89 239 78 250 78 264 c 6
428 56 m 5
 228 226 l 5
 228 502 l 5
 428 672 l 5
 428 56 l 5
EndSplineSet
EndChar

StartChar: volume
Encoding: 94 59485 94
Width: 1000
Flags: W
HStem: 189 50<79.1084 103> 489 50<79.1084 103>
VStem: 28 50<240.108 264 464 487.892>
LayerCount: 2
Fore
SplineSet
436 729 m 4
 423 729 411 723 399 713 c 6
 194 539 l 5
 103 539 l 6
 62 539 28 505 28 464 c 6
 28 264 l 6
 28 223 62 189 103 189 c 6
 194 189 l 5
 399 15 l 6
 411 5 423 -1 436 -1 c 5
 449 -1 461 6 469 17 c 4
 475 26 478 38 478 52 c 6
 478 677 l 6
 478 713 457 729 436 729 c 4
78 264 m 6
 78 464 l 6
 78 478 89 489 103 489 c 6
 178 489 l 5
 178 239 l 5
 103 239 l 6
 89 239 78 250 78 264 c 6
428 56 m 5
 228 226 l 5
 228 502 l 5
 428 672 l 5
 428 56 l 5
EndSplineSet
EndChar

StartChar: mic
Encoding: 95 59486 95
Width: 1000
Flags: W
HStem: -100 50<389.198 414 614 638.802> 51 49<406.906 489 539 621.094> 200 50<445.142 583.069> 800 50<445.142 582.858>
VStem: 189 50<268.236 399.802> 339 50<307.156 743.266> 639 50<307.156 743.266> 789 50<268.236 399.802>
LayerCount: 2
Fore
SplineSet
514 200 m 4
 418 200 339 279 339 375 c 6
 339 675 l 6
 339 772 418 850 514 850 c 4
 610 850 689 772 689 675 c 6
 689 375 l 6
 689 279 611 200 514 200 c 4
514 800 m 4
 445 800 389 744 389 675 c 6
 389 375 l 6
 389 306 445 250 514 250 c 4
 583 250 639 306 639 375 c 6
 639 675 l 6
 639 744 583 800 514 800 c 4
839 375 m 4
 839 389 828 400 814 400 c 4
 800 400 789 389 789 375 c 4
 789 223 666 100 514 100 c 4
 362 100 239 223 239 375 c 4
 239 389 228 400 214 400 c 4
 200 400 189 389 189 375 c 4
 189 204 321 64 489 51 c 5
 489 -50 l 5
 414 -50 l 6
 400 -50 389 -61 389 -75 c 4
 389 -89 400 -100 414 -100 c 6
 614 -100 l 6
 628 -100 639 -89 639 -75 c 4
 639 -61 628 -50 614 -50 c 6
 539 -50 l 5
 539 51 l 5
 707 64 839 204 839 375 c 4
EndSplineSet
EndChar

StartChar: time
Encoding: 96 59487 96
Width: 1000
Flags: W
HStem: -150 39.0625<210.379 789.645> -71.875 39.0625<285.156 329.089 364.957 635.041 670.916 714.844> 148.828 39.0625<480.475 519.525> 226.953 83.9844<480.469 519.531> 567.031 39.0625<389.449 610.564> 732.812 39.0625<285.156 714.844> 811.133 38.8672<210.379 789.646>
VStem: 246.094 39.0625<-32.8125 158.325 536.321 732.812> 325.441 39.5156<-32.8125 4.34356> 441.406 39.0625<318.794 381.071> 480.469 39.0625<148.835 187.884 226.96 310.931> 519.531 39.0625<318.929 381.206> 635.041 39.5215<-32.8125 4.34192> 714.844 39.0625<-32.8125 158.325 536.321 732.812>
LayerCount: 2
Fore
SplineSet
500 187.890625 m 0xffac
 510.78125 187.890625 519.53125 179.140625 519.53125 168.359375 c 0
 519.53125 157.578125 510.78125 148.828125 500 148.828125 c 0
 489.21875 148.828125 480.46875 157.578125 480.46875 168.359375 c 0
 480.46875 179.140625 489.21875 187.890625 500 187.890625 c 0xffac
753.90625 -34.763671875 m 1
 772.53515625 -38.529296875 789.666015625 -47.66796875 803.419921875 -61.421875 c 0
 821.87109375 -79.876953125 832.03125 -104.396484375 832.03125 -130.46875 c 0
 832.03125 -141.25390625 823.28515625 -150 812.5 -150 c 2
 187.5 -150 l 2
 176.71484375 -150 167.96875 -141.25390625 167.96875 -130.46875 c 0
 167.96875 -83.306640625 201.572265625 -43.8515625 246.09375 -34.77734375 c 1
 246.09375 70.703125 l 2
 246.09375 180.2578125 316.12890625 281.169921875 416.40625 316.1015625 c 0
 431.296875 321.287109375 441.40625 334.572265625 441.40625 350 c 0
 441.40625 365.30859375 431.59765625 378.61328125 416.412109375 383.896484375 c 0
 314.537109375 419.384765625 246.09375 515.6484375 246.09375 623.4375 c 2
 246.09375 734.77734375 l 1
 201.572265625 743.8515625 167.96875 783.30859375 167.96875 830.46875 c 0
 167.96875 841.25390625 176.71484375 850 187.5 850 c 2
 812.5 850 l 2
 823.28515625 850 832.03125 841.25390625 832.03125 830.46875 c 0
 832.03125 782.8046875 798.052734375 743.6875 753.90625 734.763671875 c 1
 753.90625 623.4375 l 2
 753.90625 515.6484375 685.462890625 419.384765625 583.59375 383.8984375 c 0
 568.703125 378.712890625 558.59375 365.427734375 558.59375 350 c 0xffdc
 558.59375 334.69140625 568.40234375 321.38671875 583.587890625 316.103515625 c 0
 683.87109375 281.169921875 753.90625 180.2578125 753.90625 70.703125 c 2
 753.90625 -34.763671875 l 1
210.37890625 811.1328125 m 1
 218.439453125 788.396484375 240.162109375 771.875 265.625 771.875 c 2
 734.375 771.875 l 2
 759.771484375 771.875 781.453125 787.931640625 789.646484375 811.1328125 c 1
 210.37890625 811.1328125 l 1
285.15625 70.703125 m 2
 285.15625 -32.8125 l 1
 325.44140625 -32.8125 l 1
 334.1640625 36.599609375 389.728515625 61.970703125 442.11328125 80.220703125 c 0
 458.861328125 86.048828125 473.685546875 95.349609375 486.181640625 107.86328125 c 0
 489.845703125 111.53125 494.818359375 113.59375 500.001953125 113.59375 c 0
 505.185546875 113.59375 510.158203125 111.53125 513.822265625 107.86328125 c 0
 526.158203125 95.509765625 541.3984375 85.953125 557.890625 80.228515625 c 0
 610.28515625 61.96875 665.83984375 36.595703125 674.5625 -32.8125 c 1
 714.84375 -32.8125 l 1
 714.84375 70.703125 l 2
 714.84375 163.916015625 655.5859375 249.65625 570.7421875 279.212890625 c 0
 540.11328125 289.873046875 519.53125 318.318359375 519.53125 350 c 0
 519.53125 382.181640625 540.2578125 410.16796875 570.744140625 420.787109375 c 0
 656.935546875 450.8125 714.84375 532.25 714.84375 623.4375 c 2
 714.84375 732.8125 l 1
 285.15625 732.8125 l 1
 285.15625 623.4375 l 2
 285.15625 532.25 343.064453125 450.8125 429.2578125 420.787109375 c 0
 459.88671875 410.126953125 480.46875 381.681640625 480.46875 350 c 0
 480.46875 317.818359375 459.7421875 289.83203125 429.255859375 279.212890625 c 0
 344.4140625 249.65625 285.15625 163.916015625 285.15625 70.703125 c 2
635.041015625 -32.8125 m 1
 627.755859375 6.833984375 596.68359375 25.341796875 545.056640625 43.33203125 c 0
 528.845703125 48.9609375 513.53125 57.3671875 499.998046875 68 c 1
 486.484375 57.3828125 471.177734375 48.9765625 454.955078125 43.330078125 c 0
 403.322265625 25.34375 372.244140625 6.8359375 364.95703125 -32.8125 c 1
 635.041015625 -32.8125 l 1
210.37890625 -110.9375 m 1
 789.64453125 -110.9375 l 1
 786.771484375 -102.796875 782.087890625 -95.333984375 775.798828125 -89.04296875 c 0
 764.7265625 -77.97265625 750.015625 -71.875 734.375 -71.875 c 2
 265.625 -71.875 l 2
 240.162109375 -71.875 218.439453125 -88.201171875 210.37890625 -110.9375 c 1
666.517578125 640.052734375 m 0
 672.275390625 636.494140625 675.78125 630.20703125 675.78125 623.4375 c 0
 675.78125 586.837890625 664.54296875 551.689453125 643.279296875 521.787109375 c 0
 622.0234375 491.892578125 592.494140625 469.72265625 557.88671875 457.669921875 c 0
 541.138671875 451.841796875 526.314453125 442.541015625 513.818359375 430.02734375 c 0
 510.154296875 426.359375 505.181640625 424.296875 499.998046875 424.296875 c 0
 494.814453125 424.296875 489.841796875 426.359375 486.177734375 430.02734375 c 0
 473.841796875 442.380859375 458.6015625 451.9375 442.109375 457.662109375 c 0
 371.5859375 482.240234375 324.21875 548.85546875 324.21875 623.4375 c 0
 324.21875 630.20703125 327.72265625 636.490234375 333.482421875 640.05078125 c 0
 339.2421875 643.611328125 346.431640625 643.93359375 352.484375 640.90625 c 0
 398.033203125 618.130859375 449.04296875 606.09375 500 606.09375 c 0
 550.95703125 606.09375 601.966796875 618.130859375 647.515625 640.908203125 c 0
 653.568359375 643.931640625 660.759765625 643.609375 666.517578125 640.052734375 c 0
611.447265625 544.423828125 m 0
 621.740234375 558.8984375 629.009765625 574.951171875 633.03515625 591.8671875 c 1
 590.72265625 575.5546875 545.341796875 567.03125 500.001953125 567.03125 c 0
 454.669921875 567.03125 409.30078125 575.548828125 366.994140625 591.85546875 c 1
 377.625 547.296875 410.326171875 510.10546875 454.943359375 494.55859375 c 0
 471.154296875 488.9296875 486.46875 480.5234375 500.001953125 469.890625 c 1
 513.515625 480.505859375 528.822265625 488.9140625 545.044921875 494.560546875 c 0
 571.94921875 503.931640625 594.9140625 521.173828125 611.447265625 544.423828125 c 0
500 310.9375 m 0
 510.78515625 310.9375 519.53125 302.19140625 519.53125 291.40625 c 2
 519.53125 246.484375 l 2
 519.53125 235.69921875 510.78515625 226.953125 500 226.953125 c 0
 489.21484375 226.953125 480.46875 235.69921875 480.46875 246.484375 c 2
 480.46875 291.40625 l 2xffac
 480.46875 302.19140625 489.21484375 310.9375 500 310.9375 c 0
EndSplineSet
EndChar

StartChar: undo
Encoding: 97 59488 97
Width: 1000
Flags: W
HStem: 0 50<550.198 695.232> 800 50<452.921 697.105>
VStem: 150 50<425 545.232> 950 50<303.273 547.105>
LayerCount: 2
Fore
SplineSet
876 726 m 4
 795 806 689 850 575 850 c 4
 461 850 355 806 275 726 c 4
 195 646 150 539 150 425 c 6
 150 360 l 5
 43 468 l 6
 33 477 17 477 7 468 c 4
 -3 459 -2 442 7 432 c 6
 157 282 l 6
 162 277 169 275 175 275 c 4
 181 275 188 277 193 282 c 6
 343 432 l 6
 352 442 352 458 343 468 c 4
 334 478 317 477 307 468 c 6
 200 360 l 5
 200 425 l 6
 200 632 368 800 575 800 c 4
 782 800 950 632 950 425 c 4
 950 218 782 50 575 50 c 4
 561 50 550 39 550 25 c 4
 550 11 561 0 575 0 c 4
 689 0 795 44 876 125 c 4
 957 206 1000 312 1000 425 c 4
 1000 539 956 645 876 726 c 4
EndSplineSet
EndChar

StartChar: redo
Encoding: 98 59489 98
Width: 1000
Flags: W
HStem: 0 50<304.768 449.802> 800 50<303.141 547.105>
VStem: 0 50<303.273 547.105> 800 50<360 545.232>
LayerCount: 2
Fore
SplineSet
125 726 m 4
 205 806 312 850 425 850 c 4
 539 850 645 806 726 726 c 4
 807 646 850 539 850 425 c 6
 850 360 l 5
 957 468 l 6
 967 477 983 477 993 468 c 4
 1002 458 1002 442 993 432 c 6
 843 282 l 6
 838 277 831 275 825 275 c 4
 819 275 812 277 807 282 c 6
 657 432 l 6
 648 442 648 458 657 468 c 4
 667 477 683 477 693 468 c 6
 800 360 l 5
 800 425 l 6
 800 632 632 800 425 800 c 4
 218 800 50 632 50 425 c 4
 50 218 218 50 425 50 c 4
 439 50 450 39 450 25 c 4
 450 11 439 0 425 0 c 4
 312 0 205 44 125 125 c 4
 45 206 0 312 0 425 c 4
 0 539 44 645 125 726 c 4
EndSplineSet
EndChar

StartChar: sync
Encoding: 99 59490 99
Width: 1000
Flags: W
HStem: 14.1572 64.6387<214.498 255.518> 734.826 63.6611<520.955 620.033>
VStem: 103.466 64.6387<-73.2082 -31.3486> 103.5 153.716<15.8554 71.1268>
LayerCount: 2
Fore
SplineSet
70.8876953125 402.180664062 m 0xc0
 58.3642578125 331.215820312 64.7333984375 258.11328125 89.3056640625 190.763671875 c 0
 95.4248046875 173.997070312 86.7890625 155.4453125 70.0166015625 149.326171875 c 0
 66.3671875 147.994140625 62.6220703125 147.361328125 58.9462890625 147.361328125 c 0
 45.7470703125 147.361328125 33.3623046875 155.497070312 28.5791015625 168.610351562 c 0
 0.12109375 246.625 -7.2607421875 331.271484375 7.2353515625 413.40625 c 0
 37.193359375 583.346679688 157.67578125 722.325195312 316.924804688 778.70703125 c 1
 308.875 783.357421875 l 2
 293.41796875 792.28125 288.125976562 812.047851562 297.05078125 827.505859375 c 0
 305.975585938 842.958984375 325.733398438 848.258789062 341.203125 839.330078125 c 2
 418.365234375 794.768554688 l 2
 425.790039062 790.48046875 431.202148438 783.421875 433.421875 775.139648438 c 0
 435.640625 766.861328125 434.473632812 758.040039062 430.185546875 750.615234375 c 2
 385.627929688 673.475585938 l 2
 379.642578125 663.111328125 368.778320312 657.315429688 357.61328125 657.315429688 c 0
 352.127929688 657.315429688 346.573242188 658.715820312 341.479492188 661.655273438 c 0
 326.021484375 670.583984375 320.73046875 690.350585938 329.659179688 705.807617188 c 2
 336.0625 716.904296875 l 1
 199.669921875 667.662109375 96.6220703125 548.153320312 70.8876953125 402.180664062 c 0xc0
834.47265625 71.3193359375 m 0
 848.13671875 59.8359375 849.904296875 39.4443359375 838.415039062 25.783203125 c 0
 747.424804688 -82.4560546875 613.001953125 -143.669921875 474.153320312 -143.669921875 c 0
 446.940429688 -143.669921875 419.563476562 -141.31640625 392.302734375 -136.5078125 c 0
 309.237304688 -121.860351562 231.864257812 -85.2529296875 168.108398438 -31.3486328125 c 1
 168.104492188 -42.6044921875 l 2
 168.095703125 -60.44921875 153.629882812 -74.9111328125 135.78515625 -74.9111328125 c 2
 135.772460938 -74.9111328125 l 2
 117.922851562 -74.90234375 103.45703125 -60.427734375 103.465820312 -42.578125 c 2xe0
 103.5 46.494140625 l 2
 103.5 46.658203125 103.521484375 46.8125 103.525390625 46.9765625 c 0
 103.534179688 47.9072265625 103.577148438 48.837890625 103.66796875 49.7646484375 c 0
 103.66796875 49.7734375 103.66796875 49.7822265625 103.66796875 49.791015625 c 0
 103.671875 49.8203125 103.676757812 49.8466796875 103.680664062 49.876953125 c 0
 104.5 57.96484375 108.331054688 65.7568359375 115.052734375 71.392578125 c 0
 121.948242188 77.17578125 130.548828125 79.580078125 138.853515625 78.7958984375 c 2
 224.896484375 78.7958984375 l 2
 242.75 78.7958984375 257.215820312 64.326171875 257.215820312 46.4765625 c 0xd0
 257.215820312 28.6279296875 242.75 14.1572265625 224.896484375 14.1572265625 c 2
 214.498046875 14.1572265625 l 1
 268.669921875 -30.296875 333.765625 -60.552734375 403.528320312 -72.85546875 c 0
 547.255859375 -98.224609375 694.916992188 -44.470703125 788.936523438 67.376953125 c 0
 800.420898438 81.041015625 820.803710938 82.80859375 834.47265625 71.3193359375 c 0
995.665039062 236.01953125 m 0
 1004.58984375 220.5625 999.29296875 200.795898438 983.8359375 191.8671875 c 2
 906.673828125 147.318359375 l 2
 901.71875 144.45703125 896.137695312 142.987304688 890.514648438 142.987304688 c 0
 887.713867188 142.987304688 884.903320312 143.353515625 882.150390625 144.08984375 c 0
 873.868164062 146.309570312 866.809570312 151.7265625 862.521484375 159.151367188 c 2
 817.98046875 236.326171875 l 2
 809.060546875 251.787109375 814.356445312 271.553710938 829.818359375 280.474609375 c 0
 845.275390625 289.3984375 865.041992188 284.09375 873.966796875 268.63671875 c 2
 878.703125 260.436523438 l 1
 897.5 368.103515625 873.354492188 476.670898438 810.655273438 566.212890625 c 0
 747.830078125 655.940429688 653.819335938 715.822265625 545.954101562 734.826171875 c 0
 528.376953125 737.924804688 516.637695312 754.6875 519.736328125 772.264648438 c 0
 522.826171875 789.842773438 539.588867188 801.581054688 557.170898438 798.487304688 c 0
 682.041015625 776.48828125 790.8671875 707.165039062 863.598632812 603.294921875 c 0
 936.331054688 499.423828125 964.258789062 373.446289062 942.243164062 248.555664062 c 0
 941.841796875 246.267578125 941.325195312 243.99609375 940.885742188 241.712890625 c 2
 951.516601562 247.848632812 l 2
 966.969726562 256.7734375 986.745117188 251.477539062 995.665039062 236.01953125 c 0
EndSplineSet
EndChar

StartChar: db-check
Encoding: 100 59491 100
Width: 1000
Flags: W
LayerCount: 2
Fore
SplineSet
833 615.7890625 m 0
 848.01953125 600.76953125 848.01953125 576.41796875 833 561.396484375 c 2
 283.083007812 11.47265625 l 2
 283.083007812 11.47265625 243.703125 -3.5400390625 228.690429688 11.47265625 c 2
 12.5556640625 227.607421875 l 2
 -2.4638671875 242.62890625 -2.4638671875 266.98046875 12.5556640625 282 c 0
 27.5771484375 297.021484375 51.9306640625 297.021484375 66.9482421875 282 c 2
 255.883789062 93.0625 l 1
 778.607421875 615.7890625 l 2
 793.62890625 630.80859375 817.982421875 630.80859375 833 615.7890625 c 0
988 615.7890625 m 0
 1003.01953125 600.76953125 1003.01953125 576.41796875 988 561.396484375 c 2
 438.083007812 11.47265625 l 2
 438.083007812 11.47265625 398.703125 -3.5400390625 383.690429688 11.47265625 c 2
 167.555664062 227.607421875 l 2
 152.536132812 242.62890625 152.536132812 266.98046875 167.555664062 282 c 0
 182.577148438 297.021484375 206.930664062 297.021484375 221.948242188 282 c 2
 410.883789062 93.0625 l 1
 933.607421875 615.7890625 l 2
 948.62890625 630.80859375 972.982421875 630.80859375 988 615.7890625 c 0
EndSplineSet
EndChar

StartChar: clock
Encoding: 101 59492 101
Width: 1000
Flags: W
HStem: -100 50<375.501 634.499> 800 50<377.088 632.912>
VStem: 30 50<246.919 502.912> 930 50<246.919 502.912>
LayerCount: 2
Fore
SplineSet
846 44 m 1
 932 134 980 251 980 375 c 0
 980 494 937 605 858 693 c 1
 893 727 l 1
 925 695 l 2
 930 690 936 688 943 688 c 0
 950 688 955 690 960 695 c 0
 970 705 970 720 960 730 c 2
 860 830 l 2
 850 840 835 840 825 830 c 0
 815 820 815 805 825 795 c 2
 857 763 l 1
 823 728 l 1
 735 807 624 850 505 850 c 0
 386 850 275 807 187 728 c 1
 153 763 l 1
 185 795 l 2
 195 805 195 820 185 830 c 0
 175 840 160 840 150 830 c 2
 50 730 l 2
 40 720 40 705 50 695 c 0
 55 690 61 688 68 688 c 0
 75 688 80 690 85 695 c 2
 118 727 l 1
 152 693 l 1
 73 605 30 494 30 375 c 0
 30 251 78 134 164 44 c 1
 62 -57 l 2
 53 -67 53 -83 62 -93 c 0
 67 -98 74 -100 80 -100 c 0
 86 -100 93 -98 98 -93 c 2
 201 10 l 1
 286 -61 393 -100 505 -100 c 0
 617 -100 724 -61 809 10 c 1
 912 -93 l 2
 917 -98 924 -100 930 -100 c 0
 936 -100 943 -98 948 -93 c 0
 957 -83 957 -67 948 -57 c 2
 846 44 l 1
80 375 m 0
 80 609 271 800 505 800 c 0
 739 800 930 609 930 375 c 0
 930 141 739 -50 505 -50 c 0
 271 -50 80 141 80 375 c 0
787 488 m 4
 780 500 764 504 752 497 c 6
 506 355 l 5
 315 489 l 6
 303 497 288 494 280 483 c 4
 272 471 275 456 286 448 c 6
 491 305 l 5
 491 305 491 305 491 304 c 6
 491 304 492 304 492 304 c 5
 492 304 492 304 492 303 c 5
 493 303 493 303 494 303 c 5
 495 302 495 302 496 302 c 6
 496 302 496 302 497 302 c 5
 497 301 497 301 497 301 c 6
 498 301 498 301 498 301 c 6
 499 301 499 301 499 301 c 5
 499 301 500 301 500 301 c 5
 500 301 500 300 501 300 c 6
 501 300 501 300 502 300 c 5
 503 300 503 300 503 300 c 6
 504 300 504 300 505 300 c 5
 506 300 507 300 508 300 c 5
 509 300 510 300 511 301 c 5
 512 301 513 301 513 302 c 5
 514 302 514 302 514 302 c 6
 515 302 515 302 516 303 c 6
 516 303 517 303 517 303 c 5
 517 303 517 303 518 303 c 6
 777 453 l 6
 789 460 793 476 787 488 c 4
EndSplineSet
EndChar

StartChar: download
Encoding: 102 59493 102
Width: 1000
Flags: W
HStem: 1 50<71.1084 918.892>
VStem: 20 50<52.1084 200.802> 470 50<826 850.802> 920 50<52.1084 200.802>
CounterMasks: 1 70
LayerCount: 2
Fore
SplineSet
763 469 m 4
 753 478 737 478 727 469 c 6
 520 261 l 5
 520 826 l 6
 520 840 509 851 495 851 c 4
 481 851 470 840 470 826 c 6
 470 261 l 5
 263 469 l 6
 253 478 237 478 227 469 c 4
 218 459 218 443 227 433 c 6
 477 183 l 6
 482 178 489 176 495 176 c 4
 501 176 508 178 513 183 c 6
 763 433 l 6
 772 443 772 459 763 469 c 4
895 1 m 6
 95 1 l 6
 54 1 20 35 20 76 c 6
 20 176 l 6
 20 190 31 201 45 201 c 4
 59 201 70 190 70 176 c 6
 70 76 l 6
 70 62 81 51 95 51 c 6
 895 51 l 6
 909 51 920 62 920 76 c 6
 920 176 l 6
 920 190 931 201 945 201 c 4
 959 201 970 190 970 176 c 6
 970 76 l 6
 970 35 936 1 895 1 c 6
EndSplineSet
EndChar

StartChar: upload
Encoding: 103 59494 103
Width: 1000
Flags: W
HStem: 2 50<77.1084 924.892>
VStem: 26 50<53.1084 201.802> 476 50<152.198 177> 926 50<53.1084 201.802>
CounterMasks: 1 70
LayerCount: 2
Fore
SplineSet
901 2 m 6
 101 2 l 6
 60 2 26 36 26 77 c 6
 26 177 l 6
 26 191 37 202 51 202 c 4
 65 202 76 191 76 177 c 6
 76 77 l 6
 76 63 87 52 101 52 c 6
 901 52 l 6
 915 52 926 63 926 77 c 6
 926 177 l 6
 926 191 937 202 951 202 c 4
 965 202 976 191 976 177 c 6
 976 77 l 6
 976 36 942 2 901 2 c 6
769 520 m 6
 519 770 l 6
 509 779 493 779 483 770 c 6
 233 520 l 6
 224 510 224 494 233 484 c 4
 242 474 259 475 269 484 c 6
 476 692 l 5
 476 177 l 6
 476 163 487 152 501 152 c 4
 515 152 526 163 526 177 c 6
 526 692 l 5
 733 484 l 6
 738 479 745 477 751 477 c 4
 757 477 764 479 769 484 c 4
 778 494 778 510 769 520 c 6
EndSplineSet
EndChar

StartChar: enter-down
Encoding: 104 59495 104
Width: 1000
Flags: W
HStem: -100 50<191.108 838.892> 500 50<191.108 439.802 590.198 838.892>
VStem: 140 50<-48.8916 498.892> 490 50<825 849.802> 840 50<-48.8916 498.892>
CounterMasks: 1 38
LayerCount: 2
Fore
SplineSet
683 318 m 4
 673 327 657 327 647 318 c 6
 540 210 l 5
 540 825 l 6
 540 839 529 850 515 850 c 4
 501 850 490 839 490 825 c 6
 490 210 l 5
 383 318 l 6
 373 327 357 327 347 318 c 4
 338 308 338 292 347 282 c 6
 497 132 l 6
 502 127 509 125 515 125 c 4
 521 125 528 127 533 132 c 6
 683 282 l 6
 692 292 692 308 683 318 c 4
815 -100 m 6
 215 -100 l 6
 174 -100 140 -66 140 -25 c 6
 140 475 l 6
 140 516 174 550 215 550 c 6
 415 550 l 6
 429 550 440 539 440 525 c 4
 440 511 429 500 415 500 c 6
 215 500 l 6
 201 500 190 489 190 475 c 6
 190 -25 l 6
 190 -39 201 -50 215 -50 c 6
 815 -50 l 6
 829 -50 840 -39 840 -25 c 6
 840 475 l 6
 840 489 829 500 815 500 c 6
 615 500 l 6
 601 500 590 511 590 525 c 4
 590 539 601 550 615 550 c 6
 815 550 l 6
 856 550 890 516 890 475 c 6
 890 -25 l 6
 890 -66 856 -100 815 -100 c 6
EndSplineSet
EndChar

StartChar: enter-up
Encoding: 105 59496 105
Width: 1000
Flags: W
HStem: -129 50<189.108 836.892> 471 50<189.108 437.802 588.198 836.892>
VStem: 138 50<-77.8916 469.892> 488 50<171.198 196> 838 50<-77.8916 469.892>
CounterMasks: 1 38
LayerCount: 2
Fore
SplineSet
813 -129 m 6
 213 -129 l 6
 172 -129 138 -95 138 -54 c 6
 138 446 l 6
 138 487 172 521 213 521 c 6
 413 521 l 6
 427 521 438 510 438 496 c 4
 438 482 427 471 413 471 c 6
 213 471 l 6
 199 471 188 460 188 446 c 6
 188 -54 l 6
 188 -68 199 -79 213 -79 c 6
 813 -79 l 6
 827 -79 838 -68 838 -54 c 6
 838 446 l 6
 838 460 827 471 813 471 c 6
 613 471 l 6
 599 471 588 482 588 496 c 4
 588 510 599 521 613 521 c 6
 813 521 l 6
 854 521 888 487 888 446 c 6
 888 -54 l 6
 888 -95 854 -129 813 -129 c 6
681 689 m 6
 531 839 l 6
 521 848 505 848 495 839 c 6
 345 689 l 6
 336 679 336 663 345 653 c 4
 354 643 371 644 381 653 c 6
 488 761 l 5
 488 196 l 6
 488 182 499 171 513 171 c 4
 527 171 538 182 538 196 c 6
 538 761 l 5
 645 653 l 6
 650 648 657 646 663 646 c 4
 669 646 676 648 681 653 c 4
 690 663 690 679 681 689 c 6
EndSplineSet
EndChar

StartChar: bug
Encoding: 106 59497 106
Width: 1000
Flags: W
HStem: -100 51<405.951 480 530 604.049> 250 50<80.1976 105 181 182.594 827.406 829 905 929.802> 599 51<404.941 480 530 605.059> 800 50<422.24 587.982>
VStem: 130 50<-49.8024 27.1839 522.816 599.802> 181 49<148.266 250 300 401.734> 280 50<593.671 707.982> 680 50<593.671 707.982> 780 49<148.266 250 300 401.734> 830 50<-49.8024 27.1839 522.816 599.802>
LayerCount: 2
Fore
SplineSet
905 300 m 6
 829 300 l 5
 826 355 813 408 790 455 c 5
 842 470 880 518 880 575 c 4
 880 589 869 600 855 600 c 4
 841 600 830 589 830 575 c 4
 830 537 802 505 765 501 c 5
 756 514 746 527 736 539 c 4
 731 545 725 551 720 557 c 5
 727 579 730 602 730 625 c 4
 730 749 629 850 505 850 c 4
 381 850 280 749 280 625 c 4
 280 602 284 579 291 557 c 5
 285 551 279 545 274 539 c 4
 264 527 254 514 245 501 c 5
 209 505 180 537 180 575 c 4
 180 589 169 600 155 600 c 4
 141 600 130 589 130 575 c 4
 130 518 168 470 220 455 c 5
 197 408 184 355 181 300 c 5
 105 300 l 6
 91 300 80 289 80 275 c 4
 80 261 91 250 105 250 c 6
 181 250 l 5
 184 195 197 142 220 95 c 5
 168 80 130 32 130 -25 c 4
 130 -39 141 -50 155 -50 c 4
 169 -50 180 -39 180 -25 c 4
 180 13 209 45 245 49 c 5
 254 36 264 23 274 11 c 4
 335 -61 418 -100 505 -100 c 4
 592 -100 675 -61 736 11 c 4
 746 23 756 36 765 49 c 5
 802 45 830 13 830 -25 c 4
 830 -39 841 -50 855 -50 c 4
 869 -50 880 -39 880 -25 c 4
 880 32 842 80 790 95 c 5
 813 142 826 195 829 250 c 5
 905 250 l 6
 919 250 930 261 930 275 c 4
 930 289 919 300 905 300 c 6
505 800 m 4
 602 800 680 722 680 625 c 4
 680 614 679 604 677 593 c 5
 626 630 567 650 505 650 c 4
 443 650 384 630 333 593 c 5
 331 604 330 614 330 625 c 4
 330 722 409 800 505 800 c 4
230 275 m 4
 230 444 340 584 480 599 c 5
 480 -49 l 5
 340 -34 230 106 230 275 c 4
530 -49 m 5
 530 599 l 5
 670 584 780 444 780 275 c 4
 780 106 670 -34 530 -49 c 5
EndSplineSet
EndChar

StartChar: code
Encoding: 107 59498 107
Width: 1000
Flags: W
LayerCount: 2
Fore
SplineSet
250 100 m 4
 244 100 237 102 232 107 c 6
 32 307 l 6
 23 317 23 333 32 343 c 6
 232 543 l 6
 242 552 258 552 268 543 c 4
 277 533 277 517 268 507 c 6
 85 325 l 5
 268 143 l 6
 277 133 277 117 268 107 c 4
 263 102 256 100 250 100 c 4
750 100 m 4
 744 100 737 102 732 107 c 4
 723 117 723 133 732 143 c 6
 915 325 l 5
 732 507 l 6
 723 517 723 533 732 543 c 4
 742 552 758 552 768 543 c 6
 968 343 l 6
 977 333 977 317 968 307 c 6
 768 107 l 6
 763 102 756 100 750 100 c 4
375 100 m 4
 371 100 366 101 362 104 c 4
 350 111 347 127 354 138 c 6
 604 538 l 6
 611 550 627 554 638 546 c 4
 650 539 654 524 646 512 c 6
 396 112 l 6
 392 104 383 100 375 100 c 4
EndSplineSet
EndChar

StartChar: link
Encoding: 108 59499 108
Width: 1000
Flags: W
LayerCount: 2
Fore
SplineSet
534 200 m 0
 487 200 440 218 404 254 c 0
 394 264 394 280 404 289 c 0
 414 298 430 299 439 289 c 0
 492 237 577 237 629 289 c 2
 811 471 l 2
 863 523 863 608 811 661 c 0
 758 713 673 713 621 661 c 2
 468 507 l 2
 458 498 442 498 432 507 c 0
 423 517 423 533 432 543 c 2
 586 696 l 2
 658 768 774 768 846 696 c 0
 918 624 918 508 846 436 c 2
 664 254 l 2
 628 218 581 200 534 200 c 0
234 -100 m 0
 187 -100 140 -82 104 -46 c 0
 32 26 32 143 104 214 c 2
 286 396 l 2
 358 468 474 468 546 396 c 0
 556 386 556 371 546 361 c 0
 536 351 521 351 511 361 c 0
 458 413 373 413 321 361 c 2
 139 179 l 2
 87 127 87 42 139 -11 c 0
 191 -64 277 -63 329 -11 c 2
 482 143 l 2
 492 152 508 152 518 143 c 0
 527 133 527 117 518 107 c 2
 364 -46 l 2
 328 -82 281 -100 234 -100 c 0
EndSplineSet
EndChar

StartChar: unlink
Encoding: 109 59500 109
Width: 1000
Flags: W
LayerCount: 2
Fore
SplineSet
675 275 m 0
 669 275 662 277 657 282 c 0
 648 292 648 308 657 318 c 2
 811 471 l 2
 836 496 850 530 850 566 c 0
 850 602 836 635 811 661 c 0
 758 713 673 713 621 661 c 2
 468 507 l 2
 458 498 442 498 432 507 c 0
 423 517 423 533 432 543 c 2
 586 696 l 2
 658 768 774 768 846 696 c 0
 881 661 900 615 900 566 c 0
 900 517 881 471 846 436 c 2
 693 282 l 2
 688 277 681 275 675 275 c 0
234 -100 m 0
 185 -100 139 -81 104 -46 c 0
 32 26 32 143 104 214 c 2
 257 368 l 2
 267 377 283 377 293 368 c 0
 302 358 302 342 293 332 c 2
 139 179 l 2
 87 127 87 42 139 -11 c 0
 165 -36 198 -50 234 -50 c 0
 270 -50 304 -36 329 -11 c 2
 482 143 l 2
 492 152 508 152 518 143 c 0
 527 133 527 117 518 107 c 2
 364 -46 l 2
 330 -81 283 -100 234 -100 c 0
275 500 m 0
 269 500 262 502 257 507 c 2
 157 607 l 2
 148 617 148 633 157 643 c 0
 167 652 183 652 193 643 c 2
 293 543 l 2
 302 533 302 517 293 507 c 0
 288 502 281 500 275 500 c 0
375 550 m 0
 361 550 350 561 350 575 c 2
 350 725 l 2
 350 739 361 750 375 750 c 0
 389 750 400 739 400 725 c 2
 400 575 l 2
 400 561 389 550 375 550 c 0
225 400 m 2
 75 400 l 2
 61 400 50 411 50 425 c 0
 50 439 61 450 75 450 c 2
 225 450 l 2
 239 450 250 439 250 425 c 0
 250 411 239 400 225 400 c 2
775 0 m 0
 769 0 762 2 757 7 c 2
 657 107 l 2
 648 117 648 133 657 143 c 0
 667 152 683 152 693 143 c 2
 793 43 l 2
 802 33 802 17 793 7 c 0
 788 2 781 0 775 0 c 0
875 200 m 2
 725 200 l 2
 711 200 700 211 700 225 c 0
 700 239 711 250 725 250 c 2
 875 250 l 2
 889 250 900 239 900 225 c 0
 900 211 889 200 875 200 c 2
575 -100 m 0
 561 -100 550 -89 550 -75 c 2
 550 75 l 2
 550 89 561 100 575 100 c 0
 589 100 600 89 600 75 c 2
 600 -75 l 2
 600 -89 589 -100 575 -100 c 0
EndSplineSet
EndChar

StartChar: like
Encoding: 110 59501 110
Width: 1000
Flags: W
LayerCount: 2
Fore
SplineSet
946 290 m 0
 968 315 981 357 981 398 c 0
 981 424 975 447 964 465 c 0
 950 488 927 500 900 500 c 2
 769 500 l 1
 840 630 858 727 823 790 c 0
 798 834 752 850 720 850 c 0
 708 850 697 841 696 828 c 0
 687 762 636 684 557 613 c 0
 481 544 388 490 293 457 c 1
 281 482 255 500 225 500 c 2
 75 500 l 2
 34 500 0 466 0 425 c 2
 0 -25 l 2
 0 -66 34 -100 75 -100 c 2
 225 -100 l 2
 257 -100 284 -80 295 -52 c 1
 393 -65 430 -84 466 -104 c 0
 510 -127 553 -150 691 -150 c 0
 727 -150 761 -141 786 -124 c 0
 811 -107 827 -84 832 -56 c 1
 852 -48 870 -30 884 -2 c 0
 897 25 905 60 905 86 c 0
 905 91 905 96 905 100 c 0
 917 109 929 124 938 143 c 0
 951 170 960 204 960 234 c 0
 960 255 956 273 948 286 c 0
 947 288 947 289 946 290 c 0
225 -50 m 2
 75 -50 l 2
 61 -50 50 -39 50 -25 c 2
 50 425 l 2
 50 439 61 450 75 450 c 2
 225 450 l 2
 239 450 250 439 250 425 c 2
 250 -25 l 1
 250 -25 250 -25 250 -25 c 1
 250 -39 239 -50 225 -50 c 2
917 336 m 0
 909 321 902 316 898 316 c 0
 885 316 873 304 873 291 c 0
 873 278 885 266 898 266 c 0
 901 266 902 266 904 262 c 0
 908 256 910 246 910 234 c 0
 910 212 903 185 893 165 c 0
 883 145 873 138 869 138 c 0
 855 138 844 126 844 113 c 0
 844 104 848 96 855 91 c 1
 857 76 850 33 830 6 c 0
 823 -5 815 -11 809 -11 c 0
 796 -11 784 -22 784 -36 c 0
 784 -80 736 -100 691 -100 c 0
 565 -100 530 -81 489 -59 c 0
 451 -39 408 -16 300 -3 c 1
 300 407 l 1
 405 441 508 501 591 575 c 0
 670 647 723 725 740 797 c 1
 754 792 769 783 779 766 c 0
 796 736 808 661 704 488 c 0
 700 480 700 471 704 463 c 0
 708 455 717 450 726 450 c 2
 900 450 l 2
 910 450 916 447 922 438 c 0
 927 429 931 415 931 398 c 0
 931 376 926 353 917 336 c 0
EndSplineSet
EndChar

StartChar: bad
Encoding: 111 59502 111
Width: 1000
Flags: W
LayerCount: 2
Fore
SplineSet
946 410 m 0
 968 385 981 343 981 303 c 0
 981 276 975 253 964 235 c 0
 950 213 927 200 900 200 c 2
 769 200 l 1
 840 70 858 -27 823 -90 c 0
 798 -134 752 -150 720 -150 c 0
 708 -150 697 -141 696 -128 c 0
 687 -62 636 16 557 88 c 0
 481 156 388 210 293 243 c 1
 281 218 255 200 225 200 c 2
 75 200 l 2
 34 200 0 234 0 275 c 2
 0 725 l 2
 0 766 34 800 75 800 c 2
 225 800 l 2
 257 800 284 780 295 752 c 1
 393 765 430 784 466 804 c 0
 510 827 553 850 691 850 c 0
 727 850 761 841 786 824 c 0
 811 807 827 784 832 756 c 1
 852 748 870 730 884 702 c 0
 897 675 905 640 905 614 c 0
 905 609 905 604 905 600 c 0
 917 591 929 576 938 558 c 0
 951 530 960 496 960 466 c 0
 960 445 956 427 948 414 c 0
 947 413 947 412 946 410 c 0
225 750 m 2
 75 750 l 2
 61 750 50 739 50 725 c 2
 50 275 l 2
 50 261 61 250 75 250 c 2
 225 250 l 2
 239 250 250 261 250 275 c 2
 250 725 l 1
 250 725 250 725 250 725 c 1
 250 739 239 750 225 750 c 2
917 364 m 0
 909 379 902 384 898 384 c 0
 885 384 873 396 873 409 c 0
 873 422 885 434 898 434 c 0
 901 434 902 434 904 438 c 0
 908 444 910 454 910 466 c 0
 910 488 903 515 893 535 c 0
 883 555 873 563 869 563 c 0
 855 563 844 574 844 588 c 0
 844 596 848 604 855 609 c 1
 857 624 850 667 830 695 c 0
 823 705 815 711 809 711 c 0
 796 711 784 722 784 736 c 0
 784 780 736 800 691 800 c 0
 565 800 530 781 489 759 c 0
 451 739 408 716 300 703 c 1
 300 293 l 1
 405 259 508 200 591 125 c 0
 670 53 723 -25 740 -97 c 1
 754 -92 769 -83 779 -66 c 0
 796 -36 808 39 704 212 c 0
 700 220 700 230 704 237 c 0
 708 244 717 250 726 250 c 2
 900 250 l 2
 910 250 916 254 922 262 c 0
 927 271 931 286 931 303 c 0
 931 324 926 347 917 364 c 0
EndSplineSet
EndChar

StartChar: search
Encoding: 112 59503 112
Width: 1000
Flags: W
HStem: -150.002 82.9805<370.673 629.329> 539.362 125.531<460.979 533.697> 767.021 82.9785<370.673 629.329>
VStem: 0 82.9785<220.672 479.328> 459.575 85.1045<42.8934 461.362 548.468 656.411> 917.023 82.9785<220.671 479.327>
LayerCount: 2
Fore
SplineSet
500.000976562 850 m 0
 776.595703125 850 1000.00195312 626.595703125 1000.00195312 349.999023438 c 0
 1000.00195312 73.40234375 776.59765625 -150.001953125 500.000976562 -150.001953125 c 0
 223.404296875 -150.001953125 0 73.40234375 0 349.999023438 c 0
 0 626.595703125 223.404296875 850 500.000976562 850 c 0
500.000976562 -67.021484375 m 0
 729.788085938 -67.021484375 917.0234375 120.211914062 917.0234375 349.999023438 c 0
 917.0234375 579.786132812 729.788085938 767.021484375 500.000976562 767.021484375 c 0
 270.213867188 767.021484375 82.978515625 579.788085938 82.978515625 350.000976562 c 0
 82.978515625 120.213867188 270.213867188 -67.021484375 500.000976562 -67.021484375 c 0
502.126953125 467.021484375 m 0
 525.533203125 467.021484375 544.681640625 447.872070312 544.6796875 424.466796875 c 2
 544.6796875 77.6611328125 l 2
 544.6796875 56.3837890625 525.53125 37.234375 502.126953125 37.234375 c 0
 478.723632812 37.234375 459.575195312 56.3837890625 459.575195312 79.787109375 c 2
 459.575195312 424.46875 l 2
 459.575195312 447.872070312 478.723632812 467.021484375 502.126953125 467.021484375 c 0
497.873046875 664.893554688 m 0
 521.276367188 664.893554688 540.424804688 645.744140625 540.424804688 622.340820312 c 2
 540.424804688 581.915039062 l 2
 538.298828125 558.510742188 521.276367188 539.362304688 497.873046875 539.362304688 c 0
 474.46875 539.362304688 455.3203125 558.510742188 455.3203125 581.915039062 c 2
 455.3203125 622.340820312 l 2
 455.3203125 645.744140625 474.46875 664.893554688 497.873046875 664.893554688 c 0
EndSplineSet
EndChar

